%TF.GenerationSoftware,KiCad,Pcbnew,8.0.1*%
%TF.CreationDate,2024-05-12T21:11:42+05:30*%
%TF.ProjectId,PBSEQ-D2,50425345-512d-4443-922e-6b696361645f,0.1*%
%TF.SameCoordinates,Original*%
%TF.FileFunction,Copper,L1,Top*%
%TF.FilePolarity,Positive*%
%FSLAX46Y46*%
G04 Gerber Fmt 4.6, Leading zero omitted, Abs format (unit mm)*
G04 Created by KiCad (PCBNEW 8.0.1) date 2024-05-12 21:11:42*
%MOMM*%
%LPD*%
G01*
G04 APERTURE LIST*
G04 Aperture macros list*
%AMRoundRect*
0 Rectangle with rounded corners*
0 $1 Rounding radius*
0 $2 $3 $4 $5 $6 $7 $8 $9 X,Y pos of 4 corners*
0 Add a 4 corners polygon primitive as box body*
4,1,4,$2,$3,$4,$5,$6,$7,$8,$9,$2,$3,0*
0 Add four circle primitives for the rounded corners*
1,1,$1+$1,$2,$3*
1,1,$1+$1,$4,$5*
1,1,$1+$1,$6,$7*
1,1,$1+$1,$8,$9*
0 Add four rect primitives between the rounded corners*
20,1,$1+$1,$2,$3,$4,$5,0*
20,1,$1+$1,$4,$5,$6,$7,0*
20,1,$1+$1,$6,$7,$8,$9,0*
20,1,$1+$1,$8,$9,$2,$3,0*%
G04 Aperture macros list end*
%TA.AperFunction,SMDPad,CuDef*%
%ADD10RoundRect,0.200000X0.200000X0.275000X-0.200000X0.275000X-0.200000X-0.275000X0.200000X-0.275000X0*%
%TD*%
%TA.AperFunction,SMDPad,CuDef*%
%ADD11RoundRect,0.200000X0.275000X-0.200000X0.275000X0.200000X-0.275000X0.200000X-0.275000X-0.200000X0*%
%TD*%
%TA.AperFunction,ComponentPad*%
%ADD12R,1.700000X1.700000*%
%TD*%
%TA.AperFunction,ComponentPad*%
%ADD13O,1.700000X1.700000*%
%TD*%
%TA.AperFunction,SMDPad,CuDef*%
%ADD14RoundRect,0.150000X-0.587500X-0.150000X0.587500X-0.150000X0.587500X0.150000X-0.587500X0.150000X0*%
%TD*%
%TA.AperFunction,SMDPad,CuDef*%
%ADD15RoundRect,0.218750X-0.218750X-0.256250X0.218750X-0.256250X0.218750X0.256250X-0.218750X0.256250X0*%
%TD*%
%TA.AperFunction,SMDPad,CuDef*%
%ADD16RoundRect,0.200000X-0.200000X-0.275000X0.200000X-0.275000X0.200000X0.275000X-0.200000X0.275000X0*%
%TD*%
%TA.AperFunction,SMDPad,CuDef*%
%ADD17RoundRect,0.225000X0.250000X-0.225000X0.250000X0.225000X-0.250000X0.225000X-0.250000X-0.225000X0*%
%TD*%
%TA.AperFunction,SMDPad,CuDef*%
%ADD18R,1.150000X1.700000*%
%TD*%
%TA.AperFunction,SMDPad,CuDef*%
%ADD19RoundRect,0.200000X-0.275000X0.200000X-0.275000X-0.200000X0.275000X-0.200000X0.275000X0.200000X0*%
%TD*%
%TA.AperFunction,SMDPad,CuDef*%
%ADD20RoundRect,0.150000X0.150000X-0.587500X0.150000X0.587500X-0.150000X0.587500X-0.150000X-0.587500X0*%
%TD*%
%TA.AperFunction,ViaPad*%
%ADD21C,0.600000*%
%TD*%
%TA.AperFunction,Conductor*%
%ADD22C,0.300000*%
%TD*%
G04 APERTURE END LIST*
D10*
%TO.P,R3,1*%
%TO.N,GND*%
X139620000Y-96405000D03*
%TO.P,R3,2*%
%TO.N,OUTPUT*%
X137970000Y-96405000D03*
%TD*%
D11*
%TO.P,R5,1*%
%TO.N,Net-(D1-K)*%
X141740000Y-98605000D03*
%TO.P,R5,2*%
%TO.N,GND*%
X141740000Y-96955000D03*
%TD*%
D12*
%TO.P,J3,1,Pin_1*%
%TO.N,Net-(J3-Pin_1)*%
X133077500Y-93370000D03*
D13*
%TO.P,J3,2,Pin_2*%
%TO.N,Net-(J3-Pin_2)*%
X135617500Y-93370000D03*
%TD*%
D12*
%TO.P,J1,1,Pin_1*%
%TO.N,GND*%
X144980000Y-93270000D03*
D13*
%TO.P,J1,2,Pin_2*%
%TO.N,VCC*%
X144980000Y-95810000D03*
%TD*%
D14*
%TO.P,Q1,1,G*%
%TO.N,Net-(Q1-G)*%
X136017500Y-98156000D03*
%TO.P,Q1,2,S*%
%TO.N,VCC*%
X136017500Y-100056000D03*
%TO.P,Q1,3,D*%
%TO.N,OUTPUT*%
X137892500Y-99106000D03*
%TD*%
D15*
%TO.P,D1,1,K*%
%TO.N,Net-(D1-K)*%
X144212500Y-98610000D03*
%TO.P,D1,2,A*%
%TO.N,VCC*%
X145787500Y-98610000D03*
%TD*%
D16*
%TO.P,R2,1*%
%TO.N,Net-(J3-Pin_1)*%
X139380000Y-106185000D03*
%TO.P,R2,2*%
%TO.N,OUTPUT*%
X141030000Y-106185000D03*
%TD*%
D10*
%TO.P,R6,1*%
%TO.N,Net-(D2-K)*%
X143315000Y-100850000D03*
%TO.P,R6,2*%
%TO.N,GND*%
X141665000Y-100850000D03*
%TD*%
D12*
%TO.P,J2,1,Pin_1*%
%TO.N,GND*%
X144980000Y-105770000D03*
D13*
%TO.P,J2,2,Pin_2*%
%TO.N,OUTPUT*%
X144980000Y-108310000D03*
%TD*%
D15*
%TO.P,D2,1,K*%
%TO.N,Net-(D2-K)*%
X144212500Y-103000000D03*
%TO.P,D2,2,A*%
%TO.N,OUTPUT*%
X145787500Y-103000000D03*
%TD*%
D16*
%TO.P,R4,1*%
%TO.N,Net-(Q1-G)*%
X131680000Y-96605000D03*
%TO.P,R4,2*%
%TO.N,Net-(J3-Pin_2)*%
X133330000Y-96605000D03*
%TD*%
D17*
%TO.P,C1,1*%
%TO.N,VCC*%
X131655000Y-99980000D03*
%TO.P,C1,2*%
%TO.N,Net-(Q1-G)*%
X131655000Y-98430000D03*
%TD*%
D18*
%TO.P,SW1,1,1*%
%TO.N,Net-(J3-Pin_2)*%
X136760000Y-108035000D03*
%TO.P,SW1,2,2*%
%TO.N,Net-(J3-Pin_1)*%
X132410000Y-108035000D03*
%TD*%
D19*
%TO.P,R1,1*%
%TO.N,Net-(Q1-G)*%
X133425000Y-98380000D03*
%TO.P,R1,2*%
%TO.N,VCC*%
X133425000Y-100030000D03*
%TD*%
D17*
%TO.P,C2,1*%
%TO.N,Net-(J3-Pin_2)*%
X135465000Y-104270000D03*
%TO.P,C2,2*%
%TO.N,GND*%
X135465000Y-102720000D03*
%TD*%
D20*
%TO.P,Q2,1,G*%
%TO.N,Net-(J3-Pin_1)*%
X137787000Y-103982500D03*
%TO.P,Q2,2,S*%
%TO.N,GND*%
X139687000Y-103982500D03*
%TO.P,Q2,3,D*%
%TO.N,Net-(Q1-G)*%
X138737000Y-102107500D03*
%TD*%
D21*
%TO.N,Net-(Q1-G)*%
X137242500Y-98200000D03*
X137900000Y-101900000D03*
%TO.N,GND*%
X147600000Y-98200000D03*
X143200000Y-97000000D03*
X132600000Y-105200000D03*
X142000000Y-104600000D03*
X140200000Y-97800000D03*
X141800000Y-92800000D03*
X136800000Y-105800000D03*
X136600000Y-96000000D03*
X141800000Y-108000000D03*
X146800000Y-100800000D03*
%TO.N,Net-(J3-Pin_2)*%
X135500000Y-105200000D03*
%TO.N,OUTPUT*%
X140200000Y-99100000D03*
X142100000Y-106200000D03*
%TO.N,Net-(J3-Pin_1)*%
X133800000Y-101600000D03*
%TD*%
D22*
%TO.N,Net-(Q1-G)*%
X137900000Y-101900000D02*
X138529500Y-101900000D01*
X131655000Y-98430000D02*
X133375000Y-98430000D01*
X131680000Y-96605000D02*
X131680000Y-98405000D01*
X138529500Y-101900000D02*
X138737000Y-102107500D01*
X131680000Y-98405000D02*
X131655000Y-98430000D01*
X135793500Y-98380000D02*
X136017500Y-98156000D01*
X133425000Y-98380000D02*
X135793500Y-98380000D01*
X136017500Y-98156000D02*
X137198500Y-98156000D01*
X133375000Y-98430000D02*
X133425000Y-98380000D01*
X137198500Y-98156000D02*
X137242500Y-98200000D01*
%TO.N,VCC*%
X133425000Y-100030000D02*
X135991500Y-100030000D01*
X145787500Y-98610000D02*
X145787500Y-96617500D01*
X144372500Y-100025000D02*
X145787500Y-98610000D01*
X136017500Y-100056000D02*
X136048500Y-100025000D01*
X133375000Y-99980000D02*
X133425000Y-100030000D01*
X135991500Y-100030000D02*
X136017500Y-100056000D01*
X136048500Y-100025000D02*
X144372500Y-100025000D01*
X145787500Y-96617500D02*
X144980000Y-95810000D01*
X131655000Y-99980000D02*
X133375000Y-99980000D01*
%TO.N,Net-(J3-Pin_2)*%
X135465000Y-106740000D02*
X136760000Y-108035000D01*
X135617500Y-94317500D02*
X135617500Y-93370000D01*
X135500000Y-105200000D02*
X135465000Y-105165000D01*
X135465000Y-105165000D02*
X135465000Y-104270000D01*
X133330000Y-96605000D02*
X135617500Y-94317500D01*
X135465000Y-104270000D02*
X135465000Y-106740000D01*
%TO.N,Net-(D1-K)*%
X141740000Y-98605000D02*
X144207500Y-98605000D01*
X144207500Y-98605000D02*
X144212500Y-98610000D01*
%TO.N,OUTPUT*%
X144900000Y-104200000D02*
X145787500Y-103312500D01*
X141030000Y-106185000D02*
X142855000Y-106185000D01*
X137892500Y-99106000D02*
X140194000Y-99106000D01*
X142855000Y-106185000D02*
X142855000Y-105495000D01*
X137892500Y-99106000D02*
X137892500Y-96482500D01*
X142855000Y-105495000D02*
X144150000Y-104200000D01*
X142855000Y-106185000D02*
X144980000Y-108310000D01*
X144150000Y-104200000D02*
X144900000Y-104200000D01*
X145787500Y-103312500D02*
X145787500Y-103000000D01*
X140194000Y-99106000D02*
X140200000Y-99100000D01*
X137892500Y-96482500D02*
X137970000Y-96405000D01*
%TO.N,Net-(D2-K)*%
X143315000Y-102102500D02*
X144212500Y-103000000D01*
X143315000Y-100850000D02*
X143315000Y-102102500D01*
%TO.N,Net-(J3-Pin_1)*%
X137787000Y-104687000D02*
X137787000Y-103982500D01*
X139285000Y-106185000D02*
X137787000Y-104687000D01*
X137787000Y-103317296D02*
X137787000Y-103982500D01*
X133800000Y-101600000D02*
X136069704Y-101600000D01*
X139380000Y-106185000D02*
X139380000Y-108620000D01*
X138500000Y-109500000D02*
X133875000Y-109500000D01*
X136069704Y-101600000D02*
X137787000Y-103317296D01*
X139380000Y-106185000D02*
X139285000Y-106185000D01*
X133875000Y-109500000D02*
X132410000Y-108035000D01*
X139380000Y-108620000D02*
X138500000Y-109500000D01*
%TD*%
%TA.AperFunction,Conductor*%
%TO.N,GND*%
G36*
X143824375Y-91815185D02*
G01*
X143870130Y-91867989D01*
X143880074Y-91937147D01*
X143851049Y-92000703D01*
X143831647Y-92018767D01*
X143772809Y-92062813D01*
X143686649Y-92177906D01*
X143686645Y-92177913D01*
X143636403Y-92312620D01*
X143636401Y-92312627D01*
X143630000Y-92372155D01*
X143630000Y-93020000D01*
X144546988Y-93020000D01*
X144514075Y-93077007D01*
X144480000Y-93204174D01*
X144480000Y-93335826D01*
X144514075Y-93462993D01*
X144546988Y-93520000D01*
X143630000Y-93520000D01*
X143630000Y-94167844D01*
X143636401Y-94227372D01*
X143636403Y-94227379D01*
X143686645Y-94362086D01*
X143686649Y-94362093D01*
X143772809Y-94477187D01*
X143772812Y-94477190D01*
X143887906Y-94563350D01*
X143887913Y-94563354D01*
X144022620Y-94613596D01*
X144022627Y-94613598D01*
X144082155Y-94619999D01*
X144082172Y-94620000D01*
X144280634Y-94620000D01*
X144347673Y-94639685D01*
X144393428Y-94692489D01*
X144403372Y-94761647D01*
X144374347Y-94825203D01*
X144345911Y-94849427D01*
X144283701Y-94887945D01*
X144126127Y-95031593D01*
X143997632Y-95201746D01*
X143902596Y-95392605D01*
X143902596Y-95392607D01*
X143844244Y-95597689D01*
X143840703Y-95635909D01*
X143824571Y-95810000D01*
X143844244Y-96022310D01*
X143901208Y-96222516D01*
X143902596Y-96227392D01*
X143902596Y-96227394D01*
X143997632Y-96418253D01*
X144103311Y-96558193D01*
X144126128Y-96588407D01*
X144283698Y-96732052D01*
X144464981Y-96844298D01*
X144663802Y-96921321D01*
X144873390Y-96960500D01*
X144873392Y-96960500D01*
X145086608Y-96960500D01*
X145086610Y-96960500D01*
X145190217Y-96941132D01*
X145259730Y-96948163D01*
X145314408Y-96991660D01*
X145336891Y-97057814D01*
X145337000Y-97063021D01*
X145337000Y-97816237D01*
X145317315Y-97883276D01*
X145287925Y-97915041D01*
X145198132Y-97983132D01*
X145111884Y-98096868D01*
X145108086Y-98103624D01*
X145058072Y-98152412D01*
X144989620Y-98166416D01*
X144924463Y-98141188D01*
X144891914Y-98103624D01*
X144888115Y-98096868D01*
X144801867Y-97983132D01*
X144688134Y-97896886D01*
X144688132Y-97896885D01*
X144555346Y-97844521D01*
X144555345Y-97844520D01*
X144555343Y-97844520D01*
X144471902Y-97834500D01*
X143953098Y-97834500D01*
X143869656Y-97844520D01*
X143869655Y-97844520D01*
X143736865Y-97896886D01*
X143623132Y-97983132D01*
X143531760Y-98103626D01*
X143529285Y-98101749D01*
X143490040Y-98140049D01*
X143431945Y-98154500D01*
X142514751Y-98154500D01*
X142447712Y-98134815D01*
X142415485Y-98104812D01*
X142372548Y-98047457D01*
X142372546Y-98047454D01*
X142305003Y-97996891D01*
X142263133Y-97940957D01*
X142258149Y-97871265D01*
X142291635Y-97809943D01*
X142315166Y-97791508D01*
X142449874Y-97710074D01*
X142449878Y-97710071D01*
X142570072Y-97589877D01*
X142658019Y-97444395D01*
X142708590Y-97282106D01*
X142715000Y-97211572D01*
X142715000Y-97205000D01*
X140765001Y-97205000D01*
X140765001Y-97211582D01*
X140771408Y-97282102D01*
X140771409Y-97282107D01*
X140821981Y-97444396D01*
X140909927Y-97589877D01*
X141030122Y-97710072D01*
X141164834Y-97791508D01*
X141212021Y-97843036D01*
X141223860Y-97911895D01*
X141196591Y-97976224D01*
X141174996Y-97996891D01*
X141107452Y-98047455D01*
X141021206Y-98162664D01*
X141021202Y-98162671D01*
X140996219Y-98229656D01*
X140970909Y-98297517D01*
X140964500Y-98357127D01*
X140964500Y-98357134D01*
X140964500Y-98357135D01*
X140964500Y-98753095D01*
X140944815Y-98820134D01*
X140892011Y-98865889D01*
X140822853Y-98875833D01*
X140759297Y-98846808D01*
X140725939Y-98800546D01*
X140724536Y-98797159D01*
X140628282Y-98671718D01*
X140502841Y-98575464D01*
X140356762Y-98514956D01*
X140356760Y-98514955D01*
X140200001Y-98494318D01*
X140199999Y-98494318D01*
X140043239Y-98514955D01*
X140043234Y-98514957D01*
X139897163Y-98575461D01*
X139897162Y-98575461D01*
X139865624Y-98599661D01*
X139826246Y-98629876D01*
X139761079Y-98655070D01*
X139750762Y-98655500D01*
X138872288Y-98655500D01*
X138805249Y-98635815D01*
X138798655Y-98631270D01*
X138692886Y-98553209D01*
X138692880Y-98553206D01*
X138564700Y-98508353D01*
X138534270Y-98505500D01*
X138534266Y-98505500D01*
X138467000Y-98505500D01*
X138399961Y-98485815D01*
X138354206Y-98433011D01*
X138343000Y-98381500D01*
X138343000Y-97235226D01*
X138362685Y-97168187D01*
X138407576Y-97126392D01*
X138412323Y-97123798D01*
X138412331Y-97123796D01*
X138527546Y-97037546D01*
X138578109Y-96970002D01*
X138634041Y-96928133D01*
X138703733Y-96923149D01*
X138765056Y-96956634D01*
X138783491Y-96980165D01*
X138864927Y-97114877D01*
X138985122Y-97235072D01*
X139130604Y-97323019D01*
X139130603Y-97323019D01*
X139292894Y-97373590D01*
X139292893Y-97373590D01*
X139363408Y-97379998D01*
X139363426Y-97379999D01*
X139369999Y-97379998D01*
X139370000Y-97379998D01*
X139370000Y-96655000D01*
X139870000Y-96655000D01*
X139870000Y-97379999D01*
X139876581Y-97379999D01*
X139947102Y-97373591D01*
X139947107Y-97373590D01*
X140109396Y-97323018D01*
X140254877Y-97235072D01*
X140375072Y-97114877D01*
X140463019Y-96969395D01*
X140513590Y-96807106D01*
X140519078Y-96746711D01*
X140534622Y-96707358D01*
X140529307Y-96697162D01*
X140757162Y-96697162D01*
X140765000Y-96705000D01*
X141490000Y-96705000D01*
X141490000Y-96055000D01*
X141990000Y-96055000D01*
X141990000Y-96705000D01*
X142714999Y-96705000D01*
X142714999Y-96698417D01*
X142708591Y-96627897D01*
X142708590Y-96627892D01*
X142658018Y-96465603D01*
X142570072Y-96320122D01*
X142449877Y-96199927D01*
X142304395Y-96111980D01*
X142304396Y-96111980D01*
X142142105Y-96061409D01*
X142142106Y-96061409D01*
X142071572Y-96055000D01*
X141990000Y-96055000D01*
X141490000Y-96055000D01*
X141489999Y-96054999D01*
X141408417Y-96055000D01*
X141337897Y-96061408D01*
X141337892Y-96061409D01*
X141175603Y-96111981D01*
X141030122Y-96199927D01*
X140909927Y-96320122D01*
X140821980Y-96465604D01*
X140771409Y-96627893D01*
X140767491Y-96671014D01*
X140757162Y-96697162D01*
X140529307Y-96697162D01*
X140522350Y-96683818D01*
X140520000Y-96659793D01*
X140520000Y-96655000D01*
X139870000Y-96655000D01*
X139370000Y-96655000D01*
X139370000Y-95430000D01*
X139870000Y-95430000D01*
X139870000Y-96155000D01*
X140519999Y-96155000D01*
X140519999Y-96073417D01*
X140513591Y-96002897D01*
X140513590Y-96002892D01*
X140463018Y-95840603D01*
X140375072Y-95695122D01*
X140254877Y-95574927D01*
X140109395Y-95486980D01*
X140109396Y-95486980D01*
X139947105Y-95436409D01*
X139947106Y-95436409D01*
X139876572Y-95430000D01*
X139870000Y-95430000D01*
X139370000Y-95430000D01*
X139369999Y-95429999D01*
X139363436Y-95430000D01*
X139363417Y-95430001D01*
X139292897Y-95436408D01*
X139292892Y-95436409D01*
X139130603Y-95486981D01*
X138985122Y-95574927D01*
X138864927Y-95695122D01*
X138783491Y-95829834D01*
X138731963Y-95877022D01*
X138663103Y-95888860D01*
X138598775Y-95861591D01*
X138578108Y-95839995D01*
X138527547Y-95772455D01*
X138527544Y-95772452D01*
X138412335Y-95686206D01*
X138412328Y-95686202D01*
X138277486Y-95635910D01*
X138277485Y-95635909D01*
X138277483Y-95635909D01*
X138217873Y-95629500D01*
X138217863Y-95629500D01*
X137722129Y-95629500D01*
X137722123Y-95629501D01*
X137662516Y-95635908D01*
X137527671Y-95686202D01*
X137527664Y-95686206D01*
X137412455Y-95772452D01*
X137412452Y-95772455D01*
X137326206Y-95887664D01*
X137326202Y-95887671D01*
X137275986Y-96022310D01*
X137275909Y-96022517D01*
X137269500Y-96082127D01*
X137269500Y-96082134D01*
X137269500Y-96082135D01*
X137269500Y-96727870D01*
X137269501Y-96727876D01*
X137275908Y-96787483D01*
X137326202Y-96922328D01*
X137326203Y-96922330D01*
X137417267Y-97043975D01*
X137441684Y-97109439D01*
X137442000Y-97118286D01*
X137442000Y-97479187D01*
X137422315Y-97546226D01*
X137369511Y-97591981D01*
X137301816Y-97602126D01*
X137242503Y-97594318D01*
X137242499Y-97594318D01*
X137085739Y-97614955D01*
X137085737Y-97614956D01*
X136989090Y-97654989D01*
X136919620Y-97662458D01*
X136868004Y-97640198D01*
X136817886Y-97603209D01*
X136817880Y-97603206D01*
X136689700Y-97558353D01*
X136659270Y-97555500D01*
X136659266Y-97555500D01*
X135375734Y-97555500D01*
X135375730Y-97555500D01*
X135345300Y-97558353D01*
X135345298Y-97558353D01*
X135217119Y-97603206D01*
X135217117Y-97603207D01*
X135107850Y-97683850D01*
X135064466Y-97742634D01*
X135027207Y-97793118D01*
X135008543Y-97846456D01*
X134967823Y-97903230D01*
X134902871Y-97928978D01*
X134891503Y-97929500D01*
X134199751Y-97929500D01*
X134132712Y-97909815D01*
X134100485Y-97879812D01*
X134066564Y-97834500D01*
X134057546Y-97822454D01*
X134049241Y-97816237D01*
X133942335Y-97736206D01*
X133942328Y-97736202D01*
X133807486Y-97685910D01*
X133807485Y-97685909D01*
X133807483Y-97685909D01*
X133747873Y-97679500D01*
X133747863Y-97679500D01*
X133102129Y-97679500D01*
X133102123Y-97679501D01*
X133042516Y-97685908D01*
X132907671Y-97736202D01*
X132907664Y-97736206D01*
X132792456Y-97822452D01*
X132792455Y-97822453D01*
X132792454Y-97822454D01*
X132712087Y-97929811D01*
X132656153Y-97971682D01*
X132612820Y-97979500D01*
X132455097Y-97979500D01*
X132388058Y-97959815D01*
X132356293Y-97930426D01*
X132344626Y-97915041D01*
X132280078Y-97829922D01*
X132179573Y-97753706D01*
X132138051Y-97697514D01*
X132130500Y-97654903D01*
X132130500Y-97379749D01*
X132150185Y-97312710D01*
X132180190Y-97280482D01*
X132237546Y-97237546D01*
X132323796Y-97122331D01*
X132374091Y-96987483D01*
X132380500Y-96927873D01*
X132380499Y-96282128D01*
X132374091Y-96222517D01*
X132365665Y-96199927D01*
X132323797Y-96087671D01*
X132323793Y-96087664D01*
X132237547Y-95972455D01*
X132237544Y-95972452D01*
X132122335Y-95886206D01*
X132122328Y-95886202D01*
X131987486Y-95835910D01*
X131987485Y-95835909D01*
X131987483Y-95835909D01*
X131927873Y-95829500D01*
X131927863Y-95829500D01*
X131432129Y-95829500D01*
X131432123Y-95829501D01*
X131372516Y-95835908D01*
X131237671Y-95886202D01*
X131237664Y-95886206D01*
X131122455Y-95972452D01*
X131122452Y-95972455D01*
X131036206Y-96087664D01*
X131036202Y-96087671D01*
X130985910Y-96222513D01*
X130985909Y-96222517D01*
X130979500Y-96282127D01*
X130979500Y-96282134D01*
X130979500Y-96282135D01*
X130979500Y-96927870D01*
X130979501Y-96927876D01*
X130985908Y-96987483D01*
X131036202Y-97122328D01*
X131036203Y-97122329D01*
X131036204Y-97122331D01*
X131122452Y-97237543D01*
X131122455Y-97237547D01*
X131179810Y-97280482D01*
X131221682Y-97336415D01*
X131229500Y-97379749D01*
X131229500Y-97624928D01*
X131209815Y-97691967D01*
X131157011Y-97737722D01*
X131150996Y-97740280D01*
X131145028Y-97742633D01*
X131145026Y-97742634D01*
X131029921Y-97829921D01*
X130942636Y-97945023D01*
X130889640Y-98079411D01*
X130884065Y-98125841D01*
X130879500Y-98163856D01*
X130879500Y-98696144D01*
X130881272Y-98710897D01*
X130889640Y-98780588D01*
X130942636Y-98914976D01*
X131029920Y-99030076D01*
X131029922Y-99030078D01*
X131096412Y-99080499D01*
X131130298Y-99106196D01*
X131171821Y-99162389D01*
X131176372Y-99232110D01*
X131142507Y-99293224D01*
X131130298Y-99303804D01*
X131029920Y-99379923D01*
X130942636Y-99495023D01*
X130889640Y-99629411D01*
X130884065Y-99675841D01*
X130879500Y-99713856D01*
X130879500Y-100246144D01*
X130884825Y-100290494D01*
X130889640Y-100330588D01*
X130942636Y-100464976D01*
X131029921Y-100580078D01*
X131145023Y-100667363D01*
X131145024Y-100667363D01*
X131145025Y-100667364D01*
X131279410Y-100720359D01*
X131363856Y-100730500D01*
X131363862Y-100730500D01*
X131946138Y-100730500D01*
X131946144Y-100730500D01*
X132030590Y-100720359D01*
X132164975Y-100667364D01*
X132280078Y-100580078D01*
X132356293Y-100479573D01*
X132412486Y-100438051D01*
X132455097Y-100430500D01*
X132612820Y-100430500D01*
X132679859Y-100450185D01*
X132712085Y-100480187D01*
X132792454Y-100587546D01*
X132835386Y-100619685D01*
X132907664Y-100673793D01*
X132907671Y-100673797D01*
X132952618Y-100690561D01*
X133042517Y-100724091D01*
X133102127Y-100730500D01*
X133747872Y-100730499D01*
X133807483Y-100724091D01*
X133942331Y-100673796D01*
X134057546Y-100587546D01*
X134098783Y-100532461D01*
X134100485Y-100530188D01*
X134156419Y-100488318D01*
X134199751Y-100480500D01*
X135010085Y-100480500D01*
X135077124Y-100500185D01*
X135100634Y-100522223D01*
X135101279Y-100521579D01*
X135107848Y-100528148D01*
X135107849Y-100528148D01*
X135107850Y-100528150D01*
X135217118Y-100608793D01*
X135248246Y-100619685D01*
X135345299Y-100653646D01*
X135375730Y-100656500D01*
X135375734Y-100656500D01*
X136659270Y-100656500D01*
X136689699Y-100653646D01*
X136689701Y-100653646D01*
X136753790Y-100631219D01*
X136817882Y-100608793D01*
X136927150Y-100528150D01*
X136928834Y-100525867D01*
X136931318Y-100523981D01*
X136933721Y-100521579D01*
X136934049Y-100521907D01*
X136984481Y-100483616D01*
X137028605Y-100475500D01*
X140641000Y-100475500D01*
X140708039Y-100495185D01*
X140753794Y-100547989D01*
X140765000Y-100599500D01*
X140765000Y-100600000D01*
X141791000Y-100600000D01*
X141858039Y-100619685D01*
X141903794Y-100672489D01*
X141915000Y-100724000D01*
X141915000Y-101824999D01*
X141921581Y-101824999D01*
X141992102Y-101818591D01*
X141992107Y-101818590D01*
X142154396Y-101768018D01*
X142299877Y-101680072D01*
X142420071Y-101559878D01*
X142420074Y-101559874D01*
X142501508Y-101425166D01*
X142553035Y-101377978D01*
X142621895Y-101366139D01*
X142686224Y-101393407D01*
X142706892Y-101415004D01*
X142757452Y-101482543D01*
X142757455Y-101482547D01*
X142814810Y-101525482D01*
X142856682Y-101581415D01*
X142864500Y-101624749D01*
X142864500Y-102161811D01*
X142875494Y-102202838D01*
X142875494Y-102202840D01*
X142875495Y-102202840D01*
X142875495Y-102202841D01*
X142895201Y-102276387D01*
X142954511Y-102379114D01*
X142954513Y-102379116D01*
X143438181Y-102862784D01*
X143471666Y-102924107D01*
X143474500Y-102950465D01*
X143474500Y-103296902D01*
X143484520Y-103380343D01*
X143484520Y-103380344D01*
X143536886Y-103513134D01*
X143623132Y-103626867D01*
X143729524Y-103707546D01*
X143736868Y-103713115D01*
X143749550Y-103718116D01*
X143804695Y-103761021D01*
X143827889Y-103826928D01*
X143811769Y-103894913D01*
X143791743Y-103921152D01*
X142494513Y-105218383D01*
X142494509Y-105218389D01*
X142435201Y-105321112D01*
X142435200Y-105321117D01*
X142404500Y-105435691D01*
X142404500Y-105493011D01*
X142384815Y-105560050D01*
X142332011Y-105605805D01*
X142264315Y-105615950D01*
X142100001Y-105594318D01*
X142099999Y-105594318D01*
X141943239Y-105614955D01*
X141943234Y-105614957D01*
X141796441Y-105675760D01*
X141726972Y-105683229D01*
X141664493Y-105651953D01*
X141649723Y-105635511D01*
X141588488Y-105553713D01*
X141587546Y-105552454D01*
X141587544Y-105552453D01*
X141587544Y-105552452D01*
X141472335Y-105466206D01*
X141472328Y-105466202D01*
X141337486Y-105415910D01*
X141337485Y-105415909D01*
X141337483Y-105415909D01*
X141277873Y-105409500D01*
X141277863Y-105409500D01*
X140782129Y-105409500D01*
X140782123Y-105409501D01*
X140722516Y-105415908D01*
X140587671Y-105466202D01*
X140587664Y-105466206D01*
X140472455Y-105552452D01*
X140472452Y-105552455D01*
X140386206Y-105667664D01*
X140386202Y-105667671D01*
X140335910Y-105802513D01*
X140335909Y-105802517D01*
X140329500Y-105862127D01*
X140329500Y-105862134D01*
X140329500Y-105862135D01*
X140329500Y-106507870D01*
X140329501Y-106507876D01*
X140335908Y-106567483D01*
X140386202Y-106702328D01*
X140386206Y-106702335D01*
X140472452Y-106817544D01*
X140472454Y-106817546D01*
X140587664Y-106903793D01*
X140587671Y-106903797D01*
X140614724Y-106913887D01*
X140722517Y-106954091D01*
X140782127Y-106960500D01*
X141277872Y-106960499D01*
X141337483Y-106954091D01*
X141472331Y-106903796D01*
X141587546Y-106817546D01*
X141633464Y-106756207D01*
X141689396Y-106714338D01*
X141759088Y-106709354D01*
X141794730Y-106723133D01*
X141797155Y-106724533D01*
X141797159Y-106724536D01*
X141943238Y-106785044D01*
X142021619Y-106795363D01*
X142099999Y-106805682D01*
X142100000Y-106805682D01*
X142100001Y-106805682D01*
X142152254Y-106798802D01*
X142256762Y-106785044D01*
X142402836Y-106724538D01*
X142402837Y-106724538D01*
X142402837Y-106724537D01*
X142402841Y-106724536D01*
X142485482Y-106661123D01*
X142550650Y-106635930D01*
X142560967Y-106635500D01*
X142617035Y-106635500D01*
X142684074Y-106655185D01*
X142704716Y-106671819D01*
X143856142Y-107823246D01*
X143889627Y-107884569D01*
X143887727Y-107944861D01*
X143844244Y-108097687D01*
X143824571Y-108309999D01*
X143824571Y-108310000D01*
X143844244Y-108522310D01*
X143902596Y-108727392D01*
X143902596Y-108727394D01*
X143997632Y-108918253D01*
X144102987Y-109057764D01*
X144126128Y-109088407D01*
X144283698Y-109232052D01*
X144464981Y-109344298D01*
X144663802Y-109421321D01*
X144873390Y-109460500D01*
X144873392Y-109460500D01*
X145086608Y-109460500D01*
X145086610Y-109460500D01*
X145296198Y-109421321D01*
X145495019Y-109344298D01*
X145676302Y-109232052D01*
X145833872Y-109088407D01*
X145962366Y-108918255D01*
X146024293Y-108793888D01*
X146057403Y-108727394D01*
X146057403Y-108727393D01*
X146057405Y-108727389D01*
X146115756Y-108522310D01*
X146135429Y-108310000D01*
X146115756Y-108097690D01*
X146057405Y-107892611D01*
X146057403Y-107892606D01*
X146057403Y-107892605D01*
X145962367Y-107701746D01*
X145833872Y-107531593D01*
X145676302Y-107387948D01*
X145676299Y-107387946D01*
X145676298Y-107387945D01*
X145614089Y-107349427D01*
X145567453Y-107297399D01*
X145556349Y-107228418D01*
X145584302Y-107164383D01*
X145642437Y-107125627D01*
X145679366Y-107120000D01*
X145877828Y-107120000D01*
X145877844Y-107119999D01*
X145937372Y-107113598D01*
X145937379Y-107113596D01*
X146072086Y-107063354D01*
X146072093Y-107063350D01*
X146187187Y-106977190D01*
X146187190Y-106977187D01*
X146273350Y-106862093D01*
X146273354Y-106862086D01*
X146323596Y-106727379D01*
X146323598Y-106727372D01*
X146329999Y-106667844D01*
X146330000Y-106667827D01*
X146330000Y-106020000D01*
X145413012Y-106020000D01*
X145445925Y-105962993D01*
X145480000Y-105835826D01*
X145480000Y-105704174D01*
X145445925Y-105577007D01*
X145413012Y-105520000D01*
X146330000Y-105520000D01*
X146330000Y-104872172D01*
X146329999Y-104872155D01*
X146323598Y-104812627D01*
X146323596Y-104812620D01*
X146273354Y-104677913D01*
X146273350Y-104677906D01*
X146187190Y-104562812D01*
X146187187Y-104562809D01*
X146072093Y-104476649D01*
X146072086Y-104476645D01*
X145937379Y-104426403D01*
X145937372Y-104426401D01*
X145877844Y-104420000D01*
X145616465Y-104420000D01*
X145549426Y-104400315D01*
X145503671Y-104347511D01*
X145493727Y-104278353D01*
X145522752Y-104214797D01*
X145528784Y-104208319D01*
X145925284Y-103811819D01*
X145986607Y-103778334D01*
X146012965Y-103775500D01*
X146046902Y-103775500D01*
X146130346Y-103765479D01*
X146263132Y-103713115D01*
X146376867Y-103626867D01*
X146463115Y-103513132D01*
X146515479Y-103380346D01*
X146525500Y-103296902D01*
X146525500Y-102703098D01*
X146515479Y-102619654D01*
X146463115Y-102486868D01*
X146450324Y-102470000D01*
X146376867Y-102373132D01*
X146263134Y-102286886D01*
X146263132Y-102286885D01*
X146130346Y-102234521D01*
X146130345Y-102234520D01*
X146130343Y-102234520D01*
X146046902Y-102224500D01*
X145528098Y-102224500D01*
X145444656Y-102234520D01*
X145444655Y-102234520D01*
X145311865Y-102286886D01*
X145198132Y-102373132D01*
X145111884Y-102486868D01*
X145108086Y-102493624D01*
X145058072Y-102542412D01*
X144989620Y-102556416D01*
X144924463Y-102531188D01*
X144891914Y-102493624D01*
X144888115Y-102486868D01*
X144801867Y-102373132D01*
X144688134Y-102286886D01*
X144688132Y-102286885D01*
X144555346Y-102234521D01*
X144555345Y-102234520D01*
X144555343Y-102234520D01*
X144471902Y-102224500D01*
X144125465Y-102224500D01*
X144058426Y-102204815D01*
X144037784Y-102188181D01*
X143801819Y-101952215D01*
X143768334Y-101890892D01*
X143765500Y-101864534D01*
X143765500Y-101624749D01*
X143785185Y-101557710D01*
X143815190Y-101525482D01*
X143872546Y-101482546D01*
X143958796Y-101367331D01*
X144009091Y-101232483D01*
X144015500Y-101172873D01*
X144015499Y-100599499D01*
X144035183Y-100532461D01*
X144087987Y-100486706D01*
X144139499Y-100475500D01*
X144431807Y-100475500D01*
X144431809Y-100475500D01*
X144527726Y-100449799D01*
X144546387Y-100444799D01*
X144649114Y-100385489D01*
X145612784Y-99421819D01*
X145674107Y-99388334D01*
X145700465Y-99385500D01*
X146046902Y-99385500D01*
X146130346Y-99375479D01*
X146263132Y-99323115D01*
X146376867Y-99236867D01*
X146463115Y-99123132D01*
X146515479Y-98990346D01*
X146525500Y-98906902D01*
X146525500Y-98313098D01*
X146515479Y-98229654D01*
X146463115Y-98096868D01*
X146449877Y-98079411D01*
X146376867Y-97983132D01*
X146287075Y-97915041D01*
X146245551Y-97858848D01*
X146238000Y-97816237D01*
X146238000Y-96558193D01*
X146238000Y-96558191D01*
X146207299Y-96443614D01*
X146192658Y-96418255D01*
X146182231Y-96400194D01*
X146147993Y-96340892D01*
X146147987Y-96340884D01*
X146103856Y-96296753D01*
X146070371Y-96235430D01*
X146072270Y-96175141D01*
X146115756Y-96022310D01*
X146135429Y-95810000D01*
X146115756Y-95597690D01*
X146057405Y-95392611D01*
X146057403Y-95392606D01*
X146057403Y-95392605D01*
X145962367Y-95201746D01*
X145833872Y-95031593D01*
X145676302Y-94887948D01*
X145676299Y-94887946D01*
X145676298Y-94887945D01*
X145614089Y-94849427D01*
X145567453Y-94797399D01*
X145556349Y-94728418D01*
X145584302Y-94664383D01*
X145642437Y-94625627D01*
X145679366Y-94620000D01*
X145877828Y-94620000D01*
X145877844Y-94619999D01*
X145937372Y-94613598D01*
X145937379Y-94613596D01*
X146072086Y-94563354D01*
X146072093Y-94563350D01*
X146187187Y-94477190D01*
X146187190Y-94477187D01*
X146273350Y-94362093D01*
X146273354Y-94362086D01*
X146323596Y-94227379D01*
X146323598Y-94227372D01*
X146329999Y-94167844D01*
X146330000Y-94167827D01*
X146330000Y-93520000D01*
X145413012Y-93520000D01*
X145445925Y-93462993D01*
X145480000Y-93335826D01*
X145480000Y-93204174D01*
X145445925Y-93077007D01*
X145413012Y-93020000D01*
X146330000Y-93020000D01*
X146330000Y-92372172D01*
X146329999Y-92372155D01*
X146323598Y-92312627D01*
X146323596Y-92312620D01*
X146273354Y-92177913D01*
X146273350Y-92177906D01*
X146187190Y-92062813D01*
X146128353Y-92018767D01*
X146086482Y-91962833D01*
X146081498Y-91893141D01*
X146114983Y-91831818D01*
X146176307Y-91798334D01*
X146202664Y-91795500D01*
X148430500Y-91795500D01*
X148497539Y-91815185D01*
X148543294Y-91867989D01*
X148554500Y-91919500D01*
X148554500Y-109670500D01*
X148534815Y-109737539D01*
X148482011Y-109783294D01*
X148430500Y-109794500D01*
X139141965Y-109794500D01*
X139074926Y-109774815D01*
X139029171Y-109722011D01*
X139019227Y-109652853D01*
X139048252Y-109589297D01*
X139054284Y-109582819D01*
X139292806Y-109344297D01*
X139740489Y-108896614D01*
X139799799Y-108793887D01*
X139816971Y-108729799D01*
X139830500Y-108679309D01*
X139830500Y-106959749D01*
X139850185Y-106892710D01*
X139880190Y-106860482D01*
X139937546Y-106817546D01*
X140023796Y-106702331D01*
X140074091Y-106567483D01*
X140080500Y-106507873D01*
X140080499Y-105862128D01*
X140074091Y-105802517D01*
X140048722Y-105734500D01*
X140023797Y-105667671D01*
X140023793Y-105667664D01*
X139937547Y-105552455D01*
X139937544Y-105552452D01*
X139822335Y-105466206D01*
X139822328Y-105466202D01*
X139806186Y-105460182D01*
X139750253Y-105418311D01*
X139725835Y-105352847D01*
X139740686Y-105284574D01*
X139790091Y-105235168D01*
X139849519Y-105220000D01*
X139902634Y-105220000D01*
X139902649Y-105219999D01*
X139939489Y-105217100D01*
X139939495Y-105217099D01*
X140097193Y-105171283D01*
X140097196Y-105171282D01*
X140238552Y-105087685D01*
X140238561Y-105087678D01*
X140354678Y-104971561D01*
X140354685Y-104971552D01*
X140438282Y-104830196D01*
X140438283Y-104830193D01*
X140484099Y-104672495D01*
X140484100Y-104672489D01*
X140486999Y-104635649D01*
X140487000Y-104635634D01*
X140487000Y-104232500D01*
X138887000Y-104232500D01*
X138887000Y-104635649D01*
X138889899Y-104672489D01*
X138889900Y-104672495D01*
X138935716Y-104830193D01*
X138935717Y-104830196D01*
X138969300Y-104886982D01*
X138986483Y-104954706D01*
X138964323Y-105020969D01*
X138909857Y-105064732D01*
X138840377Y-105072101D01*
X138777942Y-105040737D01*
X138774887Y-105037784D01*
X138423819Y-104686716D01*
X138390334Y-104625393D01*
X138387500Y-104599035D01*
X138387500Y-103340730D01*
X138384646Y-103310301D01*
X138383845Y-103308011D01*
X138383753Y-103306210D01*
X138383036Y-103302927D01*
X138383579Y-103302808D01*
X138380284Y-103238232D01*
X138415013Y-103177605D01*
X138477007Y-103145378D01*
X138512464Y-103143599D01*
X138532734Y-103145500D01*
X138768051Y-103145500D01*
X138835090Y-103165185D01*
X138880845Y-103217989D01*
X138890789Y-103287147D01*
X138890033Y-103291780D01*
X138889899Y-103292508D01*
X138887000Y-103329350D01*
X138887000Y-103732500D01*
X139437000Y-103732500D01*
X139437000Y-102747703D01*
X139937000Y-102747703D01*
X139937000Y-103732500D01*
X140487000Y-103732500D01*
X140487000Y-103329365D01*
X140486999Y-103329350D01*
X140484100Y-103292510D01*
X140484099Y-103292504D01*
X140438283Y-103134806D01*
X140438282Y-103134803D01*
X140354685Y-102993447D01*
X140354678Y-102993438D01*
X140238561Y-102877321D01*
X140238552Y-102877314D01*
X140097196Y-102793717D01*
X140097193Y-102793716D01*
X139939494Y-102747900D01*
X139939497Y-102747900D01*
X139937000Y-102747703D01*
X139437000Y-102747703D01*
X139423144Y-102734900D01*
X139402890Y-102730653D01*
X139353116Y-102681619D01*
X139337500Y-102621378D01*
X139337500Y-101465730D01*
X139334646Y-101435300D01*
X139334646Y-101435298D01*
X139293051Y-101316429D01*
X139289793Y-101307118D01*
X139209150Y-101197850D01*
X139099882Y-101117207D01*
X139099880Y-101117206D01*
X139050709Y-101100000D01*
X140765001Y-101100000D01*
X140765001Y-101181582D01*
X140771408Y-101252102D01*
X140771409Y-101252107D01*
X140821981Y-101414396D01*
X140909927Y-101559877D01*
X141030122Y-101680072D01*
X141175604Y-101768019D01*
X141175603Y-101768019D01*
X141337894Y-101818590D01*
X141337893Y-101818590D01*
X141408408Y-101824998D01*
X141408426Y-101824999D01*
X141414999Y-101824998D01*
X141415000Y-101824998D01*
X141415000Y-101100000D01*
X140765001Y-101100000D01*
X139050709Y-101100000D01*
X138971700Y-101072353D01*
X138941270Y-101069500D01*
X138941266Y-101069500D01*
X138532734Y-101069500D01*
X138532730Y-101069500D01*
X138502300Y-101072353D01*
X138502298Y-101072353D01*
X138374119Y-101117206D01*
X138374117Y-101117207D01*
X138264850Y-101197850D01*
X138207540Y-101275502D01*
X138151892Y-101317753D01*
X138082236Y-101323211D01*
X138060324Y-101316431D01*
X138056762Y-101314956D01*
X138056759Y-101314955D01*
X138056760Y-101314955D01*
X137900001Y-101294318D01*
X137899999Y-101294318D01*
X137743239Y-101314955D01*
X137743237Y-101314956D01*
X137597160Y-101375463D01*
X137471718Y-101471718D01*
X137375463Y-101597160D01*
X137314956Y-101743237D01*
X137314956Y-101743238D01*
X137293690Y-101904768D01*
X137265423Y-101968664D01*
X137207099Y-102007135D01*
X137137234Y-102007966D01*
X137083070Y-101976263D01*
X136346320Y-101239513D01*
X136346318Y-101239511D01*
X136274160Y-101197850D01*
X136243589Y-101180199D01*
X136211932Y-101171718D01*
X136170472Y-101160609D01*
X136129013Y-101149500D01*
X136129012Y-101149500D01*
X134241419Y-101149500D01*
X134174380Y-101129815D01*
X134165933Y-101123876D01*
X134102842Y-101075464D01*
X133956762Y-101014956D01*
X133956760Y-101014955D01*
X133800001Y-100994318D01*
X133799999Y-100994318D01*
X133643239Y-101014955D01*
X133643237Y-101014956D01*
X133497160Y-101075463D01*
X133371718Y-101171718D01*
X133275463Y-101297160D01*
X133214956Y-101443237D01*
X133214955Y-101443239D01*
X133194318Y-101599998D01*
X133194318Y-101600001D01*
X133214955Y-101756760D01*
X133214956Y-101756762D01*
X133270514Y-101890892D01*
X133275464Y-101902841D01*
X133371718Y-102028282D01*
X133497159Y-102124536D01*
X133643238Y-102185044D01*
X133697191Y-102192147D01*
X133799999Y-102205682D01*
X133800000Y-102205682D01*
X133800001Y-102205682D01*
X133852254Y-102198802D01*
X133956762Y-102185044D01*
X134102841Y-102124536D01*
X134165933Y-102076123D01*
X134231102Y-102050930D01*
X134241419Y-102050500D01*
X134426805Y-102050500D01*
X134493844Y-102070185D01*
X134539599Y-102122989D01*
X134549543Y-102192147D01*
X134544511Y-102213504D01*
X134500144Y-102347393D01*
X134490000Y-102446677D01*
X134490000Y-102470000D01*
X135591000Y-102470000D01*
X135658039Y-102489685D01*
X135703794Y-102542489D01*
X135715000Y-102594000D01*
X135715000Y-102846000D01*
X135695315Y-102913039D01*
X135642511Y-102958794D01*
X135591000Y-102970000D01*
X134490001Y-102970000D01*
X134490001Y-102993322D01*
X134500144Y-103092607D01*
X134553452Y-103253481D01*
X134553457Y-103253492D01*
X134642424Y-103397728D01*
X134642427Y-103397732D01*
X134762268Y-103517573D01*
X134777684Y-103527082D01*
X134824408Y-103579031D01*
X134835629Y-103647994D01*
X134811390Y-103707545D01*
X134752636Y-103785023D01*
X134699640Y-103919411D01*
X134694065Y-103965841D01*
X134689500Y-104003856D01*
X134689500Y-104536144D01*
X134692424Y-104560489D01*
X134699640Y-104620588D01*
X134752636Y-104754976D01*
X134839921Y-104870078D01*
X134875338Y-104896935D01*
X134916861Y-104953127D01*
X134921413Y-105022848D01*
X134914978Y-105043181D01*
X134914957Y-105043229D01*
X134914956Y-105043234D01*
X134894318Y-105199998D01*
X134894318Y-105200001D01*
X134914955Y-105356760D01*
X134914957Y-105356765D01*
X134975461Y-105502836D01*
X134975465Y-105502842D01*
X134988874Y-105520317D01*
X135014070Y-105585485D01*
X135014500Y-105595805D01*
X135014500Y-106799309D01*
X135019387Y-106817546D01*
X135045201Y-106913887D01*
X135104511Y-107016614D01*
X135104513Y-107016616D01*
X135848181Y-107760284D01*
X135881666Y-107821607D01*
X135884500Y-107847965D01*
X135884501Y-108925500D01*
X135864817Y-108992539D01*
X135812013Y-109038294D01*
X135760501Y-109049500D01*
X134112965Y-109049500D01*
X134045926Y-109029815D01*
X134025284Y-109013181D01*
X133321818Y-108309715D01*
X133288333Y-108248392D01*
X133285499Y-108222034D01*
X133285499Y-107140143D01*
X133285499Y-107140136D01*
X133285497Y-107140117D01*
X133282586Y-107115012D01*
X133282585Y-107115010D01*
X133282585Y-107115009D01*
X133237206Y-107012235D01*
X133157765Y-106932794D01*
X133092084Y-106903793D01*
X133054992Y-106887415D01*
X133029865Y-106884500D01*
X131790143Y-106884500D01*
X131790117Y-106884502D01*
X131765012Y-106887413D01*
X131765008Y-106887415D01*
X131662235Y-106932793D01*
X131582794Y-107012234D01*
X131537415Y-107115006D01*
X131537415Y-107115008D01*
X131534500Y-107140131D01*
X131534500Y-108929856D01*
X131534502Y-108929882D01*
X131537413Y-108954987D01*
X131537415Y-108954991D01*
X131582793Y-109057764D01*
X131582794Y-109057765D01*
X131662235Y-109137206D01*
X131765009Y-109182585D01*
X131790135Y-109185500D01*
X132872034Y-109185499D01*
X132939073Y-109205184D01*
X132959715Y-109221818D01*
X133320716Y-109582819D01*
X133354201Y-109644142D01*
X133349217Y-109713834D01*
X133307345Y-109769767D01*
X133241881Y-109794184D01*
X133233035Y-109794500D01*
X130679500Y-109794500D01*
X130612461Y-109774815D01*
X130566706Y-109722011D01*
X130555500Y-109670500D01*
X130555500Y-94264856D01*
X131927000Y-94264856D01*
X131927002Y-94264882D01*
X131929913Y-94289987D01*
X131929915Y-94289991D01*
X131975293Y-94392764D01*
X131975294Y-94392765D01*
X132054735Y-94472206D01*
X132157509Y-94517585D01*
X132182635Y-94520500D01*
X133972364Y-94520499D01*
X133972379Y-94520497D01*
X133972382Y-94520497D01*
X133997487Y-94517586D01*
X133997488Y-94517585D01*
X133997491Y-94517585D01*
X134100265Y-94472206D01*
X134179706Y-94392765D01*
X134225085Y-94289991D01*
X134228000Y-94264865D01*
X134227999Y-93526046D01*
X134247683Y-93459009D01*
X134300487Y-93413254D01*
X134369646Y-93403310D01*
X134433202Y-93432335D01*
X134470976Y-93491113D01*
X134475470Y-93514606D01*
X134481744Y-93582310D01*
X134540096Y-93787392D01*
X134540096Y-93787394D01*
X134635132Y-93978253D01*
X134763629Y-94148408D01*
X134869506Y-94244928D01*
X134905788Y-94304639D01*
X134904027Y-94374487D01*
X134873649Y-94424246D01*
X133504714Y-95793181D01*
X133443391Y-95826666D01*
X133417033Y-95829500D01*
X133082130Y-95829500D01*
X133082123Y-95829501D01*
X133022516Y-95835908D01*
X132887671Y-95886202D01*
X132887664Y-95886206D01*
X132772455Y-95972452D01*
X132772452Y-95972455D01*
X132686206Y-96087664D01*
X132686202Y-96087671D01*
X132635910Y-96222513D01*
X132635909Y-96222517D01*
X132629500Y-96282127D01*
X132629500Y-96282134D01*
X132629500Y-96282135D01*
X132629500Y-96927870D01*
X132629501Y-96927876D01*
X132635908Y-96987483D01*
X132686202Y-97122328D01*
X132686206Y-97122335D01*
X132772452Y-97237544D01*
X132772455Y-97237547D01*
X132887664Y-97323793D01*
X132887671Y-97323797D01*
X132921502Y-97336415D01*
X133022517Y-97374091D01*
X133082127Y-97380500D01*
X133577872Y-97380499D01*
X133637483Y-97374091D01*
X133772331Y-97323796D01*
X133887546Y-97237546D01*
X133973796Y-97122331D01*
X134024091Y-96987483D01*
X134030500Y-96927873D01*
X134030499Y-96592963D01*
X134050183Y-96525925D01*
X134066813Y-96505288D01*
X135977990Y-94594113D01*
X136037299Y-94491386D01*
X136037299Y-94491384D01*
X136040410Y-94483876D01*
X136042889Y-94484902D01*
X136072360Y-94436527D01*
X136111000Y-94412634D01*
X136132519Y-94404298D01*
X136313802Y-94292052D01*
X136471372Y-94148407D01*
X136599866Y-93978255D01*
X136694905Y-93787389D01*
X136753256Y-93582310D01*
X136772929Y-93370000D01*
X136753256Y-93157690D01*
X136694905Y-92952611D01*
X136694903Y-92952606D01*
X136694903Y-92952605D01*
X136599867Y-92761746D01*
X136471372Y-92591593D01*
X136343633Y-92475143D01*
X136313802Y-92447948D01*
X136132519Y-92335702D01*
X136132517Y-92335701D01*
X136033108Y-92297190D01*
X135933698Y-92258679D01*
X135724110Y-92219500D01*
X135510890Y-92219500D01*
X135301302Y-92258679D01*
X135301299Y-92258679D01*
X135301299Y-92258680D01*
X135102482Y-92335701D01*
X135102480Y-92335702D01*
X134921199Y-92447947D01*
X134763627Y-92591593D01*
X134635132Y-92761746D01*
X134540096Y-92952605D01*
X134540096Y-92952607D01*
X134481744Y-93157689D01*
X134475470Y-93225394D01*
X134449683Y-93290331D01*
X134392883Y-93331018D01*
X134323102Y-93334538D01*
X134262495Y-93299772D01*
X134230306Y-93237759D01*
X134227999Y-93213952D01*
X134227999Y-92475143D01*
X134227999Y-92475136D01*
X134227997Y-92475117D01*
X134225086Y-92450012D01*
X134225085Y-92450010D01*
X134225085Y-92450009D01*
X134179706Y-92347235D01*
X134100265Y-92267794D01*
X134079624Y-92258680D01*
X133997492Y-92222415D01*
X133972365Y-92219500D01*
X132182643Y-92219500D01*
X132182617Y-92219502D01*
X132157512Y-92222413D01*
X132157508Y-92222415D01*
X132054735Y-92267793D01*
X131975294Y-92347234D01*
X131929915Y-92450006D01*
X131929915Y-92450008D01*
X131927000Y-92475131D01*
X131927000Y-94264856D01*
X130555500Y-94264856D01*
X130555500Y-91919500D01*
X130575185Y-91852461D01*
X130627989Y-91806706D01*
X130679500Y-91795500D01*
X143757336Y-91795500D01*
X143824375Y-91815185D01*
G37*
%TD.AperFunction*%
%TA.AperFunction,Conductor*%
G36*
X136645201Y-102813046D02*
G01*
X136651680Y-102819079D01*
X137150181Y-103317580D01*
X137183666Y-103378903D01*
X137186500Y-103405261D01*
X137186500Y-104624269D01*
X137189353Y-104654699D01*
X137189353Y-104654701D01*
X137224442Y-104754976D01*
X137234207Y-104782882D01*
X137314850Y-104892150D01*
X137424118Y-104972793D01*
X137424120Y-104972793D01*
X137432132Y-104977028D01*
X137461877Y-104998980D01*
X138643181Y-106180284D01*
X138676666Y-106241607D01*
X138679500Y-106267964D01*
X138679500Y-106507869D01*
X138679501Y-106507876D01*
X138685908Y-106567483D01*
X138736202Y-106702328D01*
X138736203Y-106702329D01*
X138736204Y-106702331D01*
X138822454Y-106817546D01*
X138863377Y-106848181D01*
X138879810Y-106860482D01*
X138921682Y-106916415D01*
X138929500Y-106959749D01*
X138929500Y-108382035D01*
X138909815Y-108449074D01*
X138893181Y-108469716D01*
X138349716Y-109013181D01*
X138288393Y-109046666D01*
X138262035Y-109049500D01*
X137759500Y-109049500D01*
X137692461Y-109029815D01*
X137646706Y-108977011D01*
X137635500Y-108925500D01*
X137635499Y-107140143D01*
X137635499Y-107140136D01*
X137635497Y-107140117D01*
X137632586Y-107115012D01*
X137632585Y-107115010D01*
X137632585Y-107115009D01*
X137587206Y-107012235D01*
X137507765Y-106932794D01*
X137442084Y-106903793D01*
X137404992Y-106887415D01*
X137379868Y-106884500D01*
X137379865Y-106884500D01*
X136297966Y-106884500D01*
X136230927Y-106864815D01*
X136210285Y-106848181D01*
X135951819Y-106589715D01*
X135918334Y-106528392D01*
X135915500Y-106502034D01*
X135915500Y-105687031D01*
X135935185Y-105619992D01*
X135941125Y-105611544D01*
X135967627Y-105577007D01*
X136024536Y-105502841D01*
X136085044Y-105356762D01*
X136103261Y-105218389D01*
X136105682Y-105200001D01*
X136105682Y-105199998D01*
X136095363Y-105121619D01*
X136085044Y-105043238D01*
X136067506Y-105000899D01*
X136060038Y-104931434D01*
X136086702Y-104878163D01*
X136084953Y-104876837D01*
X136177363Y-104754976D01*
X136177362Y-104754976D01*
X136177364Y-104754975D01*
X136230359Y-104620590D01*
X136240500Y-104536144D01*
X136240500Y-104003856D01*
X136230359Y-103919410D01*
X136177364Y-103785025D01*
X136118608Y-103707544D01*
X136093786Y-103642234D01*
X136108214Y-103573870D01*
X136152317Y-103527081D01*
X136167731Y-103517573D01*
X136287572Y-103397732D01*
X136287575Y-103397728D01*
X136376542Y-103253492D01*
X136376547Y-103253481D01*
X136429855Y-103092606D01*
X136439999Y-102993322D01*
X136439999Y-102906761D01*
X136459683Y-102839722D01*
X136512486Y-102793966D01*
X136581645Y-102784022D01*
X136645201Y-102813046D01*
G37*
%TD.AperFunction*%
%TA.AperFunction,Conductor*%
G36*
X143591884Y-105497731D02*
G01*
X143626535Y-105520000D01*
X144546988Y-105520000D01*
X144514075Y-105577007D01*
X144480000Y-105704174D01*
X144480000Y-105835826D01*
X144514075Y-105962993D01*
X144546988Y-106020000D01*
X143630000Y-106020000D01*
X143630000Y-106023534D01*
X143610315Y-106090573D01*
X143557511Y-106136328D01*
X143488353Y-106146272D01*
X143424797Y-106117247D01*
X143418319Y-106111215D01*
X143341819Y-106034715D01*
X143308334Y-105973392D01*
X143305500Y-105947034D01*
X143305500Y-105732965D01*
X143325185Y-105665926D01*
X143341813Y-105645289D01*
X143460873Y-105526229D01*
X143522192Y-105492747D01*
X143591884Y-105497731D01*
G37*
%TD.AperFunction*%
%TD*%
%TA.AperFunction,NonConductor*%
G36*
X141019750Y-99046107D02*
G01*
X141026276Y-99054107D01*
X141073631Y-99117364D01*
X141107336Y-99162389D01*
X141107455Y-99162547D01*
X141222664Y-99248793D01*
X141222671Y-99248797D01*
X141244027Y-99256762D01*
X141357517Y-99299091D01*
X141417127Y-99305500D01*
X142062872Y-99305499D01*
X142122483Y-99299091D01*
X142257331Y-99248796D01*
X142372546Y-99162546D01*
X142402050Y-99123134D01*
X142415485Y-99105188D01*
X142471419Y-99063318D01*
X142514751Y-99055500D01*
X143426322Y-99055500D01*
X143493361Y-99075185D01*
X143534409Y-99118728D01*
X143536886Y-99123134D01*
X143623132Y-99236867D01*
X143713639Y-99305500D01*
X143736868Y-99323115D01*
X143736871Y-99323116D01*
X143767375Y-99335146D01*
X143822519Y-99378052D01*
X143845712Y-99443960D01*
X143829591Y-99511944D01*
X143779274Y-99560420D01*
X143721885Y-99574500D01*
X140839012Y-99574500D01*
X140771973Y-99554815D01*
X140726218Y-99502011D01*
X140716274Y-99432853D01*
X140724451Y-99403048D01*
X140764857Y-99305498D01*
X140785044Y-99256762D01*
X140804071Y-99112232D01*
X140832337Y-99048337D01*
X140890662Y-99009866D01*
X140960526Y-99009035D01*
X141019750Y-99046107D01*
G37*
%TD.AperFunction*%
%TA.AperFunction,NonConductor*%
G36*
X136822391Y-98784010D02*
G01*
X136854620Y-98846003D01*
X136856401Y-98881462D01*
X136854646Y-98900185D01*
X136854500Y-98901738D01*
X136854500Y-99310261D01*
X136856401Y-99330537D01*
X136843060Y-99399121D01*
X136794758Y-99449605D01*
X136726830Y-99465961D01*
X136691995Y-99459156D01*
X136689704Y-99458354D01*
X136689699Y-99458353D01*
X136659270Y-99455500D01*
X136659266Y-99455500D01*
X135375734Y-99455500D01*
X135375730Y-99455500D01*
X135345300Y-99458353D01*
X135345298Y-99458353D01*
X135217119Y-99503206D01*
X135217113Y-99503209D01*
X135146574Y-99555270D01*
X135080945Y-99579241D01*
X135072941Y-99579500D01*
X134199751Y-99579500D01*
X134132712Y-99559815D01*
X134100485Y-99529812D01*
X134057548Y-99472457D01*
X134057546Y-99472454D01*
X134052774Y-99468882D01*
X133942335Y-99386206D01*
X133942328Y-99386202D01*
X133807486Y-99335910D01*
X133807485Y-99335909D01*
X133807483Y-99335909D01*
X133747873Y-99329500D01*
X133747863Y-99329500D01*
X133102129Y-99329500D01*
X133102123Y-99329501D01*
X133042516Y-99335908D01*
X132907671Y-99386202D01*
X132907664Y-99386206D01*
X132792457Y-99472451D01*
X132792451Y-99472457D01*
X132786948Y-99479809D01*
X132731015Y-99521681D01*
X132687680Y-99529500D01*
X132455097Y-99529500D01*
X132388058Y-99509815D01*
X132356293Y-99480426D01*
X132339555Y-99458354D01*
X132280078Y-99379922D01*
X132280076Y-99379921D01*
X132280076Y-99379920D01*
X132179702Y-99303804D01*
X132138178Y-99247611D01*
X132133627Y-99177890D01*
X132167492Y-99116776D01*
X132179702Y-99106196D01*
X132213588Y-99080499D01*
X132280078Y-99030078D01*
X132356293Y-98929573D01*
X132412486Y-98888051D01*
X132455097Y-98880500D01*
X132687680Y-98880500D01*
X132754719Y-98900185D01*
X132786948Y-98930191D01*
X132792454Y-98937546D01*
X132792457Y-98937548D01*
X132907664Y-99023793D01*
X132907671Y-99023797D01*
X132952618Y-99040561D01*
X133042517Y-99074091D01*
X133102127Y-99080500D01*
X133747872Y-99080499D01*
X133807483Y-99074091D01*
X133942331Y-99023796D01*
X134057546Y-98937546D01*
X134085515Y-98900185D01*
X134100485Y-98880188D01*
X134156419Y-98838318D01*
X134199751Y-98830500D01*
X135852808Y-98830500D01*
X135852809Y-98830500D01*
X135943173Y-98806286D01*
X135967387Y-98799799D01*
X136013608Y-98773113D01*
X136075608Y-98756500D01*
X136659270Y-98756500D01*
X136689699Y-98753646D01*
X136691984Y-98752847D01*
X136693779Y-98752755D01*
X136697073Y-98752036D01*
X136697192Y-98752580D01*
X136761763Y-98749283D01*
X136822391Y-98784010D01*
G37*
%TD.AperFunction*%
M02*
