M48
; DRILL file {KiCad 8.0.1} date 2024-05-12T21:11:51+0530
; FORMAT={-:-/ absolute / metric / decimal}
; #@! TF.CreationDate,2024-05-12T21:11:51+05:30
; #@! TF.GenerationSoftware,Kicad,Pcbnew,8.0.1
; #@! TF.FileFunction,Plated,1,2,PTH
FMAT,2
METRIC
; #@! TA.AperFunction,Plated,PTH,ViaDrill
T1C0.300
; #@! TA.AperFunction,Plated,PTH,ComponentDrill
T2C1.000
%
G90
G05
T1
X132.6Y-105.2
X133.8Y-101.6
X135.5Y-105.2
X136.6Y-96.0
X136.8Y-105.8
X137.243Y-98.2
X137.9Y-101.9
X140.2Y-97.8
X140.2Y-99.1
X141.8Y-92.8
X141.8Y-108.0
X142.0Y-104.6
X142.1Y-106.2
X143.2Y-97.0
X146.8Y-100.8
X147.6Y-98.2
T2
X133.077Y-93.37
X135.618Y-93.37
X144.98Y-93.27
X144.98Y-95.81
X144.98Y-105.77
X144.98Y-108.31
M30
