%TF.GenerationSoftware,KiCad,Pcbnew,8.0.1*%
%TF.CreationDate,2024-05-12T21:11:43+05:30*%
%TF.ProjectId,PBSEQ-D2,50425345-512d-4443-922e-6b696361645f,0.1*%
%TF.SameCoordinates,Original*%
%TF.FileFunction,Legend,Bot*%
%TF.FilePolarity,Positive*%
%FSLAX46Y46*%
G04 Gerber Fmt 4.6, Leading zero omitted, Abs format (unit mm)*
G04 Created by KiCad (PCBNEW 8.0.1) date 2024-05-12 21:11:43*
%MOMM*%
%LPD*%
G01*
G04 APERTURE LIST*
%ADD10C,0.200000*%
%ADD11C,0.000000*%
G04 APERTURE END LIST*
D10*
X145764523Y-100362219D02*
X145764523Y-99362219D01*
X145764523Y-99362219D02*
X145383571Y-99362219D01*
X145383571Y-99362219D02*
X145288333Y-99409838D01*
X145288333Y-99409838D02*
X145240714Y-99457457D01*
X145240714Y-99457457D02*
X145193095Y-99552695D01*
X145193095Y-99552695D02*
X145193095Y-99695552D01*
X145193095Y-99695552D02*
X145240714Y-99790790D01*
X145240714Y-99790790D02*
X145288333Y-99838409D01*
X145288333Y-99838409D02*
X145383571Y-99886028D01*
X145383571Y-99886028D02*
X145764523Y-99886028D01*
X144431190Y-99838409D02*
X144288333Y-99886028D01*
X144288333Y-99886028D02*
X144240714Y-99933647D01*
X144240714Y-99933647D02*
X144193095Y-100028885D01*
X144193095Y-100028885D02*
X144193095Y-100171742D01*
X144193095Y-100171742D02*
X144240714Y-100266980D01*
X144240714Y-100266980D02*
X144288333Y-100314600D01*
X144288333Y-100314600D02*
X144383571Y-100362219D01*
X144383571Y-100362219D02*
X144764523Y-100362219D01*
X144764523Y-100362219D02*
X144764523Y-99362219D01*
X144764523Y-99362219D02*
X144431190Y-99362219D01*
X144431190Y-99362219D02*
X144335952Y-99409838D01*
X144335952Y-99409838D02*
X144288333Y-99457457D01*
X144288333Y-99457457D02*
X144240714Y-99552695D01*
X144240714Y-99552695D02*
X144240714Y-99647933D01*
X144240714Y-99647933D02*
X144288333Y-99743171D01*
X144288333Y-99743171D02*
X144335952Y-99790790D01*
X144335952Y-99790790D02*
X144431190Y-99838409D01*
X144431190Y-99838409D02*
X144764523Y-99838409D01*
X143812142Y-100314600D02*
X143669285Y-100362219D01*
X143669285Y-100362219D02*
X143431190Y-100362219D01*
X143431190Y-100362219D02*
X143335952Y-100314600D01*
X143335952Y-100314600D02*
X143288333Y-100266980D01*
X143288333Y-100266980D02*
X143240714Y-100171742D01*
X143240714Y-100171742D02*
X143240714Y-100076504D01*
X143240714Y-100076504D02*
X143288333Y-99981266D01*
X143288333Y-99981266D02*
X143335952Y-99933647D01*
X143335952Y-99933647D02*
X143431190Y-99886028D01*
X143431190Y-99886028D02*
X143621666Y-99838409D01*
X143621666Y-99838409D02*
X143716904Y-99790790D01*
X143716904Y-99790790D02*
X143764523Y-99743171D01*
X143764523Y-99743171D02*
X143812142Y-99647933D01*
X143812142Y-99647933D02*
X143812142Y-99552695D01*
X143812142Y-99552695D02*
X143764523Y-99457457D01*
X143764523Y-99457457D02*
X143716904Y-99409838D01*
X143716904Y-99409838D02*
X143621666Y-99362219D01*
X143621666Y-99362219D02*
X143383571Y-99362219D01*
X143383571Y-99362219D02*
X143240714Y-99409838D01*
X142812142Y-99838409D02*
X142478809Y-99838409D01*
X142335952Y-100362219D02*
X142812142Y-100362219D01*
X142812142Y-100362219D02*
X142812142Y-99362219D01*
X142812142Y-99362219D02*
X142335952Y-99362219D01*
X141240714Y-100457457D02*
X141335952Y-100409838D01*
X141335952Y-100409838D02*
X141431190Y-100314600D01*
X141431190Y-100314600D02*
X141574047Y-100171742D01*
X141574047Y-100171742D02*
X141669285Y-100124123D01*
X141669285Y-100124123D02*
X141764523Y-100124123D01*
X141716904Y-100362219D02*
X141812142Y-100314600D01*
X141812142Y-100314600D02*
X141907380Y-100219361D01*
X141907380Y-100219361D02*
X141954999Y-100028885D01*
X141954999Y-100028885D02*
X141954999Y-99695552D01*
X141954999Y-99695552D02*
X141907380Y-99505076D01*
X141907380Y-99505076D02*
X141812142Y-99409838D01*
X141812142Y-99409838D02*
X141716904Y-99362219D01*
X141716904Y-99362219D02*
X141526428Y-99362219D01*
X141526428Y-99362219D02*
X141431190Y-99409838D01*
X141431190Y-99409838D02*
X141335952Y-99505076D01*
X141335952Y-99505076D02*
X141288333Y-99695552D01*
X141288333Y-99695552D02*
X141288333Y-100028885D01*
X141288333Y-100028885D02*
X141335952Y-100219361D01*
X141335952Y-100219361D02*
X141431190Y-100314600D01*
X141431190Y-100314600D02*
X141526428Y-100362219D01*
X141526428Y-100362219D02*
X141716904Y-100362219D01*
X140859761Y-99981266D02*
X140097857Y-99981266D01*
X139621666Y-100362219D02*
X139621666Y-99362219D01*
X139621666Y-99362219D02*
X139383571Y-99362219D01*
X139383571Y-99362219D02*
X139240714Y-99409838D01*
X139240714Y-99409838D02*
X139145476Y-99505076D01*
X139145476Y-99505076D02*
X139097857Y-99600314D01*
X139097857Y-99600314D02*
X139050238Y-99790790D01*
X139050238Y-99790790D02*
X139050238Y-99933647D01*
X139050238Y-99933647D02*
X139097857Y-100124123D01*
X139097857Y-100124123D02*
X139145476Y-100219361D01*
X139145476Y-100219361D02*
X139240714Y-100314600D01*
X139240714Y-100314600D02*
X139383571Y-100362219D01*
X139383571Y-100362219D02*
X139621666Y-100362219D01*
X138669285Y-99457457D02*
X138621666Y-99409838D01*
X138621666Y-99409838D02*
X138526428Y-99362219D01*
X138526428Y-99362219D02*
X138288333Y-99362219D01*
X138288333Y-99362219D02*
X138193095Y-99409838D01*
X138193095Y-99409838D02*
X138145476Y-99457457D01*
X138145476Y-99457457D02*
X138097857Y-99552695D01*
X138097857Y-99552695D02*
X138097857Y-99647933D01*
X138097857Y-99647933D02*
X138145476Y-99790790D01*
X138145476Y-99790790D02*
X138716904Y-100362219D01*
X138716904Y-100362219D02*
X138097857Y-100362219D01*
D11*
%TO.C,G\u002A\u002A\u002A*%
G36*
X138634480Y-102088633D02*
G01*
X138662046Y-102088666D01*
X138684372Y-102088759D01*
X138702067Y-102088938D01*
X138715745Y-102089235D01*
X138726015Y-102089678D01*
X138733488Y-102090298D01*
X138738773Y-102091123D01*
X138742482Y-102092182D01*
X138745228Y-102093504D01*
X138747617Y-102095121D01*
X138748114Y-102095496D01*
X138755739Y-102103179D01*
X138761946Y-102112358D01*
X138762211Y-102112916D01*
X138762802Y-102114557D01*
X138763345Y-102116853D01*
X138763846Y-102120045D01*
X138764303Y-102124380D01*
X138764720Y-102130100D01*
X138765098Y-102137450D01*
X138765441Y-102146673D01*
X138765747Y-102158016D01*
X138766020Y-102171720D01*
X138766263Y-102188030D01*
X138766476Y-102207190D01*
X138766662Y-102229447D01*
X138766822Y-102255040D01*
X138766959Y-102284217D01*
X138767073Y-102317221D01*
X138767166Y-102354295D01*
X138767243Y-102395686D01*
X138767304Y-102441635D01*
X138767350Y-102492388D01*
X138767383Y-102548188D01*
X138767406Y-102609280D01*
X138767421Y-102675908D01*
X138767428Y-102748315D01*
X138767430Y-102826745D01*
X138767430Y-102896355D01*
X138767426Y-102969356D01*
X138767415Y-103036550D01*
X138767396Y-103098182D01*
X138767369Y-103154496D01*
X138767328Y-103205739D01*
X138767274Y-103252153D01*
X138767205Y-103293985D01*
X138767117Y-103331477D01*
X138767010Y-103364877D01*
X138766880Y-103394427D01*
X138766729Y-103420373D01*
X138766550Y-103442960D01*
X138766346Y-103462432D01*
X138766110Y-103479035D01*
X138765844Y-103493012D01*
X138765544Y-103504609D01*
X138765208Y-103514071D01*
X138764837Y-103521641D01*
X138764425Y-103527567D01*
X138763972Y-103532090D01*
X138763476Y-103535457D01*
X138762935Y-103537911D01*
X138762346Y-103539699D01*
X138761708Y-103541064D01*
X138761355Y-103541698D01*
X138754208Y-103550605D01*
X138745303Y-103557469D01*
X138742687Y-103558724D01*
X138739025Y-103559953D01*
X138734144Y-103560936D01*
X138727412Y-103561699D01*
X138718199Y-103562271D01*
X138705873Y-103562675D01*
X138689803Y-103562944D01*
X138669359Y-103563102D01*
X138643909Y-103563177D01*
X138612823Y-103563196D01*
X138607675Y-103563196D01*
X138575766Y-103563164D01*
X138549437Y-103563030D01*
X138528085Y-103562715D01*
X138511113Y-103562151D01*
X138497916Y-103561259D01*
X138487895Y-103559965D01*
X138480449Y-103558198D01*
X138474979Y-103555883D01*
X138470880Y-103552945D01*
X138467555Y-103549310D01*
X138464400Y-103544905D01*
X138463866Y-103543989D01*
X138463276Y-103542493D01*
X138462733Y-103540323D01*
X138462233Y-103537236D01*
X138461775Y-103532989D01*
X138461355Y-103527339D01*
X138460974Y-103520042D01*
X138460626Y-103510854D01*
X138460312Y-103499534D01*
X138460028Y-103485838D01*
X138459773Y-103469522D01*
X138459543Y-103450343D01*
X138459338Y-103428057D01*
X138459153Y-103402423D01*
X138458989Y-103373197D01*
X138458842Y-103340134D01*
X138458711Y-103302993D01*
X138458592Y-103261529D01*
X138458484Y-103215500D01*
X138458384Y-103164662D01*
X138458291Y-103108772D01*
X138458203Y-103047587D01*
X138458115Y-102980863D01*
X138458028Y-102908359D01*
X138457939Y-102829829D01*
X138457890Y-102786390D01*
X138457810Y-102711097D01*
X138457742Y-102641696D01*
X138457688Y-102577943D01*
X138457650Y-102519595D01*
X138457630Y-102466407D01*
X138457626Y-102418138D01*
X138457646Y-102374543D01*
X138457687Y-102335377D01*
X138457751Y-102300397D01*
X138457840Y-102269360D01*
X138457956Y-102242022D01*
X138458102Y-102218139D01*
X138458277Y-102197467D01*
X138458483Y-102179765D01*
X138458722Y-102164785D01*
X138458997Y-102152287D01*
X138459307Y-102142026D01*
X138459657Y-102133758D01*
X138460046Y-102127238D01*
X138460475Y-102122225D01*
X138460948Y-102118474D01*
X138461465Y-102115742D01*
X138462029Y-102113785D01*
X138462639Y-102112358D01*
X138462959Y-102111750D01*
X138469384Y-102102545D01*
X138476982Y-102095121D01*
X138478607Y-102093983D01*
X138481174Y-102092570D01*
X138484513Y-102091431D01*
X138489234Y-102090535D01*
X138495949Y-102089854D01*
X138505269Y-102089358D01*
X138517802Y-102089017D01*
X138534162Y-102088804D01*
X138554958Y-102088688D01*
X138580800Y-102088640D01*
X138612300Y-102088630D01*
X138634480Y-102088633D01*
G37*
G36*
X143279131Y-102088633D02*
G01*
X143306697Y-102088666D01*
X143329023Y-102088759D01*
X143346719Y-102088938D01*
X143360396Y-102089235D01*
X143370666Y-102089678D01*
X143378139Y-102090298D01*
X143383424Y-102091123D01*
X143387135Y-102092182D01*
X143389879Y-102093504D01*
X143392270Y-102095121D01*
X143392767Y-102095496D01*
X143400390Y-102103179D01*
X143406597Y-102112358D01*
X143406861Y-102112916D01*
X143407452Y-102114557D01*
X143407996Y-102116853D01*
X143408497Y-102120045D01*
X143408954Y-102124380D01*
X143409371Y-102130100D01*
X143409750Y-102137450D01*
X143410092Y-102146673D01*
X143410398Y-102158016D01*
X143410671Y-102171720D01*
X143410913Y-102188030D01*
X143411128Y-102207190D01*
X143411313Y-102229447D01*
X143411472Y-102255040D01*
X143411609Y-102284217D01*
X143411724Y-102317221D01*
X143411819Y-102354295D01*
X143411895Y-102395686D01*
X143411955Y-102441635D01*
X143412001Y-102492388D01*
X143412034Y-102548188D01*
X143412057Y-102609280D01*
X143412072Y-102675908D01*
X143412078Y-102748315D01*
X143412082Y-102826745D01*
X143412081Y-102896355D01*
X143412076Y-102969356D01*
X143412065Y-103036550D01*
X143412048Y-103098182D01*
X143412019Y-103154496D01*
X143411979Y-103205739D01*
X143411924Y-103252153D01*
X143411855Y-103293985D01*
X143411768Y-103331477D01*
X143411660Y-103364877D01*
X143411533Y-103394427D01*
X143411380Y-103420373D01*
X143411203Y-103442960D01*
X143410996Y-103462432D01*
X143410762Y-103479035D01*
X143410495Y-103493012D01*
X143410195Y-103504609D01*
X143409861Y-103514071D01*
X143409488Y-103521641D01*
X143409076Y-103527567D01*
X143408623Y-103532090D01*
X143408127Y-103535457D01*
X143407586Y-103537911D01*
X143406996Y-103539699D01*
X143406359Y-103541064D01*
X143406006Y-103541698D01*
X143398860Y-103550605D01*
X143389955Y-103557469D01*
X143387338Y-103558724D01*
X143383676Y-103559953D01*
X143378796Y-103560936D01*
X143372064Y-103561699D01*
X143362850Y-103562271D01*
X143350525Y-103562675D01*
X143334455Y-103562944D01*
X143314011Y-103563102D01*
X143288562Y-103563177D01*
X143257473Y-103563196D01*
X143252326Y-103563196D01*
X143220417Y-103563164D01*
X143194087Y-103563030D01*
X143172736Y-103562715D01*
X143155763Y-103562151D01*
X143142566Y-103561259D01*
X143132546Y-103559965D01*
X143125102Y-103558198D01*
X143119630Y-103555883D01*
X143115532Y-103552945D01*
X143112205Y-103549310D01*
X143109050Y-103544905D01*
X143108518Y-103543989D01*
X143107928Y-103542493D01*
X143107384Y-103540323D01*
X143106884Y-103537236D01*
X143106426Y-103532989D01*
X143106006Y-103527339D01*
X143105624Y-103520042D01*
X143105277Y-103510854D01*
X143104963Y-103499534D01*
X143104679Y-103485838D01*
X143104423Y-103469522D01*
X143104194Y-103450343D01*
X143103988Y-103428057D01*
X143103804Y-103402423D01*
X143103641Y-103373197D01*
X143103493Y-103340134D01*
X143103361Y-103302993D01*
X143103242Y-103261529D01*
X143103136Y-103215500D01*
X143103036Y-103164662D01*
X143102943Y-103108772D01*
X143102854Y-103047587D01*
X143102767Y-102980863D01*
X143102679Y-102908359D01*
X143102590Y-102829829D01*
X143102542Y-102786390D01*
X143102460Y-102711097D01*
X143102393Y-102641696D01*
X143102339Y-102577943D01*
X143102301Y-102519595D01*
X143102280Y-102466407D01*
X143102279Y-102418138D01*
X143102296Y-102374543D01*
X143102337Y-102335377D01*
X143102402Y-102300397D01*
X143102491Y-102269360D01*
X143102608Y-102242022D01*
X143102753Y-102218139D01*
X143102927Y-102197467D01*
X143103133Y-102179765D01*
X143103374Y-102164785D01*
X143103648Y-102152287D01*
X143103960Y-102142026D01*
X143104308Y-102133758D01*
X143104697Y-102127238D01*
X143105127Y-102122225D01*
X143105600Y-102118474D01*
X143106117Y-102115742D01*
X143106680Y-102113785D01*
X143107290Y-102112358D01*
X143107610Y-102111750D01*
X143114036Y-102102545D01*
X143121634Y-102095121D01*
X143123258Y-102093983D01*
X143125824Y-102092570D01*
X143129163Y-102091431D01*
X143133885Y-102090535D01*
X143140599Y-102089854D01*
X143149919Y-102089358D01*
X143162453Y-102089017D01*
X143178812Y-102088804D01*
X143199609Y-102088688D01*
X143225451Y-102088640D01*
X143256952Y-102088630D01*
X143279131Y-102088633D01*
G37*
G36*
X132999551Y-102087071D02*
G01*
X133057748Y-102087083D01*
X133110264Y-102087105D01*
X133157395Y-102087145D01*
X133199443Y-102087201D01*
X133236705Y-102087279D01*
X133269484Y-102087383D01*
X133298076Y-102087515D01*
X133322782Y-102087677D01*
X133343902Y-102087878D01*
X133361733Y-102088115D01*
X133376577Y-102088395D01*
X133388732Y-102088720D01*
X133398497Y-102089094D01*
X133406171Y-102089521D01*
X133412054Y-102090002D01*
X133416446Y-102090542D01*
X133419647Y-102091146D01*
X133421954Y-102091815D01*
X133423668Y-102092553D01*
X133424272Y-102092868D01*
X133433479Y-102099286D01*
X133440905Y-102106883D01*
X133441581Y-102107825D01*
X133443251Y-102110584D01*
X133444567Y-102113992D01*
X133445571Y-102118750D01*
X133446304Y-102125561D01*
X133446810Y-102135130D01*
X133447130Y-102148155D01*
X133447306Y-102165342D01*
X133447381Y-102187391D01*
X133447396Y-102215007D01*
X133447379Y-102238209D01*
X133447296Y-102261406D01*
X133447108Y-102279599D01*
X133446778Y-102293484D01*
X133446270Y-102303757D01*
X133445547Y-102311114D01*
X133444573Y-102316249D01*
X133443312Y-102319857D01*
X133441725Y-102322633D01*
X133440665Y-102324174D01*
X133437769Y-102327935D01*
X133434454Y-102331088D01*
X133430189Y-102333683D01*
X133424441Y-102335777D01*
X133416678Y-102337423D01*
X133406370Y-102338674D01*
X133392984Y-102339585D01*
X133375989Y-102340209D01*
X133354853Y-102340602D01*
X133329044Y-102340814D01*
X133298030Y-102340903D01*
X133261279Y-102340921D01*
X133235804Y-102340924D01*
X133205440Y-102340948D01*
X133180394Y-102341018D01*
X133160111Y-102341156D01*
X133144042Y-102341383D01*
X133131633Y-102341724D01*
X133122332Y-102342199D01*
X133115585Y-102342831D01*
X133110841Y-102343645D01*
X133107547Y-102344663D01*
X133105150Y-102345906D01*
X133103098Y-102347396D01*
X133094865Y-102353873D01*
X133094057Y-102944201D01*
X133093249Y-103534530D01*
X133086758Y-103543378D01*
X133086384Y-103543875D01*
X133078700Y-103551499D01*
X133069521Y-103557707D01*
X133067741Y-103558540D01*
X133064083Y-103559797D01*
X133059214Y-103560805D01*
X133052501Y-103561596D01*
X133043312Y-103562191D01*
X133031017Y-103562619D01*
X133014980Y-103562907D01*
X132994573Y-103563080D01*
X132969161Y-103563164D01*
X132938114Y-103563186D01*
X132927820Y-103563186D01*
X132896656Y-103563142D01*
X132870994Y-103562973D01*
X132850243Y-103562587D01*
X132833812Y-103561901D01*
X132821108Y-103560823D01*
X132811541Y-103559268D01*
X132804517Y-103557147D01*
X132799446Y-103554373D01*
X132795737Y-103550859D01*
X132792798Y-103546516D01*
X132790035Y-103541257D01*
X132789865Y-103540904D01*
X132789212Y-103539201D01*
X132788616Y-103536865D01*
X132788072Y-103533625D01*
X132787579Y-103529214D01*
X132787133Y-103523366D01*
X132786734Y-103515810D01*
X132786378Y-103506277D01*
X132786062Y-103494502D01*
X132785784Y-103480213D01*
X132785544Y-103463143D01*
X132785336Y-103443026D01*
X132785160Y-103419592D01*
X132785011Y-103392571D01*
X132784889Y-103361698D01*
X132784790Y-103326702D01*
X132784712Y-103287317D01*
X132784654Y-103243272D01*
X132784610Y-103194302D01*
X132784581Y-103140136D01*
X132784562Y-103080507D01*
X132784554Y-103015146D01*
X132784550Y-102943786D01*
X132784550Y-102934458D01*
X132784548Y-102864027D01*
X132784541Y-102799564D01*
X132784527Y-102740800D01*
X132784504Y-102687466D01*
X132784467Y-102639296D01*
X132784415Y-102596019D01*
X132784345Y-102557373D01*
X132784253Y-102523084D01*
X132784139Y-102492889D01*
X132783998Y-102466517D01*
X132783829Y-102443703D01*
X132783628Y-102424178D01*
X132783392Y-102407674D01*
X132783120Y-102393923D01*
X132782808Y-102382658D01*
X132782454Y-102373610D01*
X132782053Y-102366513D01*
X132781606Y-102361098D01*
X132781108Y-102357097D01*
X132780557Y-102354244D01*
X132779950Y-102352269D01*
X132779285Y-102350906D01*
X132778557Y-102349887D01*
X132772569Y-102342487D01*
X132613236Y-102340921D01*
X132600793Y-102340796D01*
X132566845Y-102340440D01*
X132538459Y-102340092D01*
X132515104Y-102339735D01*
X132496247Y-102339341D01*
X132481357Y-102338891D01*
X132469903Y-102338359D01*
X132461352Y-102337723D01*
X132455174Y-102336961D01*
X132450836Y-102336049D01*
X132447807Y-102334965D01*
X132445556Y-102333686D01*
X132442713Y-102331682D01*
X132438340Y-102327952D01*
X132434879Y-102323504D01*
X132432222Y-102317643D01*
X132430266Y-102309679D01*
X132428903Y-102298914D01*
X132428027Y-102284657D01*
X132427533Y-102266214D01*
X132427314Y-102242890D01*
X132427265Y-102213992D01*
X132427300Y-102186055D01*
X132427495Y-102162328D01*
X132427981Y-102143543D01*
X132428887Y-102129021D01*
X132430345Y-102118086D01*
X132432486Y-102110058D01*
X132435439Y-102104261D01*
X132439337Y-102100015D01*
X132444308Y-102096645D01*
X132450484Y-102093469D01*
X132450814Y-102093309D01*
X132452668Y-102092465D01*
X132454742Y-102091699D01*
X132457341Y-102091009D01*
X132460765Y-102090392D01*
X132465318Y-102089842D01*
X132471301Y-102089357D01*
X132479018Y-102088931D01*
X132488769Y-102088562D01*
X132500858Y-102088245D01*
X132515588Y-102087977D01*
X132533260Y-102087752D01*
X132554176Y-102087567D01*
X132578639Y-102087420D01*
X132606952Y-102087305D01*
X132639416Y-102087218D01*
X132676334Y-102087154D01*
X132718010Y-102087112D01*
X132764744Y-102087087D01*
X132816839Y-102087072D01*
X132874596Y-102087068D01*
X132938319Y-102087068D01*
X132999551Y-102087071D01*
G37*
G36*
X135428435Y-102087071D02*
G01*
X135486632Y-102087083D01*
X135539147Y-102087105D01*
X135586279Y-102087145D01*
X135628326Y-102087201D01*
X135665590Y-102087279D01*
X135698369Y-102087383D01*
X135726960Y-102087515D01*
X135751667Y-102087677D01*
X135772786Y-102087878D01*
X135790618Y-102088115D01*
X135805460Y-102088395D01*
X135817615Y-102088720D01*
X135827380Y-102089094D01*
X135835055Y-102089521D01*
X135840938Y-102090002D01*
X135845330Y-102090542D01*
X135848531Y-102091146D01*
X135850838Y-102091815D01*
X135852551Y-102092553D01*
X135853155Y-102092868D01*
X135862362Y-102099286D01*
X135869788Y-102106883D01*
X135870466Y-102107825D01*
X135872136Y-102110584D01*
X135873451Y-102113992D01*
X135874455Y-102118750D01*
X135875187Y-102125561D01*
X135875693Y-102135130D01*
X135876013Y-102148155D01*
X135876189Y-102165342D01*
X135876264Y-102187391D01*
X135876280Y-102215007D01*
X135876264Y-102238209D01*
X135876181Y-102261406D01*
X135875992Y-102279599D01*
X135875662Y-102293484D01*
X135875154Y-102303757D01*
X135874432Y-102311114D01*
X135873458Y-102316249D01*
X135872195Y-102319857D01*
X135870609Y-102322633D01*
X135869549Y-102324174D01*
X135866653Y-102327935D01*
X135863338Y-102331088D01*
X135859073Y-102333683D01*
X135853325Y-102335777D01*
X135845562Y-102337423D01*
X135835254Y-102338674D01*
X135821868Y-102339585D01*
X135804873Y-102340209D01*
X135783738Y-102340602D01*
X135757927Y-102340814D01*
X135726914Y-102340903D01*
X135690163Y-102340921D01*
X135664689Y-102340924D01*
X135634325Y-102340948D01*
X135609278Y-102341018D01*
X135588996Y-102341156D01*
X135572926Y-102341383D01*
X135560517Y-102341724D01*
X135551215Y-102342199D01*
X135544469Y-102342831D01*
X135539725Y-102343645D01*
X135536431Y-102344663D01*
X135534033Y-102345906D01*
X135531982Y-102347396D01*
X135523748Y-102353873D01*
X135522941Y-102944201D01*
X135522132Y-103534530D01*
X135515641Y-103543378D01*
X135515267Y-103543875D01*
X135507585Y-103551499D01*
X135498405Y-103557707D01*
X135496624Y-103558540D01*
X135492967Y-103559797D01*
X135488097Y-103560805D01*
X135481385Y-103561596D01*
X135472197Y-103562191D01*
X135459901Y-103562619D01*
X135443864Y-103562907D01*
X135423457Y-103563080D01*
X135398046Y-103563164D01*
X135366997Y-103563186D01*
X135356703Y-103563186D01*
X135325539Y-103563142D01*
X135299878Y-103562973D01*
X135279127Y-103562587D01*
X135262695Y-103561901D01*
X135249991Y-103560823D01*
X135240425Y-103559268D01*
X135233401Y-103557147D01*
X135228330Y-103554373D01*
X135224621Y-103550859D01*
X135221682Y-103546516D01*
X135218918Y-103541257D01*
X135218749Y-103540904D01*
X135218096Y-103539201D01*
X135217499Y-103536865D01*
X135216956Y-103533625D01*
X135216462Y-103529214D01*
X135216018Y-103523366D01*
X135215618Y-103515810D01*
X135215262Y-103506277D01*
X135214946Y-103494502D01*
X135214669Y-103480213D01*
X135214428Y-103463143D01*
X135214220Y-103443026D01*
X135214043Y-103419592D01*
X135213895Y-103392571D01*
X135213773Y-103361698D01*
X135213674Y-103326702D01*
X135213596Y-103287317D01*
X135213537Y-103243272D01*
X135213493Y-103194302D01*
X135213465Y-103140136D01*
X135213447Y-103080507D01*
X135213437Y-103015146D01*
X135213435Y-102943786D01*
X135213435Y-102934458D01*
X135213432Y-102864027D01*
X135213425Y-102799564D01*
X135213411Y-102740800D01*
X135213388Y-102687466D01*
X135213350Y-102639296D01*
X135213299Y-102596019D01*
X135213228Y-102557373D01*
X135213137Y-102523084D01*
X135213022Y-102492889D01*
X135212882Y-102466517D01*
X135212713Y-102443703D01*
X135212512Y-102424178D01*
X135212276Y-102407674D01*
X135212004Y-102393923D01*
X135211691Y-102382658D01*
X135211337Y-102373610D01*
X135210937Y-102366513D01*
X135210490Y-102361098D01*
X135209992Y-102357097D01*
X135209441Y-102354244D01*
X135208834Y-102352269D01*
X135208168Y-102350906D01*
X135207441Y-102349887D01*
X135201453Y-102342487D01*
X135042121Y-102340921D01*
X135029677Y-102340796D01*
X134995728Y-102340440D01*
X134967344Y-102340092D01*
X134943988Y-102339735D01*
X134925130Y-102339341D01*
X134910241Y-102338891D01*
X134898787Y-102338359D01*
X134890236Y-102337723D01*
X134884058Y-102336961D01*
X134879720Y-102336049D01*
X134876691Y-102334965D01*
X134874439Y-102333686D01*
X134871597Y-102331682D01*
X134867224Y-102327952D01*
X134863763Y-102323504D01*
X134861106Y-102317643D01*
X134859150Y-102309679D01*
X134857787Y-102298914D01*
X134856911Y-102284657D01*
X134856417Y-102266214D01*
X134856198Y-102242890D01*
X134856148Y-102213992D01*
X134856184Y-102186055D01*
X134856378Y-102162328D01*
X134856864Y-102143543D01*
X134857771Y-102129021D01*
X134859229Y-102118086D01*
X134861370Y-102110058D01*
X134864322Y-102104261D01*
X134868221Y-102100015D01*
X134873192Y-102096645D01*
X134879368Y-102093469D01*
X134879698Y-102093309D01*
X134881552Y-102092465D01*
X134883626Y-102091699D01*
X134886226Y-102091009D01*
X134889649Y-102090392D01*
X134894202Y-102089842D01*
X134900186Y-102089357D01*
X134907901Y-102088931D01*
X134917654Y-102088562D01*
X134929743Y-102088245D01*
X134944472Y-102087977D01*
X134962143Y-102087752D01*
X134983060Y-102087567D01*
X135007524Y-102087420D01*
X135035836Y-102087305D01*
X135068301Y-102087218D01*
X135105218Y-102087154D01*
X135146894Y-102087112D01*
X135193627Y-102087087D01*
X135245722Y-102087072D01*
X135303480Y-102087068D01*
X135367204Y-102087068D01*
X135428435Y-102087071D01*
G37*
G36*
X137810308Y-102087071D02*
G01*
X137868506Y-102087083D01*
X137921020Y-102087105D01*
X137968153Y-102087145D01*
X138010199Y-102087201D01*
X138047463Y-102087279D01*
X138080242Y-102087383D01*
X138108834Y-102087515D01*
X138133540Y-102087677D01*
X138154660Y-102087878D01*
X138172491Y-102088115D01*
X138187334Y-102088395D01*
X138199488Y-102088720D01*
X138209253Y-102089094D01*
X138216928Y-102089521D01*
X138222812Y-102090002D01*
X138227204Y-102090542D01*
X138230404Y-102091146D01*
X138232712Y-102091815D01*
X138234425Y-102092553D01*
X138235028Y-102092868D01*
X138244236Y-102099286D01*
X138251662Y-102106883D01*
X138252339Y-102107825D01*
X138254009Y-102110584D01*
X138255324Y-102113992D01*
X138256328Y-102118750D01*
X138257061Y-102125561D01*
X138257567Y-102135130D01*
X138257886Y-102148155D01*
X138258063Y-102165342D01*
X138258138Y-102187391D01*
X138258152Y-102215007D01*
X138258137Y-102238209D01*
X138258053Y-102261406D01*
X138257865Y-102279599D01*
X138257535Y-102293484D01*
X138257027Y-102303757D01*
X138256304Y-102311114D01*
X138255331Y-102316249D01*
X138254069Y-102319857D01*
X138252482Y-102322633D01*
X138251422Y-102324174D01*
X138248526Y-102327935D01*
X138245212Y-102331088D01*
X138240946Y-102333683D01*
X138235198Y-102335777D01*
X138227436Y-102337423D01*
X138217127Y-102338674D01*
X138203742Y-102339585D01*
X138186746Y-102340209D01*
X138165611Y-102340602D01*
X138139801Y-102340814D01*
X138108787Y-102340903D01*
X138072037Y-102340921D01*
X138046562Y-102340924D01*
X138016198Y-102340948D01*
X137991151Y-102341018D01*
X137970869Y-102341156D01*
X137954799Y-102341383D01*
X137942391Y-102341724D01*
X137933089Y-102342199D01*
X137926342Y-102342831D01*
X137921598Y-102343645D01*
X137918304Y-102344663D01*
X137915907Y-102345906D01*
X137913856Y-102347396D01*
X137905621Y-102353873D01*
X137904814Y-102944201D01*
X137904006Y-103534530D01*
X137897515Y-103543378D01*
X137897140Y-103543875D01*
X137889458Y-103551499D01*
X137880278Y-103557707D01*
X137878497Y-103558540D01*
X137874840Y-103559797D01*
X137869971Y-103560805D01*
X137863258Y-103561596D01*
X137854070Y-103562191D01*
X137841774Y-103562619D01*
X137825738Y-103562907D01*
X137805331Y-103563080D01*
X137779919Y-103563164D01*
X137748871Y-103563186D01*
X137738576Y-103563186D01*
X137707413Y-103563142D01*
X137681751Y-103562973D01*
X137661001Y-103562587D01*
X137644569Y-103561901D01*
X137631865Y-103560823D01*
X137622297Y-103559268D01*
X137615274Y-103557147D01*
X137610204Y-103554373D01*
X137606495Y-103550859D01*
X137603555Y-103546516D01*
X137600792Y-103541257D01*
X137600622Y-103540904D01*
X137599970Y-103539201D01*
X137599372Y-103536865D01*
X137598829Y-103533625D01*
X137598335Y-103529214D01*
X137597891Y-103523366D01*
X137597491Y-103515810D01*
X137597135Y-103506277D01*
X137596819Y-103494502D01*
X137596542Y-103480213D01*
X137596301Y-103463143D01*
X137596093Y-103443026D01*
X137595917Y-103419592D01*
X137595768Y-103392571D01*
X137595646Y-103361698D01*
X137595548Y-103326702D01*
X137595470Y-103287317D01*
X137595410Y-103243272D01*
X137595367Y-103194302D01*
X137595338Y-103140136D01*
X137595320Y-103080507D01*
X137595310Y-103015146D01*
X137595308Y-102943786D01*
X137595308Y-102934458D01*
X137595306Y-102864027D01*
X137595299Y-102799564D01*
X137595285Y-102740800D01*
X137595261Y-102687466D01*
X137595224Y-102639296D01*
X137595171Y-102596019D01*
X137595102Y-102557373D01*
X137595011Y-102523084D01*
X137594896Y-102492889D01*
X137594756Y-102466517D01*
X137594586Y-102443703D01*
X137594385Y-102424178D01*
X137594150Y-102407674D01*
X137593877Y-102393923D01*
X137593564Y-102382658D01*
X137593210Y-102373610D01*
X137592811Y-102366513D01*
X137592363Y-102361098D01*
X137591865Y-102357097D01*
X137591315Y-102354244D01*
X137590708Y-102352269D01*
X137590041Y-102350906D01*
X137589314Y-102349887D01*
X137583326Y-102342487D01*
X137423994Y-102340921D01*
X137411550Y-102340796D01*
X137377602Y-102340440D01*
X137349217Y-102340092D01*
X137325861Y-102339735D01*
X137307004Y-102339341D01*
X137292115Y-102338891D01*
X137280661Y-102338359D01*
X137272109Y-102337723D01*
X137265930Y-102336961D01*
X137261593Y-102336049D01*
X137258565Y-102334965D01*
X137256312Y-102333686D01*
X137253470Y-102331682D01*
X137249097Y-102327952D01*
X137245635Y-102323504D01*
X137242980Y-102317643D01*
X137241023Y-102309679D01*
X137239660Y-102298914D01*
X137238785Y-102284657D01*
X137238290Y-102266214D01*
X137238071Y-102242890D01*
X137238021Y-102213992D01*
X137238056Y-102186055D01*
X137238252Y-102162328D01*
X137238737Y-102143543D01*
X137239644Y-102129021D01*
X137241102Y-102118086D01*
X137243243Y-102110058D01*
X137246196Y-102104261D01*
X137250094Y-102100015D01*
X137255065Y-102096645D01*
X137261241Y-102093469D01*
X137261571Y-102093309D01*
X137263425Y-102092465D01*
X137265499Y-102091699D01*
X137268099Y-102091009D01*
X137271523Y-102090392D01*
X137276076Y-102089842D01*
X137282059Y-102089357D01*
X137289774Y-102088931D01*
X137299527Y-102088562D01*
X137311616Y-102088245D01*
X137326346Y-102087977D01*
X137344017Y-102087752D01*
X137364934Y-102087567D01*
X137389397Y-102087420D01*
X137417708Y-102087305D01*
X137450174Y-102087218D01*
X137487092Y-102087154D01*
X137528767Y-102087112D01*
X137575501Y-102087087D01*
X137627595Y-102087072D01*
X137685353Y-102087068D01*
X137749077Y-102087068D01*
X137810308Y-102087071D01*
G37*
G36*
X134636991Y-103034867D02*
G01*
X134653056Y-103092631D01*
X134668437Y-103147943D01*
X134683056Y-103200528D01*
X134696835Y-103250109D01*
X134709700Y-103296412D01*
X134721573Y-103339159D01*
X134732377Y-103378074D01*
X134742037Y-103412883D01*
X134750474Y-103443309D01*
X134757614Y-103469076D01*
X134763378Y-103489908D01*
X134767690Y-103505530D01*
X134770475Y-103515666D01*
X134771654Y-103520038D01*
X134771705Y-103520242D01*
X134773868Y-103535527D01*
X134771552Y-103547374D01*
X134764534Y-103556933D01*
X134763988Y-103557434D01*
X134762135Y-103558887D01*
X134759734Y-103560075D01*
X134756213Y-103561022D01*
X134751000Y-103561748D01*
X134743524Y-103562276D01*
X134733211Y-103562627D01*
X134719490Y-103562825D01*
X134701790Y-103562889D01*
X134679537Y-103562843D01*
X134652160Y-103562706D01*
X134619088Y-103562504D01*
X134480563Y-103561628D01*
X134472461Y-103554015D01*
X134471061Y-103552698D01*
X134469112Y-103550699D01*
X134467294Y-103548299D01*
X134465449Y-103544986D01*
X134463415Y-103540244D01*
X134461034Y-103533563D01*
X134458145Y-103524426D01*
X134454588Y-103512318D01*
X134450203Y-103496728D01*
X134444831Y-103477142D01*
X134438312Y-103453043D01*
X134430485Y-103423919D01*
X134421190Y-103389256D01*
X134387580Y-103263894D01*
X134152008Y-103263091D01*
X133916435Y-103262287D01*
X133913210Y-103272493D01*
X133912342Y-103275418D01*
X133909763Y-103284587D01*
X133905951Y-103298434D01*
X133901134Y-103316107D01*
X133895544Y-103336746D01*
X133889408Y-103359497D01*
X133882959Y-103383499D01*
X133876422Y-103407897D01*
X133870032Y-103431835D01*
X133864017Y-103454454D01*
X133858606Y-103474900D01*
X133854027Y-103492314D01*
X133850514Y-103505838D01*
X133848293Y-103514619D01*
X133845067Y-103526622D01*
X133841563Y-103537713D01*
X133838636Y-103545122D01*
X133836860Y-103548543D01*
X133834509Y-103552157D01*
X133831480Y-103555122D01*
X133827214Y-103557502D01*
X133821151Y-103559362D01*
X133812732Y-103560765D01*
X133801401Y-103561774D01*
X133786595Y-103562458D01*
X133767757Y-103562878D01*
X133744329Y-103563098D01*
X133715749Y-103563181D01*
X133681461Y-103563196D01*
X133679090Y-103563196D01*
X133646926Y-103563186D01*
X133620405Y-103563141D01*
X133598939Y-103563032D01*
X133581938Y-103562834D01*
X133568819Y-103562520D01*
X133558993Y-103562064D01*
X133551873Y-103561437D01*
X133546870Y-103560614D01*
X133543401Y-103559568D01*
X133540874Y-103558272D01*
X133538706Y-103556700D01*
X133534233Y-103552453D01*
X133531217Y-103545973D01*
X133530448Y-103536001D01*
X133530713Y-103534080D01*
X133532506Y-103525974D01*
X133535978Y-103511941D01*
X133541110Y-103492050D01*
X133547885Y-103466367D01*
X133556283Y-103434960D01*
X133566286Y-103397895D01*
X133577877Y-103355242D01*
X133591034Y-103307067D01*
X133605743Y-103253438D01*
X133621982Y-103194421D01*
X133639736Y-103130083D01*
X133658984Y-103060493D01*
X133669273Y-103023372D01*
X133972992Y-103023372D01*
X133973919Y-103024232D01*
X133977518Y-103024965D01*
X133984190Y-103025577D01*
X133994335Y-103026081D01*
X134008351Y-103026483D01*
X134026637Y-103026791D01*
X134049595Y-103027015D01*
X134077623Y-103027165D01*
X134111119Y-103027248D01*
X134150484Y-103027275D01*
X134329291Y-103027275D01*
X134324957Y-103012387D01*
X134324474Y-103010661D01*
X134322348Y-103002798D01*
X134318798Y-102989520D01*
X134313942Y-102971260D01*
X134307893Y-102948457D01*
X134300767Y-102921545D01*
X134292681Y-102890959D01*
X134283748Y-102857138D01*
X134274084Y-102820514D01*
X134263806Y-102781529D01*
X134253026Y-102740611D01*
X134241862Y-102698202D01*
X134240307Y-102692294D01*
X134226777Y-102640872D01*
X134214744Y-102595143D01*
X134204116Y-102554773D01*
X134194801Y-102519427D01*
X134186705Y-102488776D01*
X134179739Y-102462485D01*
X134173808Y-102440221D01*
X134168823Y-102421651D01*
X134164691Y-102406442D01*
X134161317Y-102394263D01*
X134158613Y-102384779D01*
X134156485Y-102377656D01*
X134154840Y-102372564D01*
X134153588Y-102369170D01*
X134152636Y-102367139D01*
X134151891Y-102366138D01*
X134151262Y-102365836D01*
X134150657Y-102365898D01*
X134149982Y-102365994D01*
X134149846Y-102366096D01*
X134148192Y-102370182D01*
X134145052Y-102380071D01*
X134140492Y-102395536D01*
X134134571Y-102416349D01*
X134127354Y-102442282D01*
X134118902Y-102473111D01*
X134109278Y-102508607D01*
X134098543Y-102548542D01*
X134086761Y-102592691D01*
X134073994Y-102640825D01*
X134060303Y-102692717D01*
X134059747Y-102694828D01*
X134048172Y-102738800D01*
X134037038Y-102781080D01*
X134026448Y-102821267D01*
X134016510Y-102858968D01*
X134007326Y-102893784D01*
X133999002Y-102925318D01*
X133991644Y-102953173D01*
X133985356Y-102976951D01*
X133980243Y-102996255D01*
X133976408Y-103010689D01*
X133973958Y-103019856D01*
X133972998Y-103023356D01*
X133972992Y-103023372D01*
X133669273Y-103023372D01*
X133679709Y-102985719D01*
X133701892Y-102905826D01*
X133725514Y-102820884D01*
X133920582Y-102119970D01*
X133933533Y-102106964D01*
X133937557Y-102103009D01*
X133941603Y-102099509D01*
X133946034Y-102096548D01*
X133951339Y-102094085D01*
X133958010Y-102092077D01*
X133966538Y-102090485D01*
X133977410Y-102089265D01*
X133991119Y-102088374D01*
X134008155Y-102087773D01*
X134029008Y-102087418D01*
X134054168Y-102087269D01*
X134084124Y-102087285D01*
X134119368Y-102087421D01*
X134160391Y-102087638D01*
X134340599Y-102088630D01*
X134355402Y-102097331D01*
X134367919Y-102106901D01*
X134378076Y-102119464D01*
X134378224Y-102119741D01*
X134380262Y-102125172D01*
X134383881Y-102136414D01*
X134389085Y-102153484D01*
X134395880Y-102176399D01*
X134404269Y-102205175D01*
X134414259Y-102239831D01*
X134425851Y-102280381D01*
X134439055Y-102326844D01*
X134453872Y-102379237D01*
X134470308Y-102437576D01*
X134488368Y-102501878D01*
X134508056Y-102572160D01*
X134529377Y-102648440D01*
X134552337Y-102730733D01*
X134576940Y-102819054D01*
X134585448Y-102849623D01*
X134603110Y-102913087D01*
X134620316Y-102974927D01*
X134634879Y-103027275D01*
X134636991Y-103034867D01*
G37*
G36*
X139313495Y-102087592D02*
G01*
X139331926Y-102088051D01*
X139346422Y-102088874D01*
X139357572Y-102090129D01*
X139365966Y-102091884D01*
X139372195Y-102094205D01*
X139376851Y-102097159D01*
X139380523Y-102100818D01*
X139383804Y-102105246D01*
X139384500Y-102106448D01*
X139385160Y-102108151D01*
X139385762Y-102110595D01*
X139386311Y-102114055D01*
X139386810Y-102118809D01*
X139387262Y-102125132D01*
X139387671Y-102133301D01*
X139388041Y-102143593D01*
X139388375Y-102156282D01*
X139388676Y-102171648D01*
X139388950Y-102189965D01*
X139389199Y-102211510D01*
X139389427Y-102236559D01*
X139389636Y-102265389D01*
X139389832Y-102298275D01*
X139390017Y-102335494D01*
X139390195Y-102377325D01*
X139390370Y-102424041D01*
X139390545Y-102475919D01*
X139390726Y-102533237D01*
X139390912Y-102596269D01*
X139391110Y-102665294D01*
X139392677Y-103216884D01*
X139400002Y-103238516D01*
X139408023Y-103256724D01*
X139422131Y-103275778D01*
X139440647Y-103290376D01*
X139463553Y-103300501D01*
X139469222Y-103302235D01*
X139474731Y-103303705D01*
X139480571Y-103304888D01*
X139487399Y-103305818D01*
X139495876Y-103306522D01*
X139506664Y-103307033D01*
X139520419Y-103307382D01*
X139537804Y-103307599D01*
X139559476Y-103307715D01*
X139586097Y-103307762D01*
X139618327Y-103307771D01*
X139623690Y-103307771D01*
X139654951Y-103307761D01*
X139680698Y-103307713D01*
X139701580Y-103307593D01*
X139718252Y-103307370D01*
X139731364Y-103307012D01*
X139741569Y-103306488D01*
X139749518Y-103305764D01*
X139755863Y-103304808D01*
X139761258Y-103303590D01*
X139766353Y-103302075D01*
X139771800Y-103300234D01*
X139787729Y-103293328D01*
X139807503Y-103279377D01*
X139822825Y-103261048D01*
X139833519Y-103238516D01*
X139840844Y-103216884D01*
X139842411Y-102665294D01*
X139842603Y-102598461D01*
X139842790Y-102535234D01*
X139842969Y-102477732D01*
X139843145Y-102425677D01*
X139843320Y-102378795D01*
X139843498Y-102336808D01*
X139843683Y-102299438D01*
X139843877Y-102266413D01*
X139844088Y-102237453D01*
X139844313Y-102212283D01*
X139844562Y-102190626D01*
X139844834Y-102172207D01*
X139845135Y-102156749D01*
X139845468Y-102143974D01*
X139845837Y-102133607D01*
X139846245Y-102125372D01*
X139846696Y-102118992D01*
X139847193Y-102114191D01*
X139847740Y-102110692D01*
X139848340Y-102108219D01*
X139848998Y-102106496D01*
X139849716Y-102105246D01*
X139852746Y-102101123D01*
X139856377Y-102097404D01*
X139860948Y-102094395D01*
X139867053Y-102092027D01*
X139875284Y-102090234D01*
X139886231Y-102088945D01*
X139900487Y-102088093D01*
X139918643Y-102087611D01*
X139941292Y-102087431D01*
X139969023Y-102087485D01*
X140002430Y-102087704D01*
X140014375Y-102087796D01*
X140044279Y-102088047D01*
X140068744Y-102088355D01*
X140088388Y-102088806D01*
X140103821Y-102089490D01*
X140115660Y-102090493D01*
X140124517Y-102091903D01*
X140131008Y-102093807D01*
X140135746Y-102096294D01*
X140139346Y-102099451D01*
X140142421Y-102103365D01*
X140145585Y-102108124D01*
X140146212Y-102109270D01*
X140146844Y-102111049D01*
X140147419Y-102113634D01*
X140147941Y-102117299D01*
X140148410Y-102122319D01*
X140148832Y-102128963D01*
X140149208Y-102137507D01*
X140149540Y-102148225D01*
X140149830Y-102161386D01*
X140150084Y-102177266D01*
X140150301Y-102196139D01*
X140150486Y-102218275D01*
X140150641Y-102243949D01*
X140150769Y-102273433D01*
X140150871Y-102307002D01*
X140150952Y-102344928D01*
X140151012Y-102387481D01*
X140151056Y-102434940D01*
X140151084Y-102487573D01*
X140151102Y-102545656D01*
X140151111Y-102609460D01*
X140151114Y-102679260D01*
X140151112Y-102736845D01*
X140151104Y-102801849D01*
X140151088Y-102861109D01*
X140151058Y-102914903D01*
X140151015Y-102963522D01*
X140150955Y-103007249D01*
X140150873Y-103046371D01*
X140150771Y-103081171D01*
X140150641Y-103111939D01*
X140150484Y-103138959D01*
X140150296Y-103162516D01*
X140150072Y-103182896D01*
X140149814Y-103200386D01*
X140149516Y-103215270D01*
X140149176Y-103227835D01*
X140148791Y-103238369D01*
X140148359Y-103247152D01*
X140147876Y-103254475D01*
X140147340Y-103260622D01*
X140146748Y-103265878D01*
X140146098Y-103270530D01*
X140145386Y-103274864D01*
X140137291Y-103312332D01*
X140123458Y-103354928D01*
X140105298Y-103393356D01*
X140082634Y-103427975D01*
X140055289Y-103459146D01*
X140033978Y-103478365D01*
X139998378Y-103503630D01*
X139958528Y-103524702D01*
X139914814Y-103541417D01*
X139867623Y-103553607D01*
X139817338Y-103561110D01*
X139811665Y-103561464D01*
X139799470Y-103561849D01*
X139782346Y-103562165D01*
X139760991Y-103562412D01*
X139736107Y-103562594D01*
X139708393Y-103562712D01*
X139678549Y-103562768D01*
X139647274Y-103562763D01*
X139615270Y-103562702D01*
X139583234Y-103562584D01*
X139551867Y-103562414D01*
X139521871Y-103562191D01*
X139493942Y-103561920D01*
X139468785Y-103561602D01*
X139447094Y-103561238D01*
X139429572Y-103560831D01*
X139416918Y-103560383D01*
X139409832Y-103559896D01*
X139398175Y-103558356D01*
X139359533Y-103551630D01*
X139324708Y-103542658D01*
X139291943Y-103530925D01*
X139259480Y-103515918D01*
X139229317Y-103498528D01*
X139194582Y-103472421D01*
X139164374Y-103442054D01*
X139138654Y-103407374D01*
X139117384Y-103368327D01*
X139100526Y-103324860D01*
X139088040Y-103276917D01*
X139087404Y-103273456D01*
X139086802Y-103269211D01*
X139086251Y-103264002D01*
X139085750Y-103257551D01*
X139085293Y-103249577D01*
X139084879Y-103239803D01*
X139084505Y-103227950D01*
X139084169Y-103213737D01*
X139083865Y-103196885D01*
X139083592Y-103177115D01*
X139083346Y-103154149D01*
X139083126Y-103127706D01*
X139082928Y-103097507D01*
X139082748Y-103063275D01*
X139082585Y-103024730D01*
X139082434Y-102981590D01*
X139082293Y-102933580D01*
X139082159Y-102880417D01*
X139082029Y-102821824D01*
X139081901Y-102757524D01*
X139081770Y-102687232D01*
X139081652Y-102620734D01*
X139081544Y-102556533D01*
X139081455Y-102498065D01*
X139081388Y-102445059D01*
X139081344Y-102397238D01*
X139081326Y-102354331D01*
X139081336Y-102316059D01*
X139081376Y-102282154D01*
X139081447Y-102252340D01*
X139081554Y-102226342D01*
X139081696Y-102203886D01*
X139081876Y-102184700D01*
X139082099Y-102168509D01*
X139082364Y-102155037D01*
X139082673Y-102144015D01*
X139083029Y-102135163D01*
X139083435Y-102128212D01*
X139083893Y-102122886D01*
X139084403Y-102118913D01*
X139084970Y-102116016D01*
X139085594Y-102113922D01*
X139086280Y-102112358D01*
X139086606Y-102111739D01*
X139093054Y-102102538D01*
X139100652Y-102095121D01*
X139101544Y-102094481D01*
X139104084Y-102092944D01*
X139107261Y-102091694D01*
X139111700Y-102090693D01*
X139118027Y-102089907D01*
X139126868Y-102089301D01*
X139138848Y-102088838D01*
X139154592Y-102088483D01*
X139174727Y-102088198D01*
X139199880Y-102087950D01*
X139230675Y-102087704D01*
X139262457Y-102087493D01*
X139290534Y-102087428D01*
X139313495Y-102087592D01*
G37*
G36*
X141038784Y-102087654D02*
G01*
X141070979Y-102087947D01*
X141096985Y-102088447D01*
X141116774Y-102089155D01*
X141130325Y-102090069D01*
X141181103Y-102097090D01*
X141227874Y-102108035D01*
X141270302Y-102122985D01*
X141308742Y-102142092D01*
X141343554Y-102165508D01*
X141375093Y-102193382D01*
X141380101Y-102198518D01*
X141404980Y-102227976D01*
X141425512Y-102259937D01*
X141442070Y-102295170D01*
X141455024Y-102334445D01*
X141464749Y-102378530D01*
X141465228Y-102381326D01*
X141466017Y-102386457D01*
X141466724Y-102392056D01*
X141467353Y-102398462D01*
X141467911Y-102406016D01*
X141468398Y-102415063D01*
X141468823Y-102425940D01*
X141469188Y-102438990D01*
X141469497Y-102454554D01*
X141469757Y-102472976D01*
X141469970Y-102494592D01*
X141470142Y-102519748D01*
X141470275Y-102548781D01*
X141470376Y-102582036D01*
X141470450Y-102619853D01*
X141470499Y-102662573D01*
X141470528Y-102710537D01*
X141470543Y-102764086D01*
X141470546Y-102823561D01*
X141470535Y-102881982D01*
X141470499Y-102938656D01*
X141470433Y-102989627D01*
X141470337Y-103035184D01*
X141470207Y-103075618D01*
X141470039Y-103111222D01*
X141469831Y-103142287D01*
X141469582Y-103169104D01*
X141469287Y-103191962D01*
X141468945Y-103211155D01*
X141468551Y-103226974D01*
X141468106Y-103239710D01*
X141467602Y-103249653D01*
X141467041Y-103257095D01*
X141466417Y-103262327D01*
X141463517Y-103279329D01*
X141452961Y-103323876D01*
X141438684Y-103363868D01*
X141420432Y-103399842D01*
X141397943Y-103432339D01*
X141370963Y-103461893D01*
X141354223Y-103477078D01*
X141325818Y-103498664D01*
X141295172Y-103516805D01*
X141261535Y-103531817D01*
X141224161Y-103544012D01*
X141182299Y-103553706D01*
X141135204Y-103561216D01*
X141134600Y-103561268D01*
X141128421Y-103561464D01*
X141116669Y-103561627D01*
X141099903Y-103561756D01*
X141078679Y-103561848D01*
X141053555Y-103561905D01*
X141025090Y-103561924D01*
X140993842Y-103561903D01*
X140960366Y-103561840D01*
X140925223Y-103561736D01*
X140907516Y-103561671D01*
X140868226Y-103561496D01*
X140834506Y-103561290D01*
X140805855Y-103561042D01*
X140781780Y-103560737D01*
X140761781Y-103560364D01*
X140745363Y-103559909D01*
X140732027Y-103559360D01*
X140721277Y-103558705D01*
X140712617Y-103557930D01*
X140705546Y-103557022D01*
X140699571Y-103555971D01*
X140688186Y-103553556D01*
X140638654Y-103539997D01*
X140593907Y-103522401D01*
X140553900Y-103500728D01*
X140518589Y-103474935D01*
X140487929Y-103444980D01*
X140461875Y-103410820D01*
X140440384Y-103372415D01*
X140423410Y-103329722D01*
X140410911Y-103282699D01*
X140409353Y-103274613D01*
X140407960Y-103265353D01*
X140406892Y-103255010D01*
X140406106Y-103242717D01*
X140405565Y-103227614D01*
X140405226Y-103208835D01*
X140405050Y-103185516D01*
X140404995Y-103156793D01*
X140404994Y-103148851D01*
X140405016Y-103123039D01*
X140405112Y-103102596D01*
X140405324Y-103086811D01*
X140405696Y-103074977D01*
X140406271Y-103066384D01*
X140407093Y-103060322D01*
X140408203Y-103056082D01*
X140409645Y-103052957D01*
X140411462Y-103050236D01*
X140411988Y-103049520D01*
X140415615Y-103044816D01*
X140419326Y-103040955D01*
X140423738Y-103037855D01*
X140429472Y-103035432D01*
X140437146Y-103033602D01*
X140447376Y-103032282D01*
X140460783Y-103031389D01*
X140477985Y-103030839D01*
X140499600Y-103030549D01*
X140526245Y-103030437D01*
X140558540Y-103030418D01*
X140559177Y-103030418D01*
X140594006Y-103030326D01*
X140623103Y-103030308D01*
X140646991Y-103030734D01*
X140666191Y-103031978D01*
X140681223Y-103034407D01*
X140692607Y-103038394D01*
X140700867Y-103044311D01*
X140706522Y-103052529D01*
X140710093Y-103063417D01*
X140712102Y-103077349D01*
X140713070Y-103094692D01*
X140713519Y-103115822D01*
X140713968Y-103141107D01*
X140714499Y-103163062D01*
X140715214Y-103185529D01*
X140716128Y-103203368D01*
X140717386Y-103217492D01*
X140719141Y-103228809D01*
X140721538Y-103238233D01*
X140724728Y-103246670D01*
X140728859Y-103255034D01*
X140734080Y-103264235D01*
X140738573Y-103270668D01*
X140751808Y-103283359D01*
X140769063Y-103294291D01*
X140788830Y-103302409D01*
X140791905Y-103303289D01*
X140797294Y-103304470D01*
X140803920Y-103305429D01*
X140812412Y-103306186D01*
X140823398Y-103306765D01*
X140837507Y-103307188D01*
X140855369Y-103307476D01*
X140877612Y-103307656D01*
X140904866Y-103307746D01*
X140937759Y-103307771D01*
X140938096Y-103307771D01*
X140970250Y-103307762D01*
X140996791Y-103307717D01*
X141018369Y-103307603D01*
X141035636Y-103307390D01*
X141049239Y-103307047D01*
X141059826Y-103306544D01*
X141068051Y-103305850D01*
X141074561Y-103304933D01*
X141080007Y-103303765D01*
X141085037Y-103302312D01*
X141090301Y-103300545D01*
X141092262Y-103299850D01*
X141113715Y-103289462D01*
X141130800Y-103275261D01*
X141143799Y-103256861D01*
X141152990Y-103233874D01*
X141158652Y-103205915D01*
X141158974Y-103202744D01*
X141159529Y-103193116D01*
X141160011Y-103178670D01*
X141160421Y-103159258D01*
X141160759Y-103134739D01*
X141161026Y-103104965D01*
X141161224Y-103069795D01*
X141161353Y-103029080D01*
X141161415Y-102982677D01*
X141161409Y-102930442D01*
X141161338Y-102872227D01*
X141161201Y-102807891D01*
X141160271Y-102436509D01*
X141153255Y-102415870D01*
X141147702Y-102401598D01*
X141136937Y-102382779D01*
X141123045Y-102368235D01*
X141105038Y-102357028D01*
X141081925Y-102348219D01*
X141078776Y-102347310D01*
X141073228Y-102346012D01*
X141066750Y-102344967D01*
X141058675Y-102344149D01*
X141048336Y-102343529D01*
X141035066Y-102343083D01*
X141018197Y-102342782D01*
X140997062Y-102342600D01*
X140970994Y-102342511D01*
X140939326Y-102342487D01*
X140918202Y-102342500D01*
X140887857Y-102342604D01*
X140862710Y-102342859D01*
X140842091Y-102343324D01*
X140825336Y-102344058D01*
X140811774Y-102345119D01*
X140800740Y-102346565D01*
X140791565Y-102348452D01*
X140783581Y-102350841D01*
X140776122Y-102353789D01*
X140768520Y-102357353D01*
X140755032Y-102365647D01*
X140739950Y-102379382D01*
X140729056Y-102394884D01*
X140725042Y-102403514D01*
X140721118Y-102414806D01*
X140718160Y-102427788D01*
X140716051Y-102443369D01*
X140714676Y-102462465D01*
X140713915Y-102485992D01*
X140713652Y-102514860D01*
X140713569Y-102536271D01*
X140713343Y-102554504D01*
X140712905Y-102568237D01*
X140712193Y-102578389D01*
X140711138Y-102585883D01*
X140709674Y-102591640D01*
X140707735Y-102596583D01*
X140706401Y-102599490D01*
X140703791Y-102604538D01*
X140700761Y-102608674D01*
X140696723Y-102611989D01*
X140691093Y-102614573D01*
X140683287Y-102616518D01*
X140672721Y-102617915D01*
X140658809Y-102618854D01*
X140640967Y-102619426D01*
X140618611Y-102619722D01*
X140591155Y-102619833D01*
X140558017Y-102619850D01*
X140531305Y-102619838D01*
X140505034Y-102619773D01*
X140483864Y-102619630D01*
X140467167Y-102619380D01*
X140454309Y-102618997D01*
X140444661Y-102618453D01*
X140437590Y-102617721D01*
X140432467Y-102616773D01*
X140428658Y-102615584D01*
X140425535Y-102614124D01*
X140419556Y-102610639D01*
X140414517Y-102606623D01*
X140410649Y-102601540D01*
X140407796Y-102594643D01*
X140405806Y-102585192D01*
X140404524Y-102572444D01*
X140403801Y-102555657D01*
X140403477Y-102534086D01*
X140403405Y-102506992D01*
X140403406Y-102504087D01*
X140403601Y-102471802D01*
X140404195Y-102444610D01*
X140405276Y-102421435D01*
X140406927Y-102401199D01*
X140409233Y-102382823D01*
X140412285Y-102365229D01*
X140416166Y-102347339D01*
X140427961Y-102308072D01*
X140446036Y-102267788D01*
X140469155Y-102230858D01*
X140497009Y-102197598D01*
X140529291Y-102168326D01*
X140565688Y-102143359D01*
X140605895Y-102123014D01*
X140649601Y-102107608D01*
X140656736Y-102105598D01*
X140669066Y-102102213D01*
X140680403Y-102099332D01*
X140691354Y-102096909D01*
X140702523Y-102094900D01*
X140714515Y-102093259D01*
X140727936Y-102091941D01*
X140743390Y-102090900D01*
X140761482Y-102090093D01*
X140782817Y-102089473D01*
X140808000Y-102088995D01*
X140837635Y-102088615D01*
X140872329Y-102088286D01*
X140912686Y-102087963D01*
X140955921Y-102087692D01*
X141000423Y-102087569D01*
X141038784Y-102087654D01*
G37*
G36*
X144323262Y-102087654D02*
G01*
X144355457Y-102087947D01*
X144381463Y-102088447D01*
X144401252Y-102089155D01*
X144414803Y-102090069D01*
X144465581Y-102097090D01*
X144512352Y-102108035D01*
X144554780Y-102122985D01*
X144593220Y-102142092D01*
X144628032Y-102165508D01*
X144659571Y-102193382D01*
X144664578Y-102198518D01*
X144689458Y-102227976D01*
X144709990Y-102259937D01*
X144726548Y-102295170D01*
X144739502Y-102334445D01*
X144749227Y-102378530D01*
X144749707Y-102381326D01*
X144750496Y-102386457D01*
X144751202Y-102392056D01*
X144751831Y-102398462D01*
X144752389Y-102406016D01*
X144752877Y-102415063D01*
X144753301Y-102425940D01*
X144753666Y-102438990D01*
X144753976Y-102454554D01*
X144754235Y-102472976D01*
X144754448Y-102494592D01*
X144754620Y-102519748D01*
X144754753Y-102548781D01*
X144754855Y-102582036D01*
X144754928Y-102619853D01*
X144754976Y-102662573D01*
X144755006Y-102710537D01*
X144755020Y-102764086D01*
X144755024Y-102823561D01*
X144755013Y-102881982D01*
X144754977Y-102938656D01*
X144754912Y-102989627D01*
X144754815Y-103035184D01*
X144754684Y-103075618D01*
X144754517Y-103111222D01*
X144754309Y-103142287D01*
X144754060Y-103169104D01*
X144753765Y-103191962D01*
X144753423Y-103211155D01*
X144753029Y-103226974D01*
X144752582Y-103239710D01*
X144752080Y-103249653D01*
X144751518Y-103257095D01*
X144750895Y-103262327D01*
X144747995Y-103279329D01*
X144737439Y-103323876D01*
X144723163Y-103363868D01*
X144704908Y-103399842D01*
X144682421Y-103432339D01*
X144655441Y-103461893D01*
X144638700Y-103477078D01*
X144610296Y-103498664D01*
X144579649Y-103516805D01*
X144546013Y-103531817D01*
X144508639Y-103544012D01*
X144466777Y-103553706D01*
X144419682Y-103561216D01*
X144419079Y-103561268D01*
X144412899Y-103561464D01*
X144401147Y-103561627D01*
X144384380Y-103561756D01*
X144363156Y-103561848D01*
X144338033Y-103561905D01*
X144309568Y-103561924D01*
X144278320Y-103561903D01*
X144244844Y-103561840D01*
X144209700Y-103561736D01*
X144191994Y-103561671D01*
X144152704Y-103561496D01*
X144118982Y-103561290D01*
X144090333Y-103561042D01*
X144066257Y-103560737D01*
X144046259Y-103560364D01*
X144029841Y-103559909D01*
X144016505Y-103559360D01*
X144005755Y-103558705D01*
X143997094Y-103557930D01*
X143990025Y-103557022D01*
X143984049Y-103555971D01*
X143972664Y-103553556D01*
X143923132Y-103539997D01*
X143878385Y-103522401D01*
X143838377Y-103500728D01*
X143803067Y-103474935D01*
X143772406Y-103444980D01*
X143746353Y-103410820D01*
X143724861Y-103372415D01*
X143707889Y-103329722D01*
X143695389Y-103282699D01*
X143693831Y-103274613D01*
X143692438Y-103265353D01*
X143691368Y-103255010D01*
X143690584Y-103242717D01*
X143690043Y-103227614D01*
X143689704Y-103208835D01*
X143689528Y-103185516D01*
X143689472Y-103156793D01*
X143689472Y-103148851D01*
X143689494Y-103123039D01*
X143689590Y-103102596D01*
X143689802Y-103086811D01*
X143690174Y-103074977D01*
X143690749Y-103066384D01*
X143691571Y-103060322D01*
X143692681Y-103056082D01*
X143694123Y-103052957D01*
X143695940Y-103050236D01*
X143696466Y-103049520D01*
X143700092Y-103044816D01*
X143703803Y-103040955D01*
X143708216Y-103037855D01*
X143713949Y-103035432D01*
X143721623Y-103033602D01*
X143731854Y-103032282D01*
X143745261Y-103031389D01*
X143762462Y-103030839D01*
X143784076Y-103030549D01*
X143810723Y-103030437D01*
X143843018Y-103030418D01*
X143843655Y-103030418D01*
X143878483Y-103030326D01*
X143907581Y-103030308D01*
X143931469Y-103030734D01*
X143950669Y-103031978D01*
X143965700Y-103034407D01*
X143977085Y-103038394D01*
X143985344Y-103044311D01*
X143991000Y-103052529D01*
X143994571Y-103063417D01*
X143996580Y-103077349D01*
X143997548Y-103094692D01*
X143997996Y-103115822D01*
X143998444Y-103141107D01*
X143998977Y-103163062D01*
X143999692Y-103185529D01*
X144000605Y-103203368D01*
X144001864Y-103217492D01*
X144003619Y-103228809D01*
X144006016Y-103238233D01*
X144009206Y-103246670D01*
X144013337Y-103255034D01*
X144018558Y-103264235D01*
X144023051Y-103270668D01*
X144036284Y-103283359D01*
X144053541Y-103294291D01*
X144073308Y-103302409D01*
X144076383Y-103303289D01*
X144081772Y-103304470D01*
X144088398Y-103305429D01*
X144096890Y-103306186D01*
X144107876Y-103306765D01*
X144121985Y-103307188D01*
X144139847Y-103307476D01*
X144162090Y-103307656D01*
X144189344Y-103307746D01*
X144222237Y-103307771D01*
X144222575Y-103307771D01*
X144254728Y-103307762D01*
X144281269Y-103307717D01*
X144302848Y-103307603D01*
X144320114Y-103307390D01*
X144333716Y-103307047D01*
X144344305Y-103306544D01*
X144352530Y-103305850D01*
X144359039Y-103304933D01*
X144364485Y-103303765D01*
X144369514Y-103302312D01*
X144374779Y-103300545D01*
X144376740Y-103299850D01*
X144398193Y-103289462D01*
X144415278Y-103275261D01*
X144428276Y-103256861D01*
X144437468Y-103233874D01*
X144443130Y-103205915D01*
X144443452Y-103202744D01*
X144444006Y-103193116D01*
X144444489Y-103178670D01*
X144444899Y-103159258D01*
X144445237Y-103134739D01*
X144445504Y-103104965D01*
X144445702Y-103069795D01*
X144445832Y-103029080D01*
X144445892Y-102982677D01*
X144445887Y-102930442D01*
X144445814Y-102872227D01*
X144445678Y-102807891D01*
X144444748Y-102436509D01*
X144437733Y-102415870D01*
X144432179Y-102401598D01*
X144421415Y-102382779D01*
X144407523Y-102368235D01*
X144389516Y-102357028D01*
X144366403Y-102348219D01*
X144363254Y-102347310D01*
X144357705Y-102346012D01*
X144351228Y-102344967D01*
X144343152Y-102344149D01*
X144332814Y-102343529D01*
X144319543Y-102343083D01*
X144302675Y-102342782D01*
X144281540Y-102342600D01*
X144255473Y-102342511D01*
X144223804Y-102342487D01*
X144202679Y-102342500D01*
X144172335Y-102342604D01*
X144147186Y-102342859D01*
X144126569Y-102343324D01*
X144109813Y-102344058D01*
X144096252Y-102345119D01*
X144085217Y-102346565D01*
X144076043Y-102348452D01*
X144068059Y-102350841D01*
X144060600Y-102353789D01*
X144052999Y-102357353D01*
X144039510Y-102365647D01*
X144024427Y-102379382D01*
X144013535Y-102394884D01*
X144009519Y-102403514D01*
X144005594Y-102414806D01*
X144002638Y-102427788D01*
X144000530Y-102443369D01*
X143999153Y-102462465D01*
X143998393Y-102485992D01*
X143998130Y-102514860D01*
X143998048Y-102536271D01*
X143997820Y-102554504D01*
X143997384Y-102568237D01*
X143996671Y-102578389D01*
X143995616Y-102585883D01*
X143994153Y-102591640D01*
X143992214Y-102596583D01*
X143990879Y-102599490D01*
X143988270Y-102604538D01*
X143985239Y-102608674D01*
X143981201Y-102611989D01*
X143975571Y-102614573D01*
X143967765Y-102616518D01*
X143957199Y-102617915D01*
X143943286Y-102618854D01*
X143925444Y-102619426D01*
X143903089Y-102619722D01*
X143875634Y-102619833D01*
X143842495Y-102619850D01*
X143815783Y-102619838D01*
X143789510Y-102619773D01*
X143768342Y-102619630D01*
X143751644Y-102619380D01*
X143738787Y-102618997D01*
X143729138Y-102618453D01*
X143722067Y-102617721D01*
X143716944Y-102616773D01*
X143713136Y-102615584D01*
X143710013Y-102614124D01*
X143704034Y-102610639D01*
X143698995Y-102606623D01*
X143695126Y-102601540D01*
X143692274Y-102594643D01*
X143690284Y-102585192D01*
X143689003Y-102572444D01*
X143688278Y-102555657D01*
X143687955Y-102534086D01*
X143687882Y-102506992D01*
X143687884Y-102504087D01*
X143688079Y-102471802D01*
X143688674Y-102444610D01*
X143689754Y-102421435D01*
X143691404Y-102401199D01*
X143693711Y-102382823D01*
X143696763Y-102365229D01*
X143700644Y-102347339D01*
X143712439Y-102308072D01*
X143730514Y-102267788D01*
X143753633Y-102230858D01*
X143781487Y-102197598D01*
X143813768Y-102168326D01*
X143850165Y-102143359D01*
X143890373Y-102123014D01*
X143934080Y-102107608D01*
X143941214Y-102105598D01*
X143953542Y-102102213D01*
X143964881Y-102099332D01*
X143975833Y-102096909D01*
X143987001Y-102094900D01*
X143998994Y-102093259D01*
X144012414Y-102091941D01*
X144027867Y-102090900D01*
X144045960Y-102090093D01*
X144067294Y-102089473D01*
X144092477Y-102088995D01*
X144122113Y-102088615D01*
X144156807Y-102088286D01*
X144197165Y-102087963D01*
X144240399Y-102087692D01*
X144284902Y-102087569D01*
X144323262Y-102087654D01*
G37*
G36*
X131593775Y-102087530D02*
G01*
X131636522Y-102087567D01*
X131684573Y-102087632D01*
X131738251Y-102087721D01*
X131797876Y-102087833D01*
X131852326Y-102087937D01*
X131906337Y-102088047D01*
X131954694Y-102088154D01*
X131997717Y-102088266D01*
X132035727Y-102088387D01*
X132069045Y-102088524D01*
X132097993Y-102088682D01*
X132122889Y-102088865D01*
X132144058Y-102089081D01*
X132161816Y-102089333D01*
X132176489Y-102089629D01*
X132188393Y-102089973D01*
X132197852Y-102090370D01*
X132205187Y-102090828D01*
X132210718Y-102091348D01*
X132214765Y-102091941D01*
X132217649Y-102092608D01*
X132219693Y-102093357D01*
X132221216Y-102094193D01*
X132222539Y-102095121D01*
X132223040Y-102095498D01*
X132230666Y-102103181D01*
X132236881Y-102112358D01*
X132237219Y-102113082D01*
X132237804Y-102114766D01*
X132238342Y-102117113D01*
X132238835Y-102120369D01*
X132239284Y-102124775D01*
X132239692Y-102130576D01*
X132240058Y-102138015D01*
X132240387Y-102147335D01*
X132240677Y-102158781D01*
X132240932Y-102172596D01*
X132241155Y-102189024D01*
X132241344Y-102208309D01*
X132241502Y-102230694D01*
X132241632Y-102256423D01*
X132241733Y-102285739D01*
X132241808Y-102318888D01*
X132241860Y-102356109D01*
X132241887Y-102397651D01*
X132241896Y-102443755D01*
X132241883Y-102494664D01*
X132241852Y-102550623D01*
X132241806Y-102611876D01*
X132241744Y-102678666D01*
X132241669Y-102751237D01*
X132241583Y-102829829D01*
X132241512Y-102892054D01*
X132241424Y-102965840D01*
X132241337Y-103033791D01*
X132241249Y-103096151D01*
X132241156Y-103153163D01*
X132241058Y-103205072D01*
X132240951Y-103252119D01*
X132240835Y-103294548D01*
X132240705Y-103332602D01*
X132240561Y-103366523D01*
X132240400Y-103396557D01*
X132240220Y-103422943D01*
X132240019Y-103445929D01*
X132239794Y-103465754D01*
X132239544Y-103482664D01*
X132239266Y-103496900D01*
X132238958Y-103508706D01*
X132238618Y-103518326D01*
X132238244Y-103526001D01*
X132237833Y-103531977D01*
X132237383Y-103536495D01*
X132236892Y-103539800D01*
X132236358Y-103542132D01*
X132235779Y-103543738D01*
X132235152Y-103544858D01*
X132235139Y-103544877D01*
X132228212Y-103552184D01*
X132219482Y-103558106D01*
X132218253Y-103558605D01*
X132215685Y-103559271D01*
X132211906Y-103559868D01*
X132206597Y-103560399D01*
X132199445Y-103560870D01*
X132190133Y-103561283D01*
X132178345Y-103561642D01*
X132163764Y-103561953D01*
X132146075Y-103562216D01*
X132124962Y-103562437D01*
X132100109Y-103562618D01*
X132071200Y-103562766D01*
X132037919Y-103562882D01*
X131999949Y-103562970D01*
X131956976Y-103563036D01*
X131908682Y-103563080D01*
X131854753Y-103563109D01*
X131794870Y-103563124D01*
X131776600Y-103563129D01*
X131717888Y-103563143D01*
X131665035Y-103563153D01*
X131617726Y-103563144D01*
X131575645Y-103563105D01*
X131538475Y-103563023D01*
X131505899Y-103562885D01*
X131477603Y-103562680D01*
X131453271Y-103562393D01*
X131432583Y-103562013D01*
X131415227Y-103561527D01*
X131400886Y-103560923D01*
X131389242Y-103560187D01*
X131379981Y-103559308D01*
X131372786Y-103558273D01*
X131367341Y-103557070D01*
X131363330Y-103555685D01*
X131360435Y-103554106D01*
X131358343Y-103552321D01*
X131356735Y-103550317D01*
X131355297Y-103548082D01*
X131353712Y-103545603D01*
X131352237Y-103543186D01*
X131350790Y-103539768D01*
X131349657Y-103535114D01*
X131348788Y-103528505D01*
X131348134Y-103519221D01*
X131347649Y-103506545D01*
X131347283Y-103489755D01*
X131346989Y-103468137D01*
X131346717Y-103440968D01*
X131346514Y-103415539D01*
X131346458Y-103391331D01*
X131346698Y-103372084D01*
X131347347Y-103357096D01*
X131348510Y-103345668D01*
X131350295Y-103337101D01*
X131352812Y-103330690D01*
X131356168Y-103325735D01*
X131360474Y-103321538D01*
X131365835Y-103317396D01*
X131367431Y-103316293D01*
X131369332Y-103315294D01*
X131371891Y-103314421D01*
X131375509Y-103313662D01*
X131380587Y-103313006D01*
X131387526Y-103312443D01*
X131396725Y-103311961D01*
X131408588Y-103311546D01*
X131423511Y-103311190D01*
X131441900Y-103310880D01*
X131464152Y-103310604D01*
X131490668Y-103310350D01*
X131521849Y-103310109D01*
X131558098Y-103309867D01*
X131599813Y-103309614D01*
X131647394Y-103309338D01*
X131920106Y-103307771D01*
X131926096Y-103300373D01*
X131926218Y-103300220D01*
X131927513Y-103298340D01*
X131928602Y-103295878D01*
X131929503Y-103292316D01*
X131930234Y-103287139D01*
X131930812Y-103279828D01*
X131931256Y-103269867D01*
X131931584Y-103256739D01*
X131931812Y-103239928D01*
X131931958Y-103218915D01*
X131932040Y-103193185D01*
X131932078Y-103162223D01*
X131932085Y-103125507D01*
X131932085Y-102958041D01*
X131916701Y-102942655D01*
X131684348Y-102942655D01*
X131643133Y-102942648D01*
X131607622Y-102942622D01*
X131577356Y-102942562D01*
X131551881Y-102942460D01*
X131530739Y-102942301D01*
X131513474Y-102942072D01*
X131499629Y-102941761D01*
X131488748Y-102941356D01*
X131480374Y-102940843D01*
X131474049Y-102940212D01*
X131469319Y-102939451D01*
X131465726Y-102938544D01*
X131462814Y-102937480D01*
X131460126Y-102936248D01*
X131454259Y-102933248D01*
X131449220Y-102929900D01*
X131445264Y-102925715D01*
X131442261Y-102920014D01*
X131440080Y-102912116D01*
X131438588Y-102901343D01*
X131437655Y-102887018D01*
X131437153Y-102868461D01*
X131436947Y-102844992D01*
X131436907Y-102815935D01*
X131436918Y-102800131D01*
X131437043Y-102774174D01*
X131437387Y-102753436D01*
X131438055Y-102737226D01*
X131439144Y-102724858D01*
X131440759Y-102715641D01*
X131443001Y-102708884D01*
X131445970Y-102703901D01*
X131449770Y-102699999D01*
X131454500Y-102696492D01*
X131454908Y-102696221D01*
X131456878Y-102695092D01*
X131459386Y-102694112D01*
X131462871Y-102693267D01*
X131467774Y-102692543D01*
X131474538Y-102691925D01*
X131483602Y-102691400D01*
X131495406Y-102690953D01*
X131510394Y-102690569D01*
X131529004Y-102690234D01*
X131551677Y-102689934D01*
X131578856Y-102689655D01*
X131610980Y-102689382D01*
X131648490Y-102689101D01*
X131691826Y-102688799D01*
X131920106Y-102687232D01*
X131926096Y-102679834D01*
X131927066Y-102678530D01*
X131928260Y-102676292D01*
X131929250Y-102673127D01*
X131930052Y-102668504D01*
X131930686Y-102661886D01*
X131931175Y-102652742D01*
X131931533Y-102640533D01*
X131931784Y-102624729D01*
X131931946Y-102604794D01*
X131932036Y-102580194D01*
X131932077Y-102550394D01*
X131932085Y-102514860D01*
X131932082Y-102489335D01*
X131932052Y-102457875D01*
X131931979Y-102431775D01*
X131931841Y-102410499D01*
X131931619Y-102393515D01*
X131931295Y-102380286D01*
X131930847Y-102370281D01*
X131930258Y-102362963D01*
X131929508Y-102357799D01*
X131928576Y-102354255D01*
X131927446Y-102351795D01*
X131926096Y-102349887D01*
X131920106Y-102342487D01*
X131646382Y-102340921D01*
X131633543Y-102340847D01*
X131587288Y-102340573D01*
X131546802Y-102340314D01*
X131511685Y-102340060D01*
X131481541Y-102339801D01*
X131455969Y-102339525D01*
X131434573Y-102339222D01*
X131416954Y-102338883D01*
X131402715Y-102338497D01*
X131391455Y-102338055D01*
X131382778Y-102337544D01*
X131376286Y-102336955D01*
X131371580Y-102336277D01*
X131368264Y-102335503D01*
X131365937Y-102334619D01*
X131364203Y-102333615D01*
X131362321Y-102332290D01*
X131357738Y-102328346D01*
X131354086Y-102323530D01*
X131351270Y-102317163D01*
X131349199Y-102308573D01*
X131347775Y-102297087D01*
X131346904Y-102282031D01*
X131346492Y-102262731D01*
X131346444Y-102238513D01*
X131346667Y-102208703D01*
X131346929Y-102183783D01*
X131347225Y-102162266D01*
X131347586Y-102145609D01*
X131348064Y-102133084D01*
X131348713Y-102123960D01*
X131349585Y-102117507D01*
X131350734Y-102112995D01*
X131352215Y-102109695D01*
X131354077Y-102106875D01*
X131354457Y-102106372D01*
X131362138Y-102098749D01*
X131371315Y-102092534D01*
X131372557Y-102091963D01*
X131374744Y-102091233D01*
X131377740Y-102090580D01*
X131381869Y-102090002D01*
X131387450Y-102089495D01*
X131394804Y-102089055D01*
X131404254Y-102088677D01*
X131416117Y-102088362D01*
X131430719Y-102088101D01*
X131448378Y-102087894D01*
X131469416Y-102087737D01*
X131494153Y-102087625D01*
X131522912Y-102087555D01*
X131556011Y-102087526D01*
X131593775Y-102087530D01*
G37*
G36*
X136609497Y-102088642D02*
G01*
X136643775Y-102088692D01*
X136672854Y-102088794D01*
X136697284Y-102088962D01*
X136717616Y-102089211D01*
X136734398Y-102089556D01*
X136748184Y-102090012D01*
X136759522Y-102090592D01*
X136768965Y-102091313D01*
X136777062Y-102092187D01*
X136784364Y-102093231D01*
X136791421Y-102094458D01*
X136804665Y-102097074D01*
X136853375Y-102109671D01*
X136897297Y-102126097D01*
X136936631Y-102146439D01*
X136971580Y-102170785D01*
X136971704Y-102170883D01*
X137004286Y-102200713D01*
X137031813Y-102233823D01*
X137054403Y-102270436D01*
X137072173Y-102310774D01*
X137085240Y-102355060D01*
X137093723Y-102403518D01*
X137094509Y-102411552D01*
X137095529Y-102428673D01*
X137096264Y-102450002D01*
X137096715Y-102474276D01*
X137096884Y-102500235D01*
X137096770Y-102526614D01*
X137096376Y-102552154D01*
X137095704Y-102575590D01*
X137094754Y-102595662D01*
X137093526Y-102611109D01*
X137087353Y-102651552D01*
X137075849Y-102696527D01*
X137059988Y-102738483D01*
X137040037Y-102776985D01*
X137016259Y-102811596D01*
X136988920Y-102841889D01*
X136958285Y-102867425D01*
X136924619Y-102887769D01*
X136914926Y-102892213D01*
X136897276Y-102899248D01*
X136875756Y-102906983D01*
X136851653Y-102914996D01*
X136826256Y-102922863D01*
X136800856Y-102930158D01*
X136776743Y-102936455D01*
X136754171Y-102941761D01*
X136702008Y-102952492D01*
X136645996Y-102962146D01*
X136587756Y-102970453D01*
X136528913Y-102977146D01*
X136497167Y-102981380D01*
X136459982Y-102989540D01*
X136426839Y-103000619D01*
X136398120Y-103014425D01*
X136374206Y-103030769D01*
X136355480Y-103049459D01*
X136342324Y-103070305D01*
X136342001Y-103070996D01*
X136339058Y-103077580D01*
X136336927Y-103083580D01*
X136335472Y-103090138D01*
X136334568Y-103098398D01*
X136334083Y-103109502D01*
X136333887Y-103124588D01*
X136333851Y-103144801D01*
X136333853Y-103149769D01*
X136333980Y-103169672D01*
X136334372Y-103184843D01*
X136335146Y-103196548D01*
X136336411Y-103206055D01*
X136338281Y-103214628D01*
X136340870Y-103223533D01*
X136348532Y-103243618D01*
X136360877Y-103264365D01*
X136376835Y-103280528D01*
X136397108Y-103292779D01*
X136422400Y-103301793D01*
X136423238Y-103302017D01*
X136430089Y-103303613D01*
X136437843Y-103304906D01*
X136447268Y-103305936D01*
X136459129Y-103306749D01*
X136474193Y-103307386D01*
X136493227Y-103307890D01*
X136516995Y-103308303D01*
X136546266Y-103308668D01*
X136578558Y-103308939D01*
X136606410Y-103308945D01*
X136629568Y-103308612D01*
X136648829Y-103307883D01*
X136664988Y-103306700D01*
X136678843Y-103305003D01*
X136691189Y-103302732D01*
X136702823Y-103299829D01*
X136714542Y-103296237D01*
X136726856Y-103291435D01*
X136738913Y-103284133D01*
X136751094Y-103273290D01*
X136752402Y-103271964D01*
X136762002Y-103260703D01*
X136769394Y-103248427D01*
X136774899Y-103234093D01*
X136778838Y-103216655D01*
X136781532Y-103195069D01*
X136783300Y-103168288D01*
X136783509Y-103164084D01*
X136784917Y-103143331D01*
X136786922Y-103127729D01*
X136789852Y-103116327D01*
X136794028Y-103108178D01*
X136799779Y-103102333D01*
X136807427Y-103097841D01*
X136810244Y-103097021D01*
X136819541Y-103095768D01*
X136833713Y-103094719D01*
X136851906Y-103093874D01*
X136873261Y-103093233D01*
X136896922Y-103092795D01*
X136922031Y-103092558D01*
X136947732Y-103092527D01*
X136973168Y-103092696D01*
X136997482Y-103093068D01*
X137019815Y-103093640D01*
X137039312Y-103094414D01*
X137055114Y-103095391D01*
X137066367Y-103096566D01*
X137072212Y-103097943D01*
X137072756Y-103098226D01*
X137079819Y-103102554D01*
X137085122Y-103107718D01*
X137088912Y-103114620D01*
X137091431Y-103124166D01*
X137092927Y-103137259D01*
X137093644Y-103154805D01*
X137093826Y-103177708D01*
X137093549Y-103201596D01*
X137091937Y-103234925D01*
X137088717Y-103264696D01*
X137083701Y-103292480D01*
X137076700Y-103319848D01*
X137072515Y-103333183D01*
X137055575Y-103374041D01*
X137033571Y-103411450D01*
X137006748Y-103445222D01*
X136975359Y-103475173D01*
X136939645Y-103501113D01*
X136899856Y-103522854D01*
X136856240Y-103540210D01*
X136809043Y-103552994D01*
X136758514Y-103561018D01*
X136754461Y-103561209D01*
X136744435Y-103561431D01*
X136729242Y-103561650D01*
X136709471Y-103561861D01*
X136685716Y-103562060D01*
X136658563Y-103562243D01*
X136628606Y-103562401D01*
X136596433Y-103562533D01*
X136562636Y-103562632D01*
X136542897Y-103562673D01*
X136503253Y-103562697D01*
X136469164Y-103562626D01*
X136440137Y-103562450D01*
X136415681Y-103562158D01*
X136395305Y-103561745D01*
X136378515Y-103561199D01*
X136364820Y-103560513D01*
X136353730Y-103559677D01*
X136344751Y-103558682D01*
X136312251Y-103553347D01*
X136263482Y-103541048D01*
X136218919Y-103524197D01*
X136178634Y-103502857D01*
X136142705Y-103477095D01*
X136111201Y-103446974D01*
X136084198Y-103412558D01*
X136061769Y-103373912D01*
X136043989Y-103331099D01*
X136030929Y-103284186D01*
X136029139Y-103275681D01*
X136027493Y-103266677D01*
X136026218Y-103257551D01*
X136025267Y-103247424D01*
X136024589Y-103235421D01*
X136024139Y-103220662D01*
X136023869Y-103202269D01*
X136023730Y-103179364D01*
X136023674Y-103151069D01*
X136023725Y-103120713D01*
X136024014Y-103092474D01*
X136024629Y-103068775D01*
X136025649Y-103048720D01*
X136027152Y-103031402D01*
X136029221Y-103015921D01*
X136031934Y-103001373D01*
X136035373Y-102986857D01*
X136039615Y-102971470D01*
X136047147Y-102948443D01*
X136065817Y-102906315D01*
X136089832Y-102867379D01*
X136119039Y-102831901D01*
X136119585Y-102831323D01*
X136139463Y-102811611D01*
X136159139Y-102795094D01*
X136179897Y-102780993D01*
X136203027Y-102768522D01*
X136229810Y-102756904D01*
X136261536Y-102745356D01*
X136263916Y-102744550D01*
X136318805Y-102727649D01*
X136376323Y-102713173D01*
X136437317Y-102700951D01*
X136502635Y-102690812D01*
X136573125Y-102682587D01*
X136578760Y-102682013D01*
X136618468Y-102677213D01*
X136652586Y-102671559D01*
X136681684Y-102664869D01*
X136706333Y-102656968D01*
X136727102Y-102647675D01*
X136744561Y-102636813D01*
X136759283Y-102624200D01*
X136765018Y-102618185D01*
X136772961Y-102608127D01*
X136778754Y-102597455D01*
X136782711Y-102585045D01*
X136785148Y-102569769D01*
X136786379Y-102550504D01*
X136786720Y-102526122D01*
X136786564Y-102509643D01*
X136784886Y-102474664D01*
X136781229Y-102445016D01*
X136775418Y-102420213D01*
X136767278Y-102399768D01*
X136756638Y-102383195D01*
X136743320Y-102370006D01*
X136727153Y-102359714D01*
X136723330Y-102357808D01*
X136714192Y-102353728D01*
X136704804Y-102350438D01*
X136694413Y-102347854D01*
X136682268Y-102345897D01*
X136667616Y-102344486D01*
X136649706Y-102343539D01*
X136627785Y-102342975D01*
X136601101Y-102342716D01*
X136568904Y-102342677D01*
X136562770Y-102342686D01*
X136535378Y-102342755D01*
X136513299Y-102342901D01*
X136495740Y-102343165D01*
X136481902Y-102343594D01*
X136470990Y-102344227D01*
X136462208Y-102345113D01*
X136454759Y-102346291D01*
X136447847Y-102347807D01*
X136440677Y-102349704D01*
X136419604Y-102356618D01*
X136399927Y-102366361D01*
X136384781Y-102378744D01*
X136373382Y-102394631D01*
X136364942Y-102414893D01*
X136358680Y-102440399D01*
X136358256Y-102442742D01*
X136356207Y-102458170D01*
X136354764Y-102475853D01*
X136354216Y-102492414D01*
X136354149Y-102498667D01*
X136352781Y-102516776D01*
X136349322Y-102530399D01*
X136343342Y-102540766D01*
X136334409Y-102549111D01*
X136333700Y-102549622D01*
X136331164Y-102551192D01*
X136328033Y-102552469D01*
X136323676Y-102553492D01*
X136317462Y-102554296D01*
X136308763Y-102554918D01*
X136296948Y-102555395D01*
X136281385Y-102555764D01*
X136261446Y-102556061D01*
X136236498Y-102556323D01*
X136205913Y-102556585D01*
X136199443Y-102556636D01*
X136165416Y-102556790D01*
X136136372Y-102556721D01*
X136112569Y-102556433D01*
X136094262Y-102555932D01*
X136081708Y-102555221D01*
X136075162Y-102554306D01*
X136073425Y-102553719D01*
X136063595Y-102548509D01*
X136054791Y-102541372D01*
X136045518Y-102531703D01*
X136044496Y-102484106D01*
X136044320Y-102468514D01*
X136046219Y-102418379D01*
X136052060Y-102372584D01*
X136061954Y-102330630D01*
X136076012Y-102292021D01*
X136094338Y-102256259D01*
X136110575Y-102231618D01*
X136138767Y-102198198D01*
X136171533Y-102168986D01*
X136208773Y-102144047D01*
X136250392Y-102123442D01*
X136296289Y-102107234D01*
X136346369Y-102095484D01*
X136352541Y-102094382D01*
X136360264Y-102093116D01*
X136368018Y-102092051D01*
X136376370Y-102091168D01*
X136385890Y-102090452D01*
X136397141Y-102089884D01*
X136410691Y-102089448D01*
X136427110Y-102089126D01*
X136446961Y-102088902D01*
X136470812Y-102088757D01*
X136499230Y-102088675D01*
X136532784Y-102088638D01*
X136572037Y-102088630D01*
X136609497Y-102088642D01*
G37*
G36*
X142775407Y-102397651D02*
G01*
X142775415Y-102443755D01*
X142775403Y-102494664D01*
X142775372Y-102550623D01*
X142775325Y-102611876D01*
X142775263Y-102678666D01*
X142775188Y-102751237D01*
X142775102Y-102829829D01*
X142775031Y-102892054D01*
X142774944Y-102965840D01*
X142774857Y-103033791D01*
X142774768Y-103096151D01*
X142774676Y-103153163D01*
X142774577Y-103205072D01*
X142774470Y-103252119D01*
X142774353Y-103294548D01*
X142774224Y-103332602D01*
X142774081Y-103366523D01*
X142773920Y-103396557D01*
X142773740Y-103422943D01*
X142773538Y-103445929D01*
X142773314Y-103465754D01*
X142773063Y-103482664D01*
X142772785Y-103496900D01*
X142772477Y-103508706D01*
X142772138Y-103518326D01*
X142771763Y-103526001D01*
X142771351Y-103531977D01*
X142770902Y-103536495D01*
X142770411Y-103539800D01*
X142769877Y-103542132D01*
X142769299Y-103543738D01*
X142768671Y-103544858D01*
X142768658Y-103544877D01*
X142761731Y-103552184D01*
X142753001Y-103558106D01*
X142752757Y-103558224D01*
X142749355Y-103559481D01*
X142744555Y-103560506D01*
X142737753Y-103561321D01*
X142728337Y-103561952D01*
X142715699Y-103562418D01*
X142699230Y-103562746D01*
X142678319Y-103562957D01*
X142652359Y-103563072D01*
X142620741Y-103563120D01*
X142607559Y-103563124D01*
X142576676Y-103563094D01*
X142551250Y-103562931D01*
X142530697Y-103562546D01*
X142514426Y-103561856D01*
X142501850Y-103560775D01*
X142492383Y-103559216D01*
X142485436Y-103557094D01*
X142480421Y-103554323D01*
X142476752Y-103550817D01*
X142473839Y-103546491D01*
X142471094Y-103541257D01*
X142470910Y-103540878D01*
X142469926Y-103538436D01*
X142469073Y-103535234D01*
X142468339Y-103530850D01*
X142467715Y-103524857D01*
X142467195Y-103516836D01*
X142466767Y-103506360D01*
X142466423Y-103493005D01*
X142466153Y-103476347D01*
X142465951Y-103455967D01*
X142465806Y-103431434D01*
X142465707Y-103402331D01*
X142465647Y-103368228D01*
X142465619Y-103328706D01*
X142465610Y-103283340D01*
X142465605Y-103036391D01*
X142450122Y-103020908D01*
X142273986Y-103022573D01*
X142151965Y-103271730D01*
X142135801Y-103304739D01*
X142115869Y-103345454D01*
X142098404Y-103381131D01*
X142083232Y-103412113D01*
X142070181Y-103438738D01*
X142059078Y-103461349D01*
X142049749Y-103480285D01*
X142042024Y-103495887D01*
X142035726Y-103508494D01*
X142030685Y-103518449D01*
X142026730Y-103526092D01*
X142023684Y-103531762D01*
X142021376Y-103535800D01*
X142019633Y-103538549D01*
X142018283Y-103540345D01*
X142017152Y-103541533D01*
X142016068Y-103542452D01*
X142014858Y-103543441D01*
X142013349Y-103544842D01*
X142013055Y-103545135D01*
X142008466Y-103549350D01*
X142003528Y-103552856D01*
X141997651Y-103555718D01*
X141990241Y-103557999D01*
X141980709Y-103559767D01*
X141968459Y-103561085D01*
X141952902Y-103562018D01*
X141933444Y-103562630D01*
X141909495Y-103562988D01*
X141880461Y-103563155D01*
X141845753Y-103563196D01*
X141837638Y-103563195D01*
X141806772Y-103563151D01*
X141781436Y-103563032D01*
X141761032Y-103562816D01*
X141744962Y-103562482D01*
X141732629Y-103562007D01*
X141723436Y-103561370D01*
X141716785Y-103560550D01*
X141712076Y-103559525D01*
X141708713Y-103558275D01*
X141705734Y-103556687D01*
X141696455Y-103547869D01*
X141692434Y-103535901D01*
X141693870Y-103521274D01*
X141693914Y-103521123D01*
X141696017Y-103516097D01*
X141700750Y-103505934D01*
X141707908Y-103491054D01*
X141717283Y-103471871D01*
X141728669Y-103448803D01*
X141741858Y-103422267D01*
X141756644Y-103392677D01*
X141772819Y-103360452D01*
X141790177Y-103326008D01*
X141808509Y-103289761D01*
X141827612Y-103252128D01*
X141829782Y-103247858D01*
X141848692Y-103210614D01*
X141866746Y-103174974D01*
X141883743Y-103141335D01*
X141899485Y-103110092D01*
X141913773Y-103081649D01*
X141926407Y-103056398D01*
X141937190Y-103034741D01*
X141945919Y-103017075D01*
X141952399Y-103003797D01*
X141956426Y-102995307D01*
X141957806Y-102992003D01*
X141957778Y-102991807D01*
X141954627Y-102988537D01*
X141947267Y-102983928D01*
X141937168Y-102978914D01*
X141912724Y-102966887D01*
X141874766Y-102943001D01*
X141841398Y-102914869D01*
X141812706Y-102882589D01*
X141788773Y-102846264D01*
X141769683Y-102805994D01*
X141755521Y-102761880D01*
X141754657Y-102758426D01*
X141751416Y-102744288D01*
X141748728Y-102730055D01*
X141746553Y-102715044D01*
X141744855Y-102698566D01*
X141743592Y-102679937D01*
X141742728Y-102658472D01*
X141742223Y-102633484D01*
X141742041Y-102604288D01*
X141742139Y-102570199D01*
X141742197Y-102563437D01*
X142053478Y-102563437D01*
X142053486Y-102582353D01*
X142053545Y-102611290D01*
X142053685Y-102634971D01*
X142053930Y-102654051D01*
X142054304Y-102669175D01*
X142054833Y-102680993D01*
X142055542Y-102690153D01*
X142056455Y-102697306D01*
X142057596Y-102703098D01*
X142058990Y-102708179D01*
X142062284Y-102717294D01*
X142074316Y-102738301D01*
X142091291Y-102755606D01*
X142113000Y-102769026D01*
X142139232Y-102778376D01*
X142142752Y-102779207D01*
X142149130Y-102780372D01*
X142156885Y-102781340D01*
X142166628Y-102782134D01*
X142178970Y-102782775D01*
X142194521Y-102783289D01*
X142213896Y-102783698D01*
X142237704Y-102784026D01*
X142266557Y-102784294D01*
X142301068Y-102784529D01*
X142323262Y-102784642D01*
X142351366Y-102784730D01*
X142377208Y-102784747D01*
X142400122Y-102784697D01*
X142419437Y-102784582D01*
X142434487Y-102784406D01*
X142444606Y-102784171D01*
X142449124Y-102783881D01*
X142451688Y-102783348D01*
X142454529Y-102782555D01*
X142456955Y-102781220D01*
X142458999Y-102778903D01*
X142460692Y-102775163D01*
X142462069Y-102769559D01*
X142463161Y-102761652D01*
X142464002Y-102750999D01*
X142464623Y-102737164D01*
X142465061Y-102719702D01*
X142465344Y-102698174D01*
X142465507Y-102672140D01*
X142465583Y-102641160D01*
X142465605Y-102604793D01*
X142465605Y-102356306D01*
X142457694Y-102348395D01*
X142449784Y-102340484D01*
X142301776Y-102341628D01*
X142288602Y-102341730D01*
X142256304Y-102342001D01*
X142229452Y-102342275D01*
X142207444Y-102342579D01*
X142189676Y-102342945D01*
X142175546Y-102343398D01*
X142164451Y-102343969D01*
X142155788Y-102344684D01*
X142148954Y-102345574D01*
X142143346Y-102346665D01*
X142138361Y-102347987D01*
X142133397Y-102349569D01*
X142120844Y-102354216D01*
X142099154Y-102365476D01*
X142082197Y-102379733D01*
X142069119Y-102397805D01*
X142059064Y-102420510D01*
X142058019Y-102423758D01*
X142056799Y-102428731D01*
X142055816Y-102434846D01*
X142055046Y-102442743D01*
X142054463Y-102453062D01*
X142054041Y-102466447D01*
X142053758Y-102483536D01*
X142053586Y-102504969D01*
X142053501Y-102531390D01*
X142053478Y-102563437D01*
X141742197Y-102563437D01*
X141742481Y-102530530D01*
X141742604Y-102518954D01*
X141742969Y-102487780D01*
X141743341Y-102461950D01*
X141743757Y-102440772D01*
X141744252Y-102423549D01*
X141744860Y-102409589D01*
X141745616Y-102398198D01*
X141746555Y-102388678D01*
X141747712Y-102380340D01*
X141749123Y-102372487D01*
X141750820Y-102364425D01*
X141759980Y-102330001D01*
X141776641Y-102286660D01*
X141798114Y-102247270D01*
X141824335Y-102211919D01*
X141855235Y-102180692D01*
X141890748Y-102153677D01*
X141930805Y-102130960D01*
X141948961Y-102122674D01*
X141979296Y-102111249D01*
X142011932Y-102102037D01*
X142048811Y-102094434D01*
X142051663Y-102093943D01*
X142057317Y-102093070D01*
X142063434Y-102092296D01*
X142070402Y-102091619D01*
X142078607Y-102091029D01*
X142088435Y-102090522D01*
X142100277Y-102090091D01*
X142114516Y-102089731D01*
X142131541Y-102089434D01*
X142151738Y-102089195D01*
X142175494Y-102089008D01*
X142203196Y-102088868D01*
X142235232Y-102088765D01*
X142271988Y-102088697D01*
X142313850Y-102088655D01*
X142361208Y-102088636D01*
X142414445Y-102088630D01*
X142456495Y-102088631D01*
X142504686Y-102088637D01*
X142547253Y-102088656D01*
X142584556Y-102088695D01*
X142616957Y-102088760D01*
X142644814Y-102088858D01*
X142668490Y-102088996D01*
X142688344Y-102089182D01*
X142704739Y-102089420D01*
X142718033Y-102089720D01*
X142728588Y-102090088D01*
X142736764Y-102090529D01*
X142742922Y-102091051D01*
X142747422Y-102091662D01*
X142750624Y-102092367D01*
X142752891Y-102093174D01*
X142754582Y-102094089D01*
X142756056Y-102095121D01*
X142756558Y-102095498D01*
X142764185Y-102103181D01*
X142770401Y-102112358D01*
X142770739Y-102113082D01*
X142771324Y-102114766D01*
X142771861Y-102117113D01*
X142772354Y-102120369D01*
X142772803Y-102124775D01*
X142773210Y-102130576D01*
X142773577Y-102138015D01*
X142773906Y-102147335D01*
X142774197Y-102158781D01*
X142774452Y-102172596D01*
X142774673Y-102189024D01*
X142774863Y-102208309D01*
X142775021Y-102230694D01*
X142775151Y-102256423D01*
X142775252Y-102285739D01*
X142775328Y-102318888D01*
X142775379Y-102356109D01*
X142775379Y-102356306D01*
X142775407Y-102397651D01*
G37*
G36*
X146188654Y-102529661D02*
G01*
X146187744Y-102549977D01*
X146184062Y-102566961D01*
X146182655Y-102570762D01*
X146171002Y-102592833D01*
X146155035Y-102611737D01*
X146135705Y-102626858D01*
X146113956Y-102637577D01*
X146090735Y-102643278D01*
X146066988Y-102643341D01*
X146057333Y-102641769D01*
X146032441Y-102634025D01*
X146010639Y-102621845D01*
X145992380Y-102605925D01*
X145978115Y-102586956D01*
X145968297Y-102565635D01*
X145963375Y-102542654D01*
X145963659Y-102526806D01*
X146030414Y-102526806D01*
X146031680Y-102541178D01*
X146036304Y-102552581D01*
X146046267Y-102566103D01*
X146059212Y-102574786D01*
X146067869Y-102577534D01*
X146083536Y-102577925D01*
X146098168Y-102572249D01*
X146111312Y-102560627D01*
X146116059Y-102553900D01*
X146121638Y-102538779D01*
X146121695Y-102523005D01*
X146116345Y-102507909D01*
X146105701Y-102494825D01*
X146094059Y-102486436D01*
X146081972Y-102482554D01*
X146068260Y-102483299D01*
X146067428Y-102483465D01*
X146053731Y-102489224D01*
X146042372Y-102499352D01*
X146034289Y-102512373D01*
X146030414Y-102526806D01*
X145963659Y-102526806D01*
X145963804Y-102518707D01*
X145970036Y-102494488D01*
X145970594Y-102493013D01*
X145972289Y-102487964D01*
X145973668Y-102482419D01*
X145974782Y-102475657D01*
X145975681Y-102466957D01*
X145976415Y-102455597D01*
X145977032Y-102440857D01*
X145977582Y-102422011D01*
X145978117Y-102398342D01*
X145978684Y-102369127D01*
X145980699Y-102261002D01*
X145989591Y-102237563D01*
X145996192Y-102221756D01*
X146013234Y-102191277D01*
X146034373Y-102165403D01*
X146059906Y-102143808D01*
X146090126Y-102126163D01*
X146096143Y-102123370D01*
X146111243Y-102117130D01*
X146125726Y-102112057D01*
X146137137Y-102109046D01*
X146141618Y-102108533D01*
X146150876Y-102108007D01*
X146164657Y-102107552D01*
X146183137Y-102107168D01*
X146206492Y-102106853D01*
X146234893Y-102106606D01*
X146268514Y-102106426D01*
X146307534Y-102106313D01*
X146352123Y-102106263D01*
X146402458Y-102106278D01*
X146458711Y-102106355D01*
X146521058Y-102106494D01*
X146886173Y-102107433D01*
X146907302Y-102115654D01*
X146926944Y-102124263D01*
X146958173Y-102142794D01*
X146984821Y-102165373D01*
X147006672Y-102191769D01*
X147023513Y-102221749D01*
X147035129Y-102255078D01*
X147035985Y-102258543D01*
X147037067Y-102263531D01*
X147037990Y-102269006D01*
X147038770Y-102275452D01*
X147039416Y-102283348D01*
X147039944Y-102293176D01*
X147040362Y-102305420D01*
X147040688Y-102320560D01*
X147040928Y-102339076D01*
X147041097Y-102361453D01*
X147041208Y-102388171D01*
X147041273Y-102419712D01*
X147041302Y-102456558D01*
X147041308Y-102499190D01*
X147041306Y-102529706D01*
X147041284Y-102568231D01*
X147041232Y-102601307D01*
X147041137Y-102629415D01*
X147040986Y-102653040D01*
X147040767Y-102672661D01*
X147040469Y-102688759D01*
X147040080Y-102701817D01*
X147039586Y-102712318D01*
X147038976Y-102720741D01*
X147038237Y-102727569D01*
X147037357Y-102733285D01*
X147036325Y-102738368D01*
X147035129Y-102743302D01*
X147025213Y-102772705D01*
X147009198Y-102802965D01*
X146988489Y-102829612D01*
X146963525Y-102852089D01*
X146934751Y-102869835D01*
X146929680Y-102872393D01*
X146923414Y-102875583D01*
X146917620Y-102878418D01*
X146911923Y-102880920D01*
X146905950Y-102883106D01*
X146899325Y-102885002D01*
X146891674Y-102886624D01*
X146882623Y-102887997D01*
X146871798Y-102889139D01*
X146858823Y-102890073D01*
X146843325Y-102890817D01*
X146824928Y-102891396D01*
X146803258Y-102891828D01*
X146777942Y-102892134D01*
X146748605Y-102892336D01*
X146714872Y-102892454D01*
X146676368Y-102892510D01*
X146632720Y-102892525D01*
X146583552Y-102892517D01*
X146528491Y-102892510D01*
X146522790Y-102892511D01*
X146477115Y-102892532D01*
X146433205Y-102892586D01*
X146391470Y-102892670D01*
X146352320Y-102892781D01*
X146316163Y-102892918D01*
X146283409Y-102893079D01*
X146254468Y-102893262D01*
X146229748Y-102893463D01*
X146209659Y-102893682D01*
X146194611Y-102893914D01*
X146185011Y-102894158D01*
X146181271Y-102894412D01*
X146180264Y-102895255D01*
X146179379Y-102897312D01*
X146178636Y-102901031D01*
X146178020Y-102906875D01*
X146177522Y-102915303D01*
X146177130Y-102926774D01*
X146176830Y-102941752D01*
X146176612Y-102960695D01*
X146176463Y-102984064D01*
X146176372Y-103012320D01*
X146176326Y-103045923D01*
X146176312Y-103085333D01*
X146176343Y-103119186D01*
X146176432Y-103151352D01*
X146176573Y-103181165D01*
X146176761Y-103208065D01*
X146176991Y-103231493D01*
X146177257Y-103250891D01*
X146177553Y-103265700D01*
X146177874Y-103275359D01*
X146178215Y-103279309D01*
X146178308Y-103279496D01*
X146179253Y-103280259D01*
X146181334Y-103280937D01*
X146184895Y-103281534D01*
X146190276Y-103282057D01*
X146197820Y-103282510D01*
X146207869Y-103282897D01*
X146220764Y-103283224D01*
X146236850Y-103283495D01*
X146256466Y-103283715D01*
X146279955Y-103283891D01*
X146307661Y-103284027D01*
X146339924Y-103284126D01*
X146377087Y-103284195D01*
X146419492Y-103284238D01*
X146467479Y-103284260D01*
X146521393Y-103284265D01*
X146862668Y-103284265D01*
X146862655Y-103201997D01*
X146862647Y-103188029D01*
X146862584Y-103166005D01*
X146862396Y-103148863D01*
X146862016Y-103135696D01*
X146861378Y-103125600D01*
X146860413Y-103117667D01*
X146859055Y-103110991D01*
X146857234Y-103104667D01*
X146854886Y-103097790D01*
X146849009Y-103075705D01*
X146848216Y-103062557D01*
X146914045Y-103062557D01*
X146914269Y-103063663D01*
X146919006Y-103076847D01*
X146926574Y-103088953D01*
X146935385Y-103097389D01*
X146936912Y-103098328D01*
X146951636Y-103103699D01*
X146966896Y-103103628D01*
X146981357Y-103098553D01*
X146993683Y-103088920D01*
X147002538Y-103075169D01*
X147002685Y-103074818D01*
X147006324Y-103059430D01*
X147004887Y-103044751D01*
X146999231Y-103031569D01*
X146990210Y-103020664D01*
X146978679Y-103012823D01*
X146965490Y-103008830D01*
X146951501Y-103009469D01*
X146937565Y-103015527D01*
X146936115Y-103016543D01*
X146926649Y-103026079D01*
X146919107Y-103038341D01*
X146914553Y-103051206D01*
X146914045Y-103062557D01*
X146848216Y-103062557D01*
X146847443Y-103049738D01*
X146851963Y-103024229D01*
X146853336Y-103019845D01*
X146861085Y-103001758D01*
X146872117Y-102985774D01*
X146887768Y-102969864D01*
X146896700Y-102962699D01*
X146917765Y-102951159D01*
X146940527Y-102944838D01*
X146964083Y-102943548D01*
X146987526Y-102947103D01*
X147009954Y-102955314D01*
X147030463Y-102967994D01*
X147048149Y-102984955D01*
X147062108Y-103006013D01*
X147068842Y-103024206D01*
X147072342Y-103047193D01*
X147072010Y-103059430D01*
X147071679Y-103071613D01*
X147066761Y-103095680D01*
X147065439Y-103100194D01*
X147063804Y-103106730D01*
X147062542Y-103113739D01*
X147061602Y-103122045D01*
X147060940Y-103132479D01*
X147060508Y-103145869D01*
X147060257Y-103163041D01*
X147060141Y-103184825D01*
X147060114Y-103212050D01*
X147060074Y-103232489D01*
X147059810Y-103260510D01*
X147059226Y-103283606D01*
X147058234Y-103302601D01*
X147056747Y-103318319D01*
X147054680Y-103331584D01*
X147051946Y-103343220D01*
X147048461Y-103354050D01*
X147044136Y-103364900D01*
X147036545Y-103380174D01*
X147019243Y-103405637D01*
X146997471Y-103429108D01*
X146972360Y-103449254D01*
X146962717Y-103455615D01*
X146947987Y-103463937D01*
X146933057Y-103470099D01*
X146914932Y-103475471D01*
X146911658Y-103476281D01*
X146907766Y-103477087D01*
X146903241Y-103477803D01*
X146897732Y-103478435D01*
X146890886Y-103478990D01*
X146882350Y-103479471D01*
X146871772Y-103479885D01*
X146858800Y-103480237D01*
X146843083Y-103480532D01*
X146824267Y-103480777D01*
X146802001Y-103480976D01*
X146775932Y-103481133D01*
X146745709Y-103481257D01*
X146710978Y-103481350D01*
X146671389Y-103481421D01*
X146626589Y-103481471D01*
X146576224Y-103481509D01*
X146519944Y-103481538D01*
X146492524Y-103481553D01*
X146437838Y-103481586D01*
X146388901Y-103481608D01*
X146345357Y-103481601D01*
X146306852Y-103481551D01*
X146273031Y-103481440D01*
X146243539Y-103481250D01*
X146218021Y-103480964D01*
X146196122Y-103480567D01*
X146177488Y-103480040D01*
X146161765Y-103479367D01*
X146148595Y-103478532D01*
X146137625Y-103477517D01*
X146128501Y-103476303D01*
X146120866Y-103474878D01*
X146114366Y-103473221D01*
X146108647Y-103471318D01*
X146103354Y-103469149D01*
X146098130Y-103466699D01*
X146092623Y-103463953D01*
X146086476Y-103460889D01*
X146064185Y-103447655D01*
X146039586Y-103427211D01*
X146018017Y-103402766D01*
X146000488Y-103375491D01*
X145988007Y-103346557D01*
X145980435Y-103323442D01*
X145980435Y-103084798D01*
X145980443Y-103041107D01*
X145980473Y-103003200D01*
X145980534Y-102970629D01*
X145980638Y-102942944D01*
X145980794Y-102919699D01*
X145981014Y-102900440D01*
X145981309Y-102884723D01*
X145981686Y-102872095D01*
X145982158Y-102862111D01*
X145982737Y-102854318D01*
X145983430Y-102848269D01*
X145984248Y-102843516D01*
X145985203Y-102839609D01*
X145986306Y-102836098D01*
X145992191Y-102820550D01*
X146008972Y-102788085D01*
X146030299Y-102759875D01*
X146056008Y-102736088D01*
X146085929Y-102716891D01*
X146119900Y-102702447D01*
X146120484Y-102702255D01*
X146123498Y-102701381D01*
X146127064Y-102700597D01*
X146131540Y-102699899D01*
X146137281Y-102699280D01*
X146144647Y-102698731D01*
X146153993Y-102698246D01*
X146165678Y-102697818D01*
X146180057Y-102697439D01*
X146197490Y-102697104D01*
X146218332Y-102696802D01*
X146242942Y-102696531D01*
X146271676Y-102696279D01*
X146304891Y-102696042D01*
X146342946Y-102695812D01*
X146386197Y-102695581D01*
X146435002Y-102695345D01*
X146489717Y-102695093D01*
X146842296Y-102693500D01*
X146843163Y-102505457D01*
X146843286Y-102472764D01*
X146843356Y-102440484D01*
X146843366Y-102410488D01*
X146843317Y-102383345D01*
X146843216Y-102359625D01*
X146843062Y-102339896D01*
X146842860Y-102324727D01*
X146842610Y-102314689D01*
X146842316Y-102310349D01*
X146840603Y-102303283D01*
X146509242Y-102304082D01*
X146177880Y-102304879D01*
X146177036Y-102386364D01*
X146176828Y-102409206D01*
X146176756Y-102429595D01*
X146176895Y-102445450D01*
X146177298Y-102457686D01*
X146178014Y-102467214D01*
X146179090Y-102474951D01*
X146180576Y-102481811D01*
X146182521Y-102488707D01*
X146186837Y-102508281D01*
X146188088Y-102523005D01*
X146188654Y-102529661D01*
G37*
G36*
X147595604Y-103241743D02*
G01*
X147595558Y-103304234D01*
X147595485Y-103361229D01*
X147595387Y-103412845D01*
X147595262Y-103459199D01*
X147595110Y-103500407D01*
X147594930Y-103536586D01*
X147594723Y-103567851D01*
X147594487Y-103594319D01*
X147594223Y-103616107D01*
X147593931Y-103633331D01*
X147593610Y-103646108D01*
X147593259Y-103654553D01*
X147592879Y-103658785D01*
X147585580Y-103689294D01*
X147570782Y-103728625D01*
X147550642Y-103765559D01*
X147525542Y-103799757D01*
X147495860Y-103830877D01*
X147461978Y-103858580D01*
X147424273Y-103882525D01*
X147383128Y-103902370D01*
X147338921Y-103917776D01*
X147292032Y-103928401D01*
X147291646Y-103928463D01*
X147287466Y-103928907D01*
X147280884Y-103929321D01*
X147271693Y-103929704D01*
X147259694Y-103930058D01*
X147244680Y-103930383D01*
X147226447Y-103930683D01*
X147204795Y-103930955D01*
X147179518Y-103931204D01*
X147150415Y-103931429D01*
X147117280Y-103931632D01*
X147079911Y-103931813D01*
X147038104Y-103931975D01*
X146991657Y-103932117D01*
X146940365Y-103932242D01*
X146884025Y-103932350D01*
X146822434Y-103932443D01*
X146755388Y-103932521D01*
X146682685Y-103932586D01*
X146604120Y-103932637D01*
X146519490Y-103932679D01*
X146514151Y-103932681D01*
X146432044Y-103932720D01*
X146355942Y-103932757D01*
X146285607Y-103932790D01*
X146220791Y-103932812D01*
X146161249Y-103932817D01*
X146106737Y-103932798D01*
X146057012Y-103932751D01*
X146011827Y-103932669D01*
X145970940Y-103932547D01*
X145934106Y-103932379D01*
X145901079Y-103932159D01*
X145871617Y-103931882D01*
X145845472Y-103931541D01*
X145822403Y-103931129D01*
X145802163Y-103930643D01*
X145784510Y-103930076D01*
X145769198Y-103929423D01*
X145755981Y-103928676D01*
X145744617Y-103927831D01*
X145734861Y-103926882D01*
X145726470Y-103925823D01*
X145719195Y-103924647D01*
X145712794Y-103923351D01*
X145707025Y-103921927D01*
X145701640Y-103920368D01*
X145696397Y-103918671D01*
X145691050Y-103916829D01*
X145685354Y-103914836D01*
X145679065Y-103912687D01*
X145673912Y-103910929D01*
X145628081Y-103892053D01*
X145586581Y-103868834D01*
X145549544Y-103841382D01*
X145517103Y-103809810D01*
X145489390Y-103774228D01*
X145466540Y-103734751D01*
X145462682Y-103726899D01*
X145457504Y-103716103D01*
X145453122Y-103706209D01*
X145449464Y-103696620D01*
X145446463Y-103686738D01*
X145444048Y-103675967D01*
X145442149Y-103663706D01*
X145440695Y-103649360D01*
X145439617Y-103632332D01*
X145438845Y-103612022D01*
X145438309Y-103587836D01*
X145437938Y-103559173D01*
X145437663Y-103525438D01*
X145437415Y-103486033D01*
X145436380Y-103316416D01*
X145443580Y-103314487D01*
X145445030Y-103314245D01*
X145452504Y-103313701D01*
X145464806Y-103313232D01*
X145480919Y-103312860D01*
X145499827Y-103312612D01*
X145520514Y-103312514D01*
X145590247Y-103312473D01*
X145590272Y-103242739D01*
X145590298Y-103173007D01*
X145627881Y-103153208D01*
X145631689Y-103151190D01*
X145644940Y-103143956D01*
X145655664Y-103137777D01*
X145662844Y-103133254D01*
X145665464Y-103130989D01*
X145664972Y-103130573D01*
X145659959Y-103127889D01*
X145649965Y-103123017D01*
X145635517Y-103116203D01*
X145617147Y-103107691D01*
X145595383Y-103097725D01*
X145570755Y-103086551D01*
X145543795Y-103074412D01*
X145515030Y-103061553D01*
X145502826Y-103056110D01*
X145474753Y-103043537D01*
X145448705Y-103031799D01*
X145425211Y-103021139D01*
X145404803Y-103011800D01*
X145388006Y-103004025D01*
X145375354Y-102998059D01*
X145367373Y-102994141D01*
X145365749Y-102993192D01*
X145549605Y-102993192D01*
X145549730Y-102993333D01*
X145553638Y-102995464D01*
X145562619Y-102999831D01*
X145576130Y-103006183D01*
X145593631Y-103014273D01*
X145614578Y-103023848D01*
X145638430Y-103034662D01*
X145664642Y-103046465D01*
X145692675Y-103059007D01*
X145698547Y-103061629D01*
X145726308Y-103074083D01*
X145752172Y-103085788D01*
X145775591Y-103096487D01*
X145796016Y-103105928D01*
X145812902Y-103113853D01*
X145825697Y-103120009D01*
X145833856Y-103124142D01*
X145836828Y-103125997D01*
X145835576Y-103127282D01*
X145829488Y-103131271D01*
X145818919Y-103137502D01*
X145804508Y-103145617D01*
X145786890Y-103155262D01*
X145766703Y-103166078D01*
X145744585Y-103177708D01*
X145651360Y-103226287D01*
X145650489Y-103269379D01*
X145649617Y-103312473D01*
X145725705Y-103312520D01*
X145740668Y-103312577D01*
X145760743Y-103312814D01*
X145778193Y-103313206D01*
X145792105Y-103313728D01*
X145801572Y-103314346D01*
X145805681Y-103315036D01*
X145806227Y-103315801D01*
X145807119Y-103319483D01*
X145807878Y-103326470D01*
X145808516Y-103337185D01*
X145809049Y-103352052D01*
X145809488Y-103371495D01*
X145809846Y-103395935D01*
X145810140Y-103425798D01*
X145810382Y-103461505D01*
X145811196Y-103605505D01*
X146515669Y-103606296D01*
X146518126Y-103606298D01*
X146599013Y-103606383D01*
X146673846Y-103606447D01*
X146742830Y-103606491D01*
X146806176Y-103606513D01*
X146864086Y-103606513D01*
X146916771Y-103606487D01*
X146964437Y-103606439D01*
X147007292Y-103606365D01*
X147045541Y-103606265D01*
X147079394Y-103606137D01*
X147109055Y-103605981D01*
X147134734Y-103605796D01*
X147156637Y-103605582D01*
X147174970Y-103605336D01*
X147189943Y-103605058D01*
X147201761Y-103604748D01*
X147210631Y-103604405D01*
X147216763Y-103604027D01*
X147220360Y-103603612D01*
X147221631Y-103603162D01*
X147221716Y-103601612D01*
X147221837Y-103594224D01*
X147221950Y-103581005D01*
X147222053Y-103562213D01*
X147222146Y-103538115D01*
X147222230Y-103508970D01*
X147222302Y-103475045D01*
X147222366Y-103436601D01*
X147222419Y-103393900D01*
X147222461Y-103347206D01*
X147222492Y-103296783D01*
X147222512Y-103242892D01*
X147222520Y-103185796D01*
X147222518Y-103125759D01*
X147222503Y-103063043D01*
X147222475Y-102997912D01*
X147222435Y-102930629D01*
X147222384Y-102861455D01*
X147222320Y-102790656D01*
X147221516Y-101982073D01*
X145811196Y-101982073D01*
X145810382Y-102128589D01*
X145809568Y-102275105D01*
X145731248Y-102275105D01*
X145713870Y-102275125D01*
X145694110Y-102275200D01*
X145677224Y-102275321D01*
X145664061Y-102275483D01*
X145655470Y-102275675D01*
X145652299Y-102275889D01*
X145652201Y-102276598D01*
X145651888Y-102282307D01*
X145651476Y-102292970D01*
X145650996Y-102307683D01*
X145650476Y-102325536D01*
X145649948Y-102345622D01*
X145648227Y-102414571D01*
X145601999Y-102433209D01*
X145591948Y-102437306D01*
X145577604Y-102443316D01*
X145566159Y-102448319D01*
X145558589Y-102451885D01*
X145555873Y-102453581D01*
X145556033Y-102453732D01*
X145560093Y-102455869D01*
X145569215Y-102460244D01*
X145582854Y-102466607D01*
X145600471Y-102474710D01*
X145621524Y-102484306D01*
X145645470Y-102495144D01*
X145671769Y-102506979D01*
X145699880Y-102519561D01*
X145706916Y-102522705D01*
X145734530Y-102535123D01*
X145760126Y-102546751D01*
X145783173Y-102557340D01*
X145803141Y-102566639D01*
X145819498Y-102574403D01*
X145831713Y-102580381D01*
X145839255Y-102584323D01*
X145841596Y-102585983D01*
X145840202Y-102586791D01*
X145833745Y-102590003D01*
X145822689Y-102595292D01*
X145807722Y-102602343D01*
X145789529Y-102610840D01*
X145768796Y-102620465D01*
X145746210Y-102630903D01*
X145722457Y-102641838D01*
X145698222Y-102652953D01*
X145674190Y-102663932D01*
X145651050Y-102674460D01*
X145629487Y-102684221D01*
X145610186Y-102692895D01*
X145593835Y-102700171D01*
X145587298Y-102703093D01*
X145573372Y-102709586D01*
X145562178Y-102715175D01*
X145554729Y-102719345D01*
X145552036Y-102721576D01*
X145553288Y-102722542D01*
X145559569Y-102725924D01*
X145570615Y-102731380D01*
X145585844Y-102738638D01*
X145604673Y-102747422D01*
X145626521Y-102757462D01*
X145650805Y-102768482D01*
X145676943Y-102780210D01*
X145712310Y-102796004D01*
X145742814Y-102809663D01*
X145768388Y-102821161D01*
X145789439Y-102830689D01*
X145806370Y-102838435D01*
X145819587Y-102844588D01*
X145829491Y-102849334D01*
X145836492Y-102852865D01*
X145840991Y-102855367D01*
X145843393Y-102857026D01*
X145844104Y-102858036D01*
X145842176Y-102860061D01*
X145836497Y-102862916D01*
X145833002Y-102864338D01*
X145823365Y-102868465D01*
X145809581Y-102874510D01*
X145792309Y-102882174D01*
X145772205Y-102891156D01*
X145749930Y-102901162D01*
X145726140Y-102911889D01*
X145701491Y-102923040D01*
X145676643Y-102934316D01*
X145652254Y-102945419D01*
X145628979Y-102956050D01*
X145607479Y-102965909D01*
X145588411Y-102974699D01*
X145572431Y-102982122D01*
X145560198Y-102987877D01*
X145552370Y-102991666D01*
X145549605Y-102993192D01*
X145365749Y-102993192D01*
X145364596Y-102992518D01*
X145364861Y-102992277D01*
X145369286Y-102989927D01*
X145378743Y-102985365D01*
X145392698Y-102978840D01*
X145410610Y-102970598D01*
X145431945Y-102960883D01*
X145456164Y-102949943D01*
X145482733Y-102938023D01*
X145511112Y-102925371D01*
X145519621Y-102921587D01*
X145547632Y-102909106D01*
X145573747Y-102897435D01*
X145597419Y-102886819D01*
X145618099Y-102877507D01*
X145635239Y-102869746D01*
X145648291Y-102863780D01*
X145656710Y-102859861D01*
X145659945Y-102858233D01*
X145659749Y-102857934D01*
X145655511Y-102855478D01*
X145646245Y-102850829D01*
X145632477Y-102844230D01*
X145614728Y-102835927D01*
X145593524Y-102826162D01*
X145569387Y-102815178D01*
X145542842Y-102803220D01*
X145514414Y-102790533D01*
X145504481Y-102786111D01*
X145476532Y-102773596D01*
X145450586Y-102761861D01*
X145427177Y-102751158D01*
X145406836Y-102741733D01*
X145390098Y-102733837D01*
X145377497Y-102727718D01*
X145369567Y-102723623D01*
X145366840Y-102721802D01*
X145367061Y-102721548D01*
X145371341Y-102719075D01*
X145380667Y-102714383D01*
X145394498Y-102707727D01*
X145412293Y-102699357D01*
X145433513Y-102689527D01*
X145457617Y-102678489D01*
X145484066Y-102666496D01*
X145512317Y-102653800D01*
X145520026Y-102650348D01*
X145547868Y-102637829D01*
X145573780Y-102626098D01*
X145597218Y-102615407D01*
X145617640Y-102606006D01*
X145634505Y-102598148D01*
X145647267Y-102592079D01*
X145655388Y-102588054D01*
X145658321Y-102586322D01*
X145658054Y-102586013D01*
X145653622Y-102583497D01*
X145644166Y-102578783D01*
X145630216Y-102572119D01*
X145612304Y-102563749D01*
X145590963Y-102553923D01*
X145566721Y-102542886D01*
X145540113Y-102530886D01*
X145511669Y-102518170D01*
X145502296Y-102513995D01*
X145474267Y-102501457D01*
X145448168Y-102489710D01*
X145424542Y-102479005D01*
X145403932Y-102469588D01*
X145386883Y-102461709D01*
X145373937Y-102455619D01*
X145365635Y-102451565D01*
X145362525Y-102449797D01*
X145362188Y-102449142D01*
X145362488Y-102445406D01*
X145362802Y-102445191D01*
X145365318Y-102443989D01*
X145370545Y-102441771D01*
X145378833Y-102438397D01*
X145390533Y-102433731D01*
X145405990Y-102427636D01*
X145425555Y-102419975D01*
X145449574Y-102410611D01*
X145478399Y-102399408D01*
X145512377Y-102386226D01*
X145551856Y-102370932D01*
X145590247Y-102356064D01*
X145590247Y-102275105D01*
X145436338Y-102275105D01*
X145438435Y-101928793D01*
X145446979Y-101901251D01*
X145462972Y-101859394D01*
X145484241Y-101820540D01*
X145510667Y-101785203D01*
X145542324Y-101753286D01*
X145579277Y-101724699D01*
X145612816Y-101703812D01*
X145653394Y-101683850D01*
X145695110Y-101669223D01*
X145739114Y-101659461D01*
X145740774Y-101659201D01*
X145744796Y-101658665D01*
X145749578Y-101658171D01*
X145755363Y-101657718D01*
X145762387Y-101657304D01*
X145770891Y-101656926D01*
X145781113Y-101656587D01*
X145793296Y-101656283D01*
X145807675Y-101656011D01*
X145824492Y-101655773D01*
X145843985Y-101655567D01*
X145866394Y-101655391D01*
X145891959Y-101655242D01*
X145920919Y-101655122D01*
X145953514Y-101655030D01*
X145989982Y-101654962D01*
X146030565Y-101654917D01*
X146075500Y-101654896D01*
X146125026Y-101654895D01*
X146179384Y-101654914D01*
X146238812Y-101654953D01*
X146303552Y-101655009D01*
X146373842Y-101655082D01*
X146449920Y-101655168D01*
X146532027Y-101655270D01*
X147293600Y-101656231D01*
X147324477Y-101664859D01*
X147359844Y-101676120D01*
X147406093Y-101695652D01*
X147447882Y-101719325D01*
X147485082Y-101747027D01*
X147517570Y-101778647D01*
X147545217Y-101814072D01*
X147567896Y-101853188D01*
X147585481Y-101895886D01*
X147594468Y-101922526D01*
X147595393Y-102781254D01*
X147595455Y-102842783D01*
X147595535Y-102934496D01*
X147595590Y-103020133D01*
X147595619Y-103099809D01*
X147595625Y-103173641D01*
X147595620Y-103185796D01*
X147595604Y-103241743D01*
G37*
%TO.C,kibuzzard-66404F66*%
G36*
X136340081Y-99500006D02*
G01*
X136371831Y-99503975D01*
X136371831Y-99799250D01*
X136328969Y-99799250D01*
X136242847Y-99789527D01*
X136184506Y-99760356D01*
X136140056Y-99650025D01*
X136151963Y-99582556D01*
X136187681Y-99535725D01*
X136242847Y-99508341D01*
X136313094Y-99499212D01*
X136340081Y-99500006D01*
G37*
G36*
X135532441Y-99506952D02*
G01*
X135584431Y-99573031D01*
X135608244Y-99640676D01*
X135622531Y-99726137D01*
X135627294Y-99829412D01*
X135622531Y-99933570D01*
X135608244Y-100019560D01*
X135584431Y-100087381D01*
X135532441Y-100153461D01*
X135462194Y-100175487D01*
X135460606Y-100174997D01*
X135390955Y-100153461D01*
X135339163Y-100087381D01*
X135315791Y-100019560D01*
X135301768Y-99933570D01*
X135297094Y-99829412D01*
X135297812Y-99813537D01*
X135373294Y-99813537D01*
X135397900Y-99887356D01*
X135460606Y-99918312D01*
X135525694Y-99887356D01*
X135549506Y-99813537D01*
X135525694Y-99738925D01*
X135460606Y-99707175D01*
X135397900Y-99738925D01*
X135373294Y-99813537D01*
X135297812Y-99813537D01*
X135301768Y-99726137D01*
X135315791Y-99640676D01*
X135339163Y-99573031D01*
X135390955Y-99506952D01*
X135462194Y-99484925D01*
X135532441Y-99506952D01*
G37*
G36*
X137403918Y-100674492D02*
G01*
X136897823Y-100674492D01*
X136567094Y-100674492D01*
X135876531Y-100674492D01*
X135462194Y-100674492D01*
X134666856Y-100674492D01*
X133542906Y-100674492D01*
X133212177Y-100674492D01*
X133106767Y-100323125D01*
X133542906Y-100323125D01*
X134139806Y-100323125D01*
X134139806Y-100197712D01*
X134525569Y-100197712D01*
X134568431Y-100304075D01*
X134666856Y-100340587D01*
X134720831Y-100331062D01*
X134766075Y-100303281D01*
X134797825Y-100258831D01*
X134809731Y-100197712D01*
X134797825Y-100138181D01*
X134766075Y-100094525D01*
X134720831Y-100067537D01*
X134666856Y-100058012D01*
X134568431Y-100094525D01*
X134525569Y-100197712D01*
X134139806Y-100197712D01*
X134139806Y-100161200D01*
X133933431Y-100161200D01*
X133933431Y-99829412D01*
X135120881Y-99829412D01*
X135126338Y-99951253D01*
X135142709Y-100056425D01*
X135169995Y-100144928D01*
X135208194Y-100216762D01*
X135275222Y-100287318D01*
X135359888Y-100329651D01*
X135462194Y-100343762D01*
X135564499Y-100329651D01*
X135577551Y-100323125D01*
X135876531Y-100323125D01*
X136081319Y-100323125D01*
X136120808Y-100229661D01*
X136166250Y-100139769D01*
X136216455Y-100051067D01*
X136270231Y-99961175D01*
X136371831Y-99961175D01*
X136371831Y-100323125D01*
X136567094Y-100323125D01*
X136567094Y-99354750D01*
X136504388Y-99342844D01*
X136435331Y-99334906D01*
X136368656Y-99330937D01*
X136313094Y-99329350D01*
X136232925Y-99334112D01*
X136160694Y-99348400D01*
X136097194Y-99372609D01*
X136043219Y-99407137D01*
X135967813Y-99507944D01*
X135948167Y-99574420D01*
X135941619Y-99651612D01*
X135950350Y-99733369D01*
X135976544Y-99807187D01*
X136022978Y-99868703D01*
X136092431Y-99913550D01*
X136035281Y-100004831D01*
X135976544Y-100109606D01*
X135921775Y-100219144D01*
X135876531Y-100323125D01*
X135577551Y-100323125D01*
X135649166Y-100287318D01*
X135716194Y-100216762D01*
X135754393Y-100144928D01*
X135781678Y-100056425D01*
X135798049Y-99951253D01*
X135803506Y-99829412D01*
X135797950Y-99708961D01*
X135781281Y-99604781D01*
X135753500Y-99516873D01*
X135714606Y-99445237D01*
X135647049Y-99374682D01*
X135562912Y-99332349D01*
X135462194Y-99318237D01*
X135359888Y-99332260D01*
X135275222Y-99374329D01*
X135208194Y-99444444D01*
X135169995Y-99515832D01*
X135142709Y-99603789D01*
X135126338Y-99708316D01*
X135120881Y-99829412D01*
X133933431Y-99829412D01*
X133933431Y-99611925D01*
X134035031Y-99668281D01*
X134131869Y-99707175D01*
X134195369Y-99545250D01*
X134112819Y-99508737D01*
X134023919Y-99459525D01*
X133939781Y-99402375D01*
X133871519Y-99340462D01*
X133738169Y-99340462D01*
X133738169Y-100161200D01*
X133542906Y-100161200D01*
X133542906Y-100323125D01*
X133106767Y-100323125D01*
X132706082Y-98987508D01*
X133212177Y-98987508D01*
X133542906Y-98987508D01*
X136567094Y-98987508D01*
X136897823Y-98987508D01*
X137403918Y-100674492D01*
G37*
%TD*%
M02*
