%TF.GenerationSoftware,KiCad,Pcbnew,8.0.1*%
%TF.CreationDate,2024-05-12T21:11:42+05:30*%
%TF.ProjectId,PBSEQ-D2,50425345-512d-4443-922e-6b696361645f,0.1*%
%TF.SameCoordinates,Original*%
%TF.FileFunction,Copper,L2,Bot*%
%TF.FilePolarity,Positive*%
%FSLAX46Y46*%
G04 Gerber Fmt 4.6, Leading zero omitted, Abs format (unit mm)*
G04 Created by KiCad (PCBNEW 8.0.1) date 2024-05-12 21:11:42*
%MOMM*%
%LPD*%
G01*
G04 APERTURE LIST*
%TA.AperFunction,ComponentPad*%
%ADD10R,1.700000X1.700000*%
%TD*%
%TA.AperFunction,ComponentPad*%
%ADD11O,1.700000X1.700000*%
%TD*%
%TA.AperFunction,ViaPad*%
%ADD12C,0.600000*%
%TD*%
%TA.AperFunction,Conductor*%
%ADD13C,0.300000*%
%TD*%
G04 APERTURE END LIST*
D10*
%TO.P,J3,1,Pin_1*%
%TO.N,Net-(J3-Pin_1)*%
X133077500Y-93370000D03*
D11*
%TO.P,J3,2,Pin_2*%
%TO.N,Net-(J3-Pin_2)*%
X135617500Y-93370000D03*
%TD*%
D10*
%TO.P,J1,1,Pin_1*%
%TO.N,GND*%
X144980000Y-93270000D03*
D11*
%TO.P,J1,2,Pin_2*%
%TO.N,VCC*%
X144980000Y-95810000D03*
%TD*%
D10*
%TO.P,J2,1,Pin_1*%
%TO.N,GND*%
X144980000Y-105770000D03*
D11*
%TO.P,J2,2,Pin_2*%
%TO.N,OUTPUT*%
X144980000Y-108310000D03*
%TD*%
D12*
%TO.N,Net-(Q1-G)*%
X137242500Y-98200000D03*
X137900000Y-101900000D03*
%TO.N,GND*%
X147600000Y-98200000D03*
X143200000Y-97000000D03*
X132600000Y-105200000D03*
X142000000Y-104600000D03*
X140200000Y-97800000D03*
X141800000Y-92800000D03*
X136800000Y-105800000D03*
X136600000Y-96000000D03*
X141800000Y-108000000D03*
X146800000Y-100800000D03*
%TO.N,Net-(J3-Pin_2)*%
X135500000Y-105200000D03*
%TO.N,OUTPUT*%
X140200000Y-99100000D03*
X142100000Y-106200000D03*
%TO.N,Net-(J3-Pin_1)*%
X133800000Y-101600000D03*
%TD*%
D13*
%TO.N,Net-(Q1-G)*%
X137242500Y-98200000D02*
X137242500Y-101242500D01*
X137242500Y-101242500D02*
X137900000Y-101900000D01*
%TO.N,Net-(J3-Pin_2)*%
X135500000Y-105200000D02*
X135500000Y-93487500D01*
X135500000Y-93487500D02*
X135617500Y-93370000D01*
%TO.N,OUTPUT*%
X140200000Y-104300000D02*
X142100000Y-106200000D01*
X140200000Y-99100000D02*
X140200000Y-104300000D01*
%TO.N,Net-(J3-Pin_1)*%
X133800000Y-101600000D02*
X133077500Y-100877500D01*
X133077500Y-100877500D02*
X133077500Y-93370000D01*
%TD*%
%TA.AperFunction,Conductor*%
%TO.N,GND*%
G36*
X143824375Y-91815185D02*
G01*
X143870130Y-91867989D01*
X143880074Y-91937147D01*
X143851049Y-92000703D01*
X143831647Y-92018767D01*
X143772809Y-92062813D01*
X143686649Y-92177906D01*
X143686645Y-92177913D01*
X143636403Y-92312620D01*
X143636401Y-92312627D01*
X143630000Y-92372155D01*
X143630000Y-93020000D01*
X144546988Y-93020000D01*
X144514075Y-93077007D01*
X144480000Y-93204174D01*
X144480000Y-93335826D01*
X144514075Y-93462993D01*
X144546988Y-93520000D01*
X143630000Y-93520000D01*
X143630000Y-94167844D01*
X143636401Y-94227372D01*
X143636403Y-94227379D01*
X143686645Y-94362086D01*
X143686649Y-94362093D01*
X143772809Y-94477187D01*
X143772812Y-94477190D01*
X143887906Y-94563350D01*
X143887913Y-94563354D01*
X144022620Y-94613596D01*
X144022627Y-94613598D01*
X144082155Y-94619999D01*
X144082172Y-94620000D01*
X144280634Y-94620000D01*
X144347673Y-94639685D01*
X144393428Y-94692489D01*
X144403372Y-94761647D01*
X144374347Y-94825203D01*
X144345911Y-94849427D01*
X144283701Y-94887945D01*
X144126127Y-95031593D01*
X143997632Y-95201746D01*
X143902596Y-95392605D01*
X143902596Y-95392607D01*
X143844244Y-95597689D01*
X143824571Y-95809999D01*
X143824571Y-95810000D01*
X143844244Y-96022310D01*
X143902596Y-96227392D01*
X143902596Y-96227394D01*
X143997632Y-96418253D01*
X143997634Y-96418255D01*
X144126128Y-96588407D01*
X144283698Y-96732052D01*
X144464981Y-96844298D01*
X144663802Y-96921321D01*
X144873390Y-96960500D01*
X144873392Y-96960500D01*
X145086608Y-96960500D01*
X145086610Y-96960500D01*
X145296198Y-96921321D01*
X145495019Y-96844298D01*
X145676302Y-96732052D01*
X145833872Y-96588407D01*
X145962366Y-96418255D01*
X146057405Y-96227389D01*
X146115756Y-96022310D01*
X146135429Y-95810000D01*
X146115756Y-95597690D01*
X146057405Y-95392611D01*
X146057403Y-95392606D01*
X146057403Y-95392605D01*
X145962367Y-95201746D01*
X145833872Y-95031593D01*
X145676302Y-94887948D01*
X145676299Y-94887946D01*
X145676298Y-94887945D01*
X145614089Y-94849427D01*
X145567453Y-94797399D01*
X145556349Y-94728418D01*
X145584302Y-94664383D01*
X145642437Y-94625627D01*
X145679366Y-94620000D01*
X145877828Y-94620000D01*
X145877844Y-94619999D01*
X145937372Y-94613598D01*
X145937379Y-94613596D01*
X146072086Y-94563354D01*
X146072093Y-94563350D01*
X146187187Y-94477190D01*
X146187190Y-94477187D01*
X146273350Y-94362093D01*
X146273354Y-94362086D01*
X146323596Y-94227379D01*
X146323598Y-94227372D01*
X146329999Y-94167844D01*
X146330000Y-94167827D01*
X146330000Y-93520000D01*
X145413012Y-93520000D01*
X145445925Y-93462993D01*
X145480000Y-93335826D01*
X145480000Y-93204174D01*
X145445925Y-93077007D01*
X145413012Y-93020000D01*
X146330000Y-93020000D01*
X146330000Y-92372172D01*
X146329999Y-92372155D01*
X146323598Y-92312627D01*
X146323596Y-92312620D01*
X146273354Y-92177913D01*
X146273350Y-92177906D01*
X146187190Y-92062813D01*
X146128353Y-92018767D01*
X146086482Y-91962833D01*
X146081498Y-91893141D01*
X146114983Y-91831818D01*
X146176307Y-91798334D01*
X146202664Y-91795500D01*
X148430500Y-91795500D01*
X148497539Y-91815185D01*
X148543294Y-91867989D01*
X148554500Y-91919500D01*
X148554500Y-109670500D01*
X148534815Y-109737539D01*
X148482011Y-109783294D01*
X148430500Y-109794500D01*
X130679500Y-109794500D01*
X130612461Y-109774815D01*
X130566706Y-109722011D01*
X130555500Y-109670500D01*
X130555500Y-94264856D01*
X131927000Y-94264856D01*
X131927002Y-94264882D01*
X131929913Y-94289987D01*
X131929915Y-94289991D01*
X131975293Y-94392764D01*
X131975294Y-94392765D01*
X132054735Y-94472206D01*
X132157509Y-94517585D01*
X132182635Y-94520500D01*
X132503000Y-94520499D01*
X132570039Y-94540183D01*
X132615794Y-94592987D01*
X132627000Y-94644499D01*
X132627000Y-100936809D01*
X132642410Y-100994320D01*
X132657699Y-101051384D01*
X132657701Y-101051387D01*
X132717011Y-101154114D01*
X132717013Y-101154116D01*
X133169317Y-101606420D01*
X133202802Y-101667743D01*
X133204575Y-101677915D01*
X133214955Y-101756761D01*
X133275463Y-101902839D01*
X133275464Y-101902841D01*
X133371718Y-102028282D01*
X133497159Y-102124536D01*
X133643238Y-102185044D01*
X133721619Y-102195363D01*
X133799999Y-102205682D01*
X133800000Y-102205682D01*
X133800001Y-102205682D01*
X133852254Y-102198802D01*
X133956762Y-102185044D01*
X134102841Y-102124536D01*
X134228282Y-102028282D01*
X134324536Y-101902841D01*
X134385044Y-101756762D01*
X134405682Y-101600000D01*
X134395033Y-101519116D01*
X134385044Y-101443239D01*
X134385044Y-101443238D01*
X134324536Y-101297159D01*
X134228282Y-101171718D01*
X134102841Y-101075464D01*
X134102839Y-101075463D01*
X133956761Y-101014955D01*
X133877915Y-101004575D01*
X133814018Y-100976308D01*
X133806420Y-100969317D01*
X133564319Y-100727216D01*
X133530834Y-100665893D01*
X133528000Y-100639535D01*
X133528000Y-94644499D01*
X133547685Y-94577460D01*
X133600489Y-94531705D01*
X133652000Y-94520499D01*
X133972356Y-94520499D01*
X133972364Y-94520499D01*
X133972379Y-94520497D01*
X133972382Y-94520497D01*
X133997487Y-94517586D01*
X133997488Y-94517585D01*
X133997491Y-94517585D01*
X134100265Y-94472206D01*
X134179706Y-94392765D01*
X134225085Y-94289991D01*
X134228000Y-94264865D01*
X134227999Y-93526046D01*
X134247683Y-93459009D01*
X134300487Y-93413254D01*
X134369646Y-93403310D01*
X134433202Y-93432335D01*
X134470976Y-93491113D01*
X134475470Y-93514606D01*
X134481744Y-93582310D01*
X134540096Y-93787392D01*
X134540096Y-93787394D01*
X134635132Y-93978253D01*
X134635134Y-93978255D01*
X134763628Y-94148407D01*
X134921198Y-94292052D01*
X134990779Y-94335135D01*
X135037413Y-94387160D01*
X135049500Y-94440560D01*
X135049500Y-104758580D01*
X135029815Y-104825619D01*
X135023876Y-104834066D01*
X134975464Y-104897157D01*
X134914956Y-105043237D01*
X134914955Y-105043239D01*
X134894318Y-105199998D01*
X134894318Y-105200001D01*
X134914955Y-105356760D01*
X134914956Y-105356762D01*
X134975464Y-105502841D01*
X135071718Y-105628282D01*
X135197159Y-105724536D01*
X135343238Y-105785044D01*
X135421619Y-105795363D01*
X135499999Y-105805682D01*
X135500000Y-105805682D01*
X135500001Y-105805682D01*
X135552254Y-105798802D01*
X135656762Y-105785044D01*
X135802841Y-105724536D01*
X135928282Y-105628282D01*
X136024536Y-105502841D01*
X136085044Y-105356762D01*
X136105682Y-105200000D01*
X136085044Y-105043238D01*
X136024536Y-104897159D01*
X136024535Y-104897158D01*
X136024535Y-104897157D01*
X135976124Y-104834066D01*
X135950930Y-104768896D01*
X135950500Y-104758580D01*
X135950500Y-98200001D01*
X136636818Y-98200001D01*
X136657455Y-98356760D01*
X136657457Y-98356765D01*
X136717961Y-98502836D01*
X136717964Y-98502841D01*
X136766376Y-98565933D01*
X136791570Y-98631102D01*
X136792000Y-98641419D01*
X136792000Y-101301809D01*
X136805968Y-101353937D01*
X136822701Y-101416387D01*
X136882011Y-101519114D01*
X136882013Y-101519116D01*
X137269317Y-101906420D01*
X137302802Y-101967743D01*
X137304575Y-101977915D01*
X137314955Y-102056761D01*
X137343029Y-102124536D01*
X137375464Y-102202841D01*
X137471718Y-102328282D01*
X137597159Y-102424536D01*
X137743238Y-102485044D01*
X137821619Y-102495363D01*
X137899999Y-102505682D01*
X137900000Y-102505682D01*
X137900001Y-102505682D01*
X137952254Y-102498802D01*
X138056762Y-102485044D01*
X138202841Y-102424536D01*
X138328282Y-102328282D01*
X138424536Y-102202841D01*
X138485044Y-102056762D01*
X138505682Y-101900000D01*
X138485044Y-101743238D01*
X138424536Y-101597159D01*
X138328282Y-101471718D01*
X138202841Y-101375464D01*
X138202839Y-101375463D01*
X138056761Y-101314955D01*
X137977915Y-101304575D01*
X137914018Y-101276308D01*
X137906420Y-101269317D01*
X137729319Y-101092216D01*
X137695834Y-101030893D01*
X137693000Y-101004535D01*
X137693000Y-99100001D01*
X139594318Y-99100001D01*
X139614955Y-99256760D01*
X139614957Y-99256765D01*
X139675461Y-99402836D01*
X139675464Y-99402841D01*
X139723876Y-99465933D01*
X139749070Y-99531102D01*
X139749500Y-99541419D01*
X139749500Y-104359308D01*
X139773712Y-104449672D01*
X139780200Y-104473885D01*
X139780200Y-104473886D01*
X139805267Y-104517303D01*
X139839511Y-104576614D01*
X139839513Y-104576616D01*
X141469317Y-106206421D01*
X141502802Y-106267744D01*
X141504575Y-106277916D01*
X141514955Y-106356761D01*
X141575463Y-106502839D01*
X141575464Y-106502841D01*
X141671718Y-106628282D01*
X141797159Y-106724536D01*
X141943238Y-106785044D01*
X142021619Y-106795363D01*
X142099999Y-106805682D01*
X142100000Y-106805682D01*
X142100001Y-106805682D01*
X142152254Y-106798802D01*
X142256762Y-106785044D01*
X142402841Y-106724536D01*
X142476724Y-106667844D01*
X143630000Y-106667844D01*
X143636401Y-106727372D01*
X143636403Y-106727379D01*
X143686645Y-106862086D01*
X143686649Y-106862093D01*
X143772809Y-106977187D01*
X143772812Y-106977190D01*
X143887906Y-107063350D01*
X143887913Y-107063354D01*
X144022620Y-107113596D01*
X144022627Y-107113598D01*
X144082155Y-107119999D01*
X144082172Y-107120000D01*
X144280634Y-107120000D01*
X144347673Y-107139685D01*
X144393428Y-107192489D01*
X144403372Y-107261647D01*
X144374347Y-107325203D01*
X144345911Y-107349427D01*
X144283701Y-107387945D01*
X144126127Y-107531593D01*
X143997632Y-107701746D01*
X143902596Y-107892605D01*
X143902596Y-107892607D01*
X143844244Y-108097689D01*
X143824571Y-108309999D01*
X143824571Y-108310000D01*
X143844244Y-108522310D01*
X143902596Y-108727392D01*
X143902596Y-108727394D01*
X143997632Y-108918253D01*
X143997634Y-108918255D01*
X144126128Y-109088407D01*
X144283698Y-109232052D01*
X144464981Y-109344298D01*
X144663802Y-109421321D01*
X144873390Y-109460500D01*
X144873392Y-109460500D01*
X145086608Y-109460500D01*
X145086610Y-109460500D01*
X145296198Y-109421321D01*
X145495019Y-109344298D01*
X145676302Y-109232052D01*
X145833872Y-109088407D01*
X145962366Y-108918255D01*
X146057405Y-108727389D01*
X146115756Y-108522310D01*
X146135429Y-108310000D01*
X146115756Y-108097690D01*
X146057405Y-107892611D01*
X146057403Y-107892606D01*
X146057403Y-107892605D01*
X145962367Y-107701746D01*
X145833872Y-107531593D01*
X145676302Y-107387948D01*
X145676299Y-107387946D01*
X145676298Y-107387945D01*
X145614089Y-107349427D01*
X145567453Y-107297399D01*
X145556349Y-107228418D01*
X145584302Y-107164383D01*
X145642437Y-107125627D01*
X145679366Y-107120000D01*
X145877828Y-107120000D01*
X145877844Y-107119999D01*
X145937372Y-107113598D01*
X145937379Y-107113596D01*
X146072086Y-107063354D01*
X146072093Y-107063350D01*
X146187187Y-106977190D01*
X146187190Y-106977187D01*
X146273350Y-106862093D01*
X146273354Y-106862086D01*
X146323596Y-106727379D01*
X146323598Y-106727372D01*
X146329999Y-106667844D01*
X146330000Y-106667827D01*
X146330000Y-106020000D01*
X145413012Y-106020000D01*
X145445925Y-105962993D01*
X145480000Y-105835826D01*
X145480000Y-105704174D01*
X145445925Y-105577007D01*
X145413012Y-105520000D01*
X146330000Y-105520000D01*
X146330000Y-104872172D01*
X146329999Y-104872155D01*
X146323598Y-104812627D01*
X146323596Y-104812620D01*
X146273354Y-104677913D01*
X146273350Y-104677906D01*
X146187190Y-104562812D01*
X146187187Y-104562809D01*
X146072093Y-104476649D01*
X146072086Y-104476645D01*
X145937379Y-104426403D01*
X145937372Y-104426401D01*
X145877844Y-104420000D01*
X145230000Y-104420000D01*
X145230000Y-105336988D01*
X145172993Y-105304075D01*
X145045826Y-105270000D01*
X144914174Y-105270000D01*
X144787007Y-105304075D01*
X144730000Y-105336988D01*
X144730000Y-104420000D01*
X144082155Y-104420000D01*
X144022627Y-104426401D01*
X144022620Y-104426403D01*
X143887913Y-104476645D01*
X143887906Y-104476649D01*
X143772812Y-104562809D01*
X143772809Y-104562812D01*
X143686649Y-104677906D01*
X143686645Y-104677913D01*
X143636403Y-104812620D01*
X143636401Y-104812627D01*
X143630000Y-104872155D01*
X143630000Y-105520000D01*
X144546988Y-105520000D01*
X144514075Y-105577007D01*
X144480000Y-105704174D01*
X144480000Y-105835826D01*
X144514075Y-105962993D01*
X144546988Y-106020000D01*
X143630000Y-106020000D01*
X143630000Y-106667844D01*
X142476724Y-106667844D01*
X142528282Y-106628282D01*
X142624536Y-106502841D01*
X142685044Y-106356762D01*
X142705682Y-106200000D01*
X142701745Y-106170099D01*
X142685044Y-106043239D01*
X142685044Y-106043238D01*
X142624536Y-105897159D01*
X142528282Y-105771718D01*
X142402841Y-105675464D01*
X142402839Y-105675463D01*
X142256761Y-105614955D01*
X142177916Y-105604575D01*
X142114019Y-105576308D01*
X142106421Y-105569317D01*
X140686819Y-104149715D01*
X140653334Y-104088392D01*
X140650500Y-104062034D01*
X140650500Y-99541419D01*
X140670185Y-99474380D01*
X140676124Y-99465933D01*
X140692092Y-99445121D01*
X140724536Y-99402841D01*
X140785044Y-99256762D01*
X140805682Y-99100000D01*
X140785044Y-98943238D01*
X140724536Y-98797159D01*
X140628282Y-98671718D01*
X140502841Y-98575464D01*
X140479831Y-98565933D01*
X140356762Y-98514956D01*
X140356760Y-98514955D01*
X140200001Y-98494318D01*
X140199999Y-98494318D01*
X140043239Y-98514955D01*
X140043237Y-98514956D01*
X139897160Y-98575463D01*
X139771718Y-98671718D01*
X139675463Y-98797160D01*
X139614956Y-98943237D01*
X139614955Y-98943239D01*
X139594318Y-99099998D01*
X139594318Y-99100001D01*
X137693000Y-99100001D01*
X137693000Y-98641419D01*
X137712685Y-98574380D01*
X137718624Y-98565933D01*
X137734592Y-98545121D01*
X137767036Y-98502841D01*
X137827544Y-98356762D01*
X137848182Y-98200000D01*
X137827544Y-98043238D01*
X137767036Y-97897159D01*
X137670782Y-97771718D01*
X137545341Y-97675464D01*
X137399262Y-97614956D01*
X137399260Y-97614955D01*
X137242501Y-97594318D01*
X137242499Y-97594318D01*
X137085739Y-97614955D01*
X137085737Y-97614956D01*
X136939660Y-97675463D01*
X136814218Y-97771718D01*
X136717963Y-97897160D01*
X136657456Y-98043237D01*
X136657455Y-98043239D01*
X136636818Y-98199998D01*
X136636818Y-98200001D01*
X135950500Y-98200001D01*
X135950500Y-94559753D01*
X135970185Y-94492714D01*
X136022989Y-94446959D01*
X136029698Y-94444130D01*
X136132519Y-94404298D01*
X136313802Y-94292052D01*
X136471372Y-94148407D01*
X136599866Y-93978255D01*
X136694905Y-93787389D01*
X136753256Y-93582310D01*
X136772929Y-93370000D01*
X136753256Y-93157690D01*
X136694905Y-92952611D01*
X136694903Y-92952606D01*
X136694903Y-92952605D01*
X136599867Y-92761746D01*
X136471372Y-92591593D01*
X136343633Y-92475143D01*
X136313802Y-92447948D01*
X136132519Y-92335702D01*
X136132517Y-92335701D01*
X136033108Y-92297190D01*
X135933698Y-92258679D01*
X135724110Y-92219500D01*
X135510890Y-92219500D01*
X135301302Y-92258679D01*
X135301299Y-92258679D01*
X135301299Y-92258680D01*
X135102482Y-92335701D01*
X135102480Y-92335702D01*
X134921199Y-92447947D01*
X134763627Y-92591593D01*
X134635132Y-92761746D01*
X134540096Y-92952605D01*
X134540096Y-92952607D01*
X134481744Y-93157689D01*
X134475470Y-93225394D01*
X134449683Y-93290331D01*
X134392883Y-93331018D01*
X134323102Y-93334538D01*
X134262495Y-93299772D01*
X134230306Y-93237759D01*
X134227999Y-93213952D01*
X134227999Y-92475143D01*
X134227999Y-92475136D01*
X134227997Y-92475117D01*
X134225086Y-92450012D01*
X134225085Y-92450010D01*
X134225085Y-92450009D01*
X134179706Y-92347235D01*
X134100265Y-92267794D01*
X134079624Y-92258680D01*
X133997492Y-92222415D01*
X133972365Y-92219500D01*
X132182643Y-92219500D01*
X132182617Y-92219502D01*
X132157512Y-92222413D01*
X132157508Y-92222415D01*
X132054735Y-92267793D01*
X131975294Y-92347234D01*
X131929915Y-92450006D01*
X131929915Y-92450008D01*
X131927000Y-92475131D01*
X131927000Y-94264856D01*
X130555500Y-94264856D01*
X130555500Y-91919500D01*
X130575185Y-91852461D01*
X130627989Y-91806706D01*
X130679500Y-91795500D01*
X143757336Y-91795500D01*
X143824375Y-91815185D01*
G37*
%TD.AperFunction*%
%TD*%
M02*
