%TF.GenerationSoftware,KiCad,Pcbnew,8.0.1*%
%TF.CreationDate,2024-05-12T21:11:43+05:30*%
%TF.ProjectId,PBSEQ-D2,50425345-512d-4443-922e-6b696361645f,0.1*%
%TF.SameCoordinates,Original*%
%TF.FileFunction,Other,User*%
%FSLAX46Y46*%
G04 Gerber Fmt 4.6, Leading zero omitted, Abs format (unit mm)*
G04 Created by KiCad (PCBNEW 8.0.1) date 2024-05-12 21:11:43*
%MOMM*%
%LPD*%
G01*
G04 APERTURE LIST*
%ADD10C,0.050000*%
G04 APERTURE END LIST*
D10*
%TO.C,R3*%
X137315000Y-95675000D02*
X140275000Y-95675000D01*
X137315000Y-97135000D02*
X137315000Y-95675000D01*
X140275000Y-95675000D02*
X140275000Y-97135000D01*
X140275000Y-97135000D02*
X137315000Y-97135000D01*
%TO.C,R5*%
X141010000Y-96300000D02*
X142470000Y-96300000D01*
X141010000Y-99260000D02*
X141010000Y-96300000D01*
X142470000Y-96300000D02*
X142470000Y-99260000D01*
X142470000Y-99260000D02*
X141010000Y-99260000D01*
%TO.C,J3*%
X131277500Y-91570000D02*
X131277500Y-95170000D01*
X131277500Y-95170000D02*
X137427500Y-95170000D01*
X137427500Y-91570000D02*
X131277500Y-91570000D01*
X137427500Y-95170000D02*
X137427500Y-91570000D01*
%TO.C,J1*%
X143180000Y-91470000D02*
X143180000Y-97620000D01*
X143180000Y-97620000D02*
X146780000Y-97620000D01*
X146780000Y-91470000D02*
X143180000Y-91470000D01*
X146780000Y-97620000D02*
X146780000Y-91470000D01*
%TO.C,Q1*%
X135035000Y-97406000D02*
X135035000Y-100806000D01*
X135035000Y-100806000D02*
X138875000Y-100806000D01*
X138875000Y-97406000D02*
X135035000Y-97406000D01*
X138875000Y-100806000D02*
X138875000Y-97406000D01*
%TO.C,D1*%
X143520000Y-97880000D02*
X146480000Y-97880000D01*
X143520000Y-99340000D02*
X143520000Y-97880000D01*
X146480000Y-97880000D02*
X146480000Y-99340000D01*
X146480000Y-99340000D02*
X143520000Y-99340000D01*
%TO.C,R2*%
X138725000Y-105455000D02*
X141685000Y-105455000D01*
X138725000Y-106915000D02*
X138725000Y-105455000D01*
X141685000Y-105455000D02*
X141685000Y-106915000D01*
X141685000Y-106915000D02*
X138725000Y-106915000D01*
%TO.C,R6*%
X141010000Y-100120000D02*
X143970000Y-100120000D01*
X141010000Y-101580000D02*
X141010000Y-100120000D01*
X143970000Y-100120000D02*
X143970000Y-101580000D01*
X143970000Y-101580000D02*
X141010000Y-101580000D01*
%TO.C,J2*%
X143180000Y-103970000D02*
X143180000Y-110120000D01*
X143180000Y-110120000D02*
X146780000Y-110120000D01*
X146780000Y-103970000D02*
X143180000Y-103970000D01*
X146780000Y-110120000D02*
X146780000Y-103970000D01*
%TO.C,D2*%
X143520000Y-102270000D02*
X146480000Y-102270000D01*
X143520000Y-103730000D02*
X143520000Y-102270000D01*
X146480000Y-102270000D02*
X146480000Y-103730000D01*
X146480000Y-103730000D02*
X143520000Y-103730000D01*
%TO.C,R4*%
X131025000Y-95875000D02*
X133985000Y-95875000D01*
X131025000Y-97335000D02*
X131025000Y-95875000D01*
X133985000Y-95875000D02*
X133985000Y-97335000D01*
X133985000Y-97335000D02*
X131025000Y-97335000D01*
%TO.C,C1*%
X130925000Y-97725000D02*
X132385000Y-97725000D01*
X130925000Y-100685000D02*
X130925000Y-97725000D01*
X132385000Y-97725000D02*
X132385000Y-100685000D01*
X132385000Y-100685000D02*
X130925000Y-100685000D01*
%TO.C,SW1*%
X137535000Y-109635000D02*
X131635000Y-109635000D01*
X131635000Y-106435000D01*
X137535000Y-106435000D01*
X137535000Y-109635000D01*
%TO.C,R1*%
X132695000Y-97725000D02*
X134155000Y-97725000D01*
X132695000Y-100685000D02*
X132695000Y-97725000D01*
X134155000Y-97725000D02*
X134155000Y-100685000D01*
X134155000Y-100685000D02*
X132695000Y-100685000D01*
%TO.C,C2*%
X134735000Y-102015000D02*
X136195000Y-102015000D01*
X134735000Y-104975000D02*
X134735000Y-102015000D01*
X136195000Y-102015000D02*
X136195000Y-104975000D01*
X136195000Y-104975000D02*
X134735000Y-104975000D01*
%TO.C,Q2*%
X137037000Y-101125000D02*
X137037000Y-104965000D01*
X137037000Y-104965000D02*
X140437000Y-104965000D01*
X140437000Y-101125000D02*
X137037000Y-101125000D01*
X140437000Y-104965000D02*
X140437000Y-101125000D01*
%TD*%
M02*
